<svg width="52" height="66" viewBox="0 0 52 66" fill="none" xmlns="http://www.w3.org/2000/svg">
<mask id="path-1-outside-1_304_1746" maskUnits="userSpaceOnUse" x="0.265564" y="0" width="52" height="56" fill="black">
<rect fill="white" x="0.265564" width="52" height="56"/>
<path d="M17.9398 54.0606C17.9492 54.0606 18.0436 54.0512 18.223 54.0512C18.4212 54.0512 18.695 54.0417 19.0348 54.0323C19.7711 54.0228 20.8095 54.0134 22.1595 53.9945C24.8876 53.9756 28.843 53.9473 33.8274 53.9095L33.727 53.9103C33.6798 51.8996 33.5819 49.7937 33.5253 47.3865V47.2732L33.6291 47.226C36.9614 45.7061 40.4543 43.45 43.6167 40.3914C45.1932 38.8621 46.6186 37.0496 47.8081 35.02C49.0258 32.9998 49.7527 30.6398 50.1115 28.1949C50.6684 23.2672 49.5733 17.8014 46.5431 13.2418C43.5695 8.67283 38.9533 4.92513 33.5253 2.85776C29.4755 1.31903 25.0764 1.13968 21.0267 1.98928C16.9486 2.74448 13.2009 4.55698 10.1706 7.01139C7.11202 9.4658 4.96913 12.7132 3.6192 16.0644C3.32656 16.9234 2.95841 17.7447 2.74129 18.6038C2.5336 19.4628 2.32592 20.3218 2.11824 21.162C1.8256 22.8707 1.64624 24.5604 1.67456 26.203C1.71232 27.8456 1.92 29.4409 2.26928 30.9514C2.63745 32.4618 3.17552 33.8683 3.79857 35.1805C5.07297 37.7954 6.76275 39.9572 8.50916 41.7036C12.0303 45.1964 18.2513 48.3588 18.2513 48.3588L18.3079 48.3871V48.4438C18.1946 50.2657 18.1191 51.6534 18.0625 52.6068C18.0342 53.0599 18.0058 53.4187 17.987 53.6735C17.9586 53.9284 17.9492 54.0606 17.9398 54.0606C17.9303 54.07 17.9303 53.9473 17.9398 53.7207C17.9492 53.4659 17.9586 53.1166 17.9681 52.6635C18.0058 51.6911 18.1097 50.3695 18.1758 48.5287C18.4476 48.5759 11.8792 45.4229 8.29202 41.9207C6.51729 40.1648 4.78977 37.9936 3.47761 35.341C2.83569 34.0194 2.27872 32.575 1.90112 31.0457C1.53296 29.507 1.31583 27.8928 1.26863 26.2124C1.24031 24.5416 1.41023 22.8235 1.70287 21.0865C1.91056 20.2275 2.11824 19.3684 2.32592 18.4905C2.54304 17.6126 2.9112 16.7724 3.20384 15.9039C4.57265 12.4961 6.75329 9.15428 9.86851 6.65267C12.9648 4.15105 16.7786 2.3008 20.9322 1.51728C25.0481 0.648793 29.5605 0.828156 33.6952 2.40464C39.2271 4.50977 43.9188 8.32356 46.949 12.9869C48.4689 15.3186 49.5639 17.8674 50.1303 20.4823C50.3286 21.1243 50.3852 21.7851 50.4796 22.4364C50.574 23.0878 50.6873 23.7392 50.6778 24.3905C50.6967 25.0419 50.7345 25.6932 50.7345 26.3352C50.6778 26.9771 50.6212 27.619 50.5646 28.2515C50.1964 30.7626 49.4318 33.1698 48.1857 35.2277C46.9679 37.2951 45.5141 39.1264 43.9093 40.6746C40.6808 43.7615 37.2737 45.8827 33.8753 47.412C33.913 49.8287 33.9501 52.0404 33.9878 54.0512V54.2022H33.8368C28.8147 54.1644 24.831 54.1361 22.0745 54.1172C20.7435 54.0983 19.705 54.0889 18.9782 54.0795C18.6478 54.07 18.3834 54.07 18.1946 54.0606C18.0247 54.07 17.9398 54.07 17.9398 54.0606Z"/>
</mask>
<path d="M17.9398 54.0606C17.9492 54.0606 18.0436 54.0512 18.223 54.0512C18.4212 54.0512 18.695 54.0417 19.0348 54.0323C19.7711 54.0228 20.8095 54.0134 22.1595 53.9945C24.8876 53.9756 28.843 53.9473 33.8274 53.9095L33.727 53.9103C33.6798 51.8996 33.5819 49.7937 33.5253 47.3865V47.2732L33.6291 47.226C36.9614 45.7061 40.4543 43.45 43.6167 40.3914C45.1932 38.8621 46.6186 37.0496 47.8081 35.02C49.0258 32.9998 49.7527 30.6398 50.1115 28.1949C50.6684 23.2672 49.5733 17.8014 46.5431 13.2418C43.5695 8.67283 38.9533 4.92513 33.5253 2.85776C29.4755 1.31903 25.0764 1.13968 21.0267 1.98928C16.9486 2.74448 13.2009 4.55698 10.1706 7.01139C7.11202 9.4658 4.96913 12.7132 3.6192 16.0644C3.32656 16.9234 2.95841 17.7447 2.74129 18.6038C2.5336 19.4628 2.32592 20.3218 2.11824 21.162C1.8256 22.8707 1.64624 24.5604 1.67456 26.203C1.71232 27.8456 1.92 29.4409 2.26928 30.9514C2.63745 32.4618 3.17552 33.8683 3.79857 35.1805C5.07297 37.7954 6.76275 39.9572 8.50916 41.7036C12.0303 45.1964 18.2513 48.3588 18.2513 48.3588L18.3079 48.3871V48.4438C18.1946 50.2657 18.1191 51.6534 18.0625 52.6068C18.0342 53.0599 18.0058 53.4187 17.987 53.6735C17.9586 53.9284 17.9492 54.0606 17.9398 54.0606C17.9303 54.07 17.9303 53.9473 17.9398 53.7207C17.9492 53.4659 17.9586 53.1166 17.9681 52.6635C18.0058 51.6911 18.1097 50.3695 18.1758 48.5287C18.4476 48.5759 11.8792 45.4229 8.29202 41.9207C6.51729 40.1648 4.78977 37.9936 3.47761 35.341C2.83569 34.0194 2.27872 32.575 1.90112 31.0457C1.53296 29.507 1.31583 27.8928 1.26863 26.2124C1.24031 24.5416 1.41023 22.8235 1.70287 21.0865C1.91056 20.2275 2.11824 19.3684 2.32592 18.4905C2.54304 17.6126 2.9112 16.7724 3.20384 15.9039C4.57265 12.4961 6.75329 9.15428 9.86851 6.65267C12.9648 4.15105 16.7786 2.3008 20.9322 1.51728C25.0481 0.648793 29.5605 0.828156 33.6952 2.40464C39.2271 4.50977 43.9188 8.32356 46.949 12.9869C48.4689 15.3186 49.5639 17.8674 50.1303 20.4823C50.3286 21.1243 50.3852 21.7851 50.4796 22.4364C50.574 23.0878 50.6873 23.7392 50.6778 24.3905C50.6967 25.0419 50.7345 25.6932 50.7345 26.3352C50.6778 26.9771 50.6212 27.619 50.5646 28.2515C50.1964 30.7626 49.4318 33.1698 48.1857 35.2277C46.9679 37.2951 45.5141 39.1264 43.9093 40.6746C40.6808 43.7615 37.2737 45.8827 33.8753 47.412C33.913 49.8287 33.9501 52.0404 33.9878 54.0512V54.2022H33.8368C28.8147 54.1644 24.831 54.1361 22.0745 54.1172C20.7435 54.0983 19.705 54.0889 18.9782 54.0795C18.6478 54.07 18.3834 54.07 18.1946 54.0606C18.0247 54.07 17.9398 54.07 17.9398 54.0606Z" fill="white"/>
<path d="M17.9398 54.0606V53.0606H17.5255L17.2326 53.3535L17.9398 54.0606ZM19.0348 54.0323L19.022 53.0323L19.0145 53.0324L19.007 53.0326L19.0348 54.0323ZM22.1595 53.9945L22.1525 52.9945L22.1455 52.9946L22.1595 53.9945ZM33.727 53.9103L32.7273 53.9338L32.7504 54.9177L33.7346 54.9103L33.727 53.9103ZM33.5253 47.3865H32.5253V47.3982L32.5256 47.41L33.5253 47.3865ZM33.5253 47.2732L33.1114 46.3629L32.5253 46.6293V47.2732H33.5253ZM33.6291 47.226L34.043 48.1363L34.0441 48.1358L33.6291 47.226ZM43.6167 40.3914L44.3119 41.1102L44.313 41.1092L43.6167 40.3914ZM47.8081 35.02L46.9516 34.5037L46.9453 34.5144L47.8081 35.02ZM50.1115 28.1949L51.1009 28.34L51.1033 28.3236L51.1051 28.3072L50.1115 28.1949ZM46.5431 13.2418L45.7049 13.7873L45.7102 13.7953L46.5431 13.2418ZM33.5253 2.85776L33.8812 1.92325L33.8805 1.92296L33.5253 2.85776ZM21.0267 1.98928L21.2087 2.97256L21.2204 2.97041L21.232 2.96797L21.0267 1.98928ZM10.1706 7.01139L10.7965 7.79133L10.8 7.78847L10.1706 7.01139ZM3.6192 16.0644L2.69163 15.6908L2.68143 15.7161L2.67262 15.7419L3.6192 16.0644ZM2.74129 18.6038L1.77172 18.3587L1.76929 18.3688L2.74129 18.6038ZM2.11824 21.162L1.14746 20.922L1.13873 20.9574L1.13259 20.9932L2.11824 21.162ZM1.67456 26.203L0.674688 26.2202L0.67482 26.226L1.67456 26.203ZM2.26928 30.9514L1.29493 31.1767L1.29773 31.1882L2.26928 30.9514ZM3.79857 35.1805L2.89518 35.6094L2.89964 35.6186L3.79857 35.1805ZM8.50916 41.7036L7.80204 42.4107L7.80491 42.4135L8.50916 41.7036ZM18.2513 48.3588L17.7981 49.2503L17.8041 49.2532L18.2513 48.3588ZM18.3079 48.3871H19.3079V47.7691L18.7551 47.4927L18.3079 48.3871ZM18.3079 48.4438L19.306 48.5058L19.3079 48.4748V48.4438H18.3079ZM18.0625 52.6068L19.0605 52.6692L19.0607 52.6661L18.0625 52.6068ZM17.987 53.6735L18.9808 53.784L18.9829 53.7657L18.9842 53.7474L17.987 53.6735ZM17.9398 53.7207L18.9389 53.7624L18.9391 53.7578L17.9398 53.7207ZM17.9681 52.6635L16.9688 52.6247L16.9685 52.6336L16.9683 52.6426L17.9681 52.6635ZM18.1758 48.5287L18.3468 47.5435L17.2175 47.3474L17.1764 48.4928L18.1758 48.5287ZM8.29202 41.9207L7.58869 42.6316L7.59344 42.6362L8.29202 41.9207ZM3.47761 35.341L2.57808 35.7779L2.58128 35.7844L3.47761 35.341ZM1.90112 31.0457L0.928547 31.2784L0.930279 31.2855L1.90112 31.0457ZM1.26863 26.2124L0.268708 26.2294L0.269021 26.2405L1.26863 26.2124ZM1.70287 21.0865L0.730877 20.8515L0.722614 20.8857L0.716772 20.9204L1.70287 21.0865ZM2.32592 18.4905L1.35512 18.2504L1.35278 18.2603L2.32592 18.4905ZM3.20384 15.9039L2.27589 15.5312L2.26528 15.5576L2.25619 15.5846L3.20384 15.9039ZM9.86851 6.65267L10.4946 7.43238L10.497 7.43052L9.86851 6.65267ZM20.9322 1.51728L21.1176 2.49995L21.1282 2.49795L21.1387 2.49573L20.9322 1.51728ZM33.6952 2.40464L33.3389 3.33903L33.3395 3.33926L33.6952 2.40464ZM46.949 12.9869L46.1105 13.5318L46.1113 13.533L46.949 12.9869ZM50.1303 20.4823L49.153 20.694L49.1621 20.7362L49.1748 20.7774L50.1303 20.4823ZM50.6778 24.3905L49.6779 24.376L49.6776 24.3978L49.6782 24.4195L50.6778 24.3905ZM50.7345 26.3352L51.7306 26.4231L51.7345 26.3792V26.3352H50.7345ZM50.5646 28.2515L51.554 28.3966L51.5581 28.3687L51.5606 28.3407L50.5646 28.2515ZM48.1857 35.2277L47.3302 34.7097L47.324 34.7202L48.1857 35.2277ZM43.9093 40.6746L44.6004 41.3974L44.6036 41.3943L43.9093 40.6746ZM33.8753 47.412L33.4649 46.5001L32.8651 46.77L32.8754 47.4277L33.8753 47.412ZM33.9878 54.0512H34.9878V54.0418L34.9877 54.0324L33.9878 54.0512ZM33.9878 54.2022V55.2022H34.9878V54.2022H33.9878ZM33.8368 54.2022L33.8293 55.2022H33.8368V54.2022ZM22.0745 54.1172L22.0603 55.1171L22.0676 55.1172L22.0745 54.1172ZM18.9782 54.0795L18.9496 55.0791L18.9574 55.0793L18.9652 55.0794L18.9782 54.0795ZM18.1946 54.0606L18.2446 53.0618L18.1919 53.0592L18.1392 53.0621L18.1946 54.0606ZM17.9398 55.0606C17.9706 55.0606 17.9959 55.0591 17.9976 55.059C18.0051 55.0586 18.0115 55.0581 18.0144 55.0579C18.0177 55.0577 18.0213 55.0575 18.0235 55.0573C18.0261 55.0571 18.0283 55.057 18.0307 55.0568C18.0397 55.0562 18.0517 55.0554 18.0675 55.0546C18.0993 55.053 18.1511 55.0512 18.223 55.0512V53.0512C18.1155 53.0512 18.0304 53.054 17.9677 53.0571C17.9364 53.0587 17.9118 53.0603 17.8948 53.0614C17.8806 53.0624 17.8866 53.062 17.8802 53.0624C17.8792 53.0625 17.8825 53.0623 17.8875 53.062C17.8901 53.0619 17.8954 53.0616 17.9022 53.0613C17.9077 53.0611 17.9217 53.0606 17.9398 53.0606V55.0606ZM18.223 55.0512C18.4396 55.0512 18.7369 55.0409 19.0626 55.0319L19.007 53.0326C18.653 53.0425 18.4028 53.0512 18.223 53.0512V55.0512ZM19.0476 55.0322C19.7767 55.0228 20.8253 55.0133 22.1734 54.9944L22.1455 52.9946C20.7938 53.0135 19.7656 53.0228 19.022 53.0323L19.0476 55.0322ZM22.1664 54.9945C24.8948 54.9756 28.8504 54.9473 33.8349 54.9095L33.8198 52.9096C28.8357 52.9473 24.8805 52.9757 22.1525 52.9945L22.1664 54.9945ZM33.8198 52.9096L33.7195 52.9103L33.7346 54.9103L33.8349 54.9095L33.8198 52.9096ZM34.7268 53.8868C34.703 52.8747 34.6665 51.8394 34.6291 50.7624C34.5916 49.6835 34.5532 48.5603 34.525 47.363L32.5256 47.41C32.554 48.6198 32.5928 49.7532 32.6303 50.8318C32.6678 51.9121 32.7039 52.9352 32.7273 53.9338L34.7268 53.8868ZM34.5253 47.3865V47.2732H32.5253V47.3865H34.5253ZM33.9391 48.1835L34.043 48.1363L33.2152 46.3157L33.1114 46.3629L33.9391 48.1835ZM34.0441 48.1358C37.4738 46.5716 41.0628 44.2526 44.3119 41.1102L42.9215 39.6726C39.8457 42.6474 36.4491 44.8407 33.2141 46.3162L34.0441 48.1358ZM44.313 41.1092C45.956 39.5154 47.4369 37.6311 48.6708 35.5256L46.9453 34.5144C45.8003 36.4682 44.4304 38.2089 42.9204 39.6736L44.313 41.1092ZM48.6645 35.5363C49.9675 33.3747 50.7282 30.8799 51.1009 28.34L49.122 28.0497C48.7772 30.3997 48.0842 32.625 46.9516 34.5037L48.6645 35.5363ZM51.1051 28.3072C51.6865 23.1634 50.5461 17.4584 47.3759 12.6883L45.7102 13.7953C48.6005 18.1443 49.6503 23.3709 49.1178 28.0825L51.1051 28.3072ZM47.3812 12.6963C44.2896 7.94606 39.5028 4.06433 33.8812 1.92325L33.1694 3.79228C38.4038 5.78593 42.8493 9.3996 45.705 13.7873L47.3812 12.6963ZM33.8805 1.92296C29.6314 0.30852 25.0356 0.126468 20.8213 1.01059L21.232 2.96797C25.1172 2.15288 29.3196 2.32955 33.1701 3.79256L33.8805 1.92296ZM20.8446 1.006C16.5948 1.793 12.6948 3.68 9.54119 6.23432L10.8 7.78847C13.7069 5.43396 17.3023 3.69597 21.2087 2.97256L20.8446 1.006ZM9.54473 6.23146C6.32835 8.81251 4.09301 12.2118 2.69163 15.6908L4.54678 16.438C5.84525 13.2146 7.8957 10.1191 10.7965 7.79132L9.54473 6.23146ZM2.67262 15.7419C2.42414 16.4713 1.9992 17.4589 1.77177 18.3587L3.7108 18.8488C3.91761 18.0305 4.22899 17.3755 4.56579 16.3869L2.67262 15.7419ZM1.76929 18.3688C1.5615 19.2283 1.35442 20.0848 1.14746 20.922L3.08902 21.402C3.29742 20.5589 3.50571 19.6974 3.71328 18.8388L1.76929 18.3688ZM1.13259 20.9932C0.833382 22.7402 0.64497 24.4956 0.674704 26.2202L2.67441 26.1858C2.6475 24.6252 2.81781 23.0011 3.10389 21.3308L1.13259 20.9932ZM0.67482 26.226C0.714168 27.9376 0.930571 29.6008 1.29499 31.1767L3.24357 30.726C2.90943 29.2811 2.71046 27.7535 2.67429 26.18L0.67482 26.226ZM1.29773 31.1882C1.68516 32.7776 2.24924 34.2489 2.89523 35.6094L4.70191 34.7516C4.10181 33.4877 3.58973 32.1459 3.24084 30.7145L1.29773 31.1882ZM2.89964 35.6186C4.23147 38.3513 5.99289 40.6015 7.80205 42.4107L9.21626 40.9965C7.5326 39.3128 5.91447 37.2395 4.69749 34.7424L2.89964 35.6186ZM7.80491 42.4135C9.6486 44.2424 12.1629 45.9542 14.1768 47.1928C15.1911 47.8166 16.0931 48.3292 16.7423 48.6863C17.0671 48.8649 17.3291 49.0049 17.5108 49.1007C17.6016 49.1486 17.6725 49.1855 17.7211 49.2106C17.7454 49.2232 17.7641 49.2328 17.7771 49.2395C17.7835 49.2428 17.7885 49.2454 17.7921 49.2472C17.7938 49.248 17.7952 49.2488 17.7962 49.2493C17.7967 49.2495 17.7971 49.2497 17.7975 49.2499C17.7976 49.25 17.7978 49.2501 17.7979 49.2501C17.798 49.2502 17.7981 49.2502 18.2513 48.3588C18.7044 47.4674 18.7045 47.4674 18.7046 47.4674C18.7045 47.4674 18.7046 47.4674 18.7045 47.4674C18.7045 47.4674 18.7043 47.4673 18.7041 47.4672C18.7036 47.4669 18.7027 47.4665 18.7014 47.4658C18.699 47.4646 18.695 47.4625 18.6896 47.4598C18.6787 47.4542 18.6621 47.4457 18.64 47.4342C18.5958 47.4114 18.5295 47.3769 18.4434 47.3315C18.2712 47.2407 18.0196 47.1063 17.7062 46.9339C17.0789 46.5889 16.2056 46.0926 15.2245 45.4892C13.2476 44.2734 10.8908 42.6576 9.2134 40.9936L7.80491 42.4135ZM17.8041 49.2532L17.8607 49.2815L18.7551 47.4927L18.6985 47.4644L17.8041 49.2532ZM17.3079 48.3871V48.4438H19.3079V48.3871H17.3079ZM17.3098 48.3817C17.1965 50.2043 17.1204 51.6013 17.0642 52.5475L19.0607 52.6661C19.1178 51.7054 19.1927 50.3271 19.306 48.5058L17.3098 48.3817ZM17.0644 52.5444C17.0366 52.9901 17.0089 53.3402 16.9897 53.5997L18.9842 53.7474C19.0028 53.4971 19.0317 53.1298 19.0605 52.6692L17.0644 52.5444ZM16.9931 53.5631C16.9807 53.6748 16.9658 53.8211 16.9622 53.8542C16.9585 53.8883 16.958 53.8886 16.96 53.8759C16.9608 53.8708 16.9627 53.8601 16.9656 53.8456C16.9682 53.8331 16.9741 53.8056 16.9844 53.7706C16.991 53.7484 17.0169 53.6606 17.0754 53.5591C17.1046 53.5087 17.169 53.4063 17.2833 53.3066C17.4038 53.2015 17.6278 53.0606 17.9398 53.0606V55.0606C18.2523 55.0606 18.4769 54.9194 18.598 54.8138C18.7129 54.7136 18.7779 54.6104 18.8076 54.5589C18.8674 54.4554 18.8944 54.3645 18.9022 54.3382C18.9223 54.2703 18.9316 54.2123 18.9342 54.196C18.9416 54.1506 18.947 54.1019 18.9504 54.0711C18.9609 53.9744 18.9649 53.9272 18.9808 53.784L16.9931 53.5631ZM17.2326 53.3535C17.3147 53.2714 17.5044 53.1111 17.8037 53.0703C18.1428 53.024 18.4171 53.1566 18.583 53.2965C18.7264 53.4176 18.7993 53.5486 18.8288 53.6067C18.8634 53.6747 18.8829 53.7326 18.893 53.7656C18.913 53.8312 18.9213 53.8835 18.9243 53.903C18.928 53.928 18.9299 53.9475 18.9308 53.9576C18.9335 53.9892 18.9327 54.0037 18.9327 53.9792C18.9327 53.9425 18.9343 53.8718 18.9389 53.7624L16.9406 53.6791C16.9357 53.7963 16.9327 53.9002 16.9327 53.9792C16.9327 54.0125 16.933 54.07 16.9381 54.129C16.939 54.1395 16.9458 54.2373 16.9804 54.3504C16.9909 54.3848 17.0108 54.4439 17.0459 54.5129C17.0759 54.5719 17.1492 54.7036 17.2932 54.8251C17.4596 54.9655 17.7344 55.0983 18.0741 55.0519C18.374 55.011 18.5642 54.8503 18.6469 54.7677L17.2326 53.3535ZM18.9391 53.7578C18.9488 53.4951 18.9584 53.1397 18.9679 52.6843L16.9683 52.6426C16.9589 53.0935 16.9496 53.4367 16.9404 53.6837L18.9391 53.7578ZM18.9673 52.7023C18.9857 52.2281 19.0203 51.669 19.0597 50.9788C19.0988 50.2939 19.1417 49.4953 19.1751 48.5646L17.1764 48.4928C17.1437 49.403 17.1017 50.1855 17.0629 50.8648C17.0244 51.5386 16.9882 52.1265 16.9688 52.6247L18.9673 52.7023ZM18.0047 49.514C18.0338 49.519 18.1054 49.5306 18.1968 49.5291C18.2244 49.5287 18.5477 49.535 18.8366 49.2859C19.0219 49.1261 19.1497 48.8967 19.178 48.6361C19.2031 48.4065 19.1432 48.227 19.1027 48.1326C19.0278 47.958 18.921 47.8499 18.8979 47.8262C18.8287 47.7551 18.7622 47.7087 18.7481 47.6987C18.7215 47.6798 18.6971 47.6642 18.6803 47.6536C18.6189 47.6151 18.5367 47.5691 18.459 47.5262C18.2949 47.4357 18.036 47.297 17.7273 47.1296C17.0988 46.7887 16.2038 46.2964 15.1913 45.6957C13.1491 44.4841 10.6954 42.8696 8.99061 41.2052L7.59344 42.6362C9.47587 44.4741 12.0999 46.1871 14.1708 47.4158C15.2148 48.0352 16.135 48.5412 16.7737 48.8876C17.0987 49.0639 17.3364 49.1911 17.4934 49.2777C17.5313 49.2986 17.5612 49.3153 17.5841 49.3284C17.6087 49.3424 17.618 49.3481 17.6177 49.3479C17.6169 49.3475 17.6145 49.3459 17.6106 49.3434C17.607 49.341 17.6003 49.3366 17.5916 49.3304C17.5885 49.3281 17.5298 49.2879 17.4651 49.2215C17.4443 49.2001 17.3389 49.094 17.2647 48.921C17.2246 48.8274 17.1649 48.6486 17.1898 48.4196C17.2181 48.1596 17.3456 47.9307 17.5305 47.7713C17.8184 47.523 18.1399 47.5298 18.1649 47.5294C18.2537 47.5279 18.3219 47.5391 18.3468 47.5435L18.0047 49.514ZM8.99534 41.2098C7.28227 39.515 5.62741 37.4316 4.37394 34.8976L2.58128 35.7844C3.95214 38.5557 5.75232 40.8147 7.58871 42.6316L8.99534 41.2098ZM4.37712 34.9041C3.76047 33.6345 3.23006 32.2563 2.87197 30.806L0.930279 31.2855C1.32738 32.8937 1.9109 34.4042 2.5781 35.7779L4.37712 34.9041ZM2.87367 30.813C2.5217 29.342 2.31351 27.7963 2.26823 26.1844L0.269021 26.2405C0.318141 27.9892 0.54422 29.672 0.928573 31.2784L2.87367 30.813ZM2.26848 26.1955C2.24148 24.6022 2.40341 22.9476 2.68898 21.2526L0.716772 20.9204C0.417055 22.6993 0.239135 24.4809 0.26877 26.2294L2.26848 26.1955ZM2.67487 21.3215C2.88247 20.4628 3.09072 19.6014 3.29906 18.7207L1.35278 18.2603C1.14576 19.1354 0.938646 19.9921 0.730877 20.8515L2.67487 21.3215ZM3.29667 18.7306C3.50277 17.8972 3.81813 17.2126 4.15149 16.2232L2.25619 15.5846C2.00427 16.3322 1.58332 17.3279 1.35517 18.2504L3.29667 18.7306ZM4.13178 16.2766C5.45047 12.9936 7.5396 9.80537 10.4946 7.43238L9.24238 5.87295C5.96698 8.50319 3.69482 11.9985 2.27589 15.5312L4.13178 16.2766ZM10.497 7.43052C13.4713 5.0275 17.1343 3.25134 21.1176 2.49995L20.7469 0.534608C16.4229 1.35026 12.4584 3.27461 9.24006 5.87481L10.497 7.43052ZM21.1387 2.49573C25.0897 1.66204 29.4044 1.8389 33.3389 3.33903L34.0515 1.47026C29.7165 -0.182583 25.0065 -0.364451 20.7258 0.538823L21.1387 2.49573ZM33.3395 3.33926C38.6771 5.37047 43.1981 9.04978 46.1105 13.5318L47.7875 12.4421C44.6395 7.59734 39.777 3.64908 34.0509 1.47003L33.3395 3.33926ZM46.1113 13.533C47.5699 15.7708 48.6143 18.2073 49.153 20.694L51.1077 20.2706C50.5135 17.5276 49.3678 14.8665 47.7868 12.4409L46.1113 13.533ZM49.1748 20.7774C49.3427 21.3209 49.3844 21.8514 49.4899 22.5799L51.4693 22.293C51.386 21.7188 51.3144 20.9277 51.0858 20.1873L49.1748 20.7774ZM49.4899 22.5799C49.5907 23.2753 49.6859 23.8252 49.6779 24.376L51.6777 24.405C51.6886 23.6531 51.5573 22.9003 51.4693 22.293L49.4899 22.5799ZM49.6782 24.4195C49.6983 25.1123 49.7345 25.7101 49.7345 26.3352H51.7345C51.7345 25.6764 51.6951 24.9715 51.6774 24.3615L49.6782 24.4195ZM49.7383 26.2473C49.6817 26.8893 49.6251 27.5306 49.5685 28.1623L51.5606 28.3407C51.6173 27.7074 51.674 27.0649 51.7306 26.4231L49.7383 26.2473ZM49.5751 28.1064C49.2218 30.5164 48.4927 32.7899 47.3303 34.7097L49.0411 35.7456C50.3708 33.5496 51.171 31.0087 51.554 28.3966L49.5751 28.1064ZM47.324 34.7202C46.1516 36.7106 44.7539 38.4704 43.215 39.9549L44.6036 41.3943C46.2744 39.7825 47.7842 37.8795 49.0473 35.7352L47.324 34.7202ZM43.2183 39.9518C40.0816 42.9509 36.7726 45.0116 33.4649 46.5001L34.2856 48.324C37.7747 46.7539 41.2801 44.5721 44.6004 41.3974L43.2183 39.9518ZM32.8754 47.4277C32.9131 49.8449 32.9502 52.0578 32.988 54.0699L34.9877 54.0324C34.9499 52.0231 34.9129 49.8124 34.8751 47.3964L32.8754 47.4277ZM32.9878 54.0512V54.2022H34.9878V54.0512H32.9878ZM33.9878 53.2022H33.8368V55.2022H33.9878V53.2022ZM33.8443 53.2022C28.822 53.1644 24.8381 53.1361 22.0813 53.1172L22.0676 55.1172C24.8239 55.1361 28.8074 55.1644 33.8293 55.2022L33.8443 53.2022ZM22.0887 53.1173C20.7596 53.0985 19.7103 53.0889 18.9911 53.0796L18.9652 55.0794C19.6998 55.0889 20.7273 55.0982 22.0603 55.1171L22.0887 53.1173ZM19.0067 53.0799C18.6271 53.069 18.426 53.0709 18.2446 53.0618L18.1447 55.0593C18.3408 55.0691 18.6685 55.071 18.9496 55.0791L19.0067 53.0799ZM18.1392 53.0621C18.0583 53.0666 18.0172 53.0677 18.0035 53.0677C17.9906 53.0677 18.0198 53.0669 18.0661 53.072C18.0798 53.0735 18.1603 53.0818 18.26 53.115C18.3046 53.1299 18.426 53.1728 18.5547 53.2729C18.6887 53.3771 18.9398 53.6368 18.9398 54.0606H16.9398C16.9398 54.4855 17.1914 54.7463 17.3268 54.8516C17.4569 54.9527 17.5802 54.9966 17.6275 55.0124C17.7325 55.0474 17.8209 55.0571 17.8453 55.0598C17.9128 55.0673 17.9738 55.0677 18.0035 55.0677C18.0748 55.0677 18.1611 55.064 18.2501 55.059L18.1392 53.0621Z" fill="white" mask="url(#path-1-outside-1_304_1746)"/>
<path d="M25.8978 59.2239C28.1575 59.2239 30.2042 59.1956 31.6879 59.1505C32.4288 59.128 33.0344 59.1013 33.4574 59.0713C33.667 59.0565 33.842 59.0402 33.9694 59.0218C34.0297 59.0131 34.0988 59.0012 34.1608 58.9832C34.188 58.9753 34.2443 58.9578 34.3038 58.9233C34.3335 58.9061 34.3877 58.8712 34.4394 58.8113C34.4939 58.7481 34.5635 58.6346 34.5635 58.4785C34.5635 58.3224 34.4939 58.2089 34.4394 58.1457C34.3877 58.0858 34.3335 58.0509 34.3038 58.0337C34.2443 57.9991 34.188 57.9817 34.1608 57.9738C34.0988 57.9558 34.0297 57.9439 33.9694 57.9352C33.842 57.9167 33.667 57.9004 33.4574 57.8856C33.0344 57.8557 32.4289 57.8289 31.688 57.8064C30.2042 57.7614 28.1575 57.733 25.8978 57.733C23.6382 57.733 21.5915 57.7614 20.1077 57.8064C19.3668 57.8289 18.7613 57.8557 18.3382 57.8856C18.1287 57.9004 17.9536 57.9167 17.8263 57.9352C17.766 57.9439 17.6969 57.9558 17.6349 57.9738C17.6077 57.9817 17.5514 57.9991 17.4919 58.0337C17.4622 58.0509 17.4079 58.0858 17.3563 58.1457C17.3018 58.2089 17.2322 58.3224 17.2322 58.4785C17.2322 58.7642 17.45 58.8985 17.4797 58.9168L17.4803 58.9172C17.5413 58.9548 17.5995 58.9739 17.6278 58.9826C17.6918 59.0022 17.7627 59.0149 17.8234 59.0241C17.952 59.0435 18.128 59.0602 18.3377 59.0753C18.7613 59.1057 19.3673 59.1322 20.1081 59.1541C21.5919 59.1979 23.6386 59.2239 25.8978 59.2239Z" fill="white" stroke="white"/>
<path d="M23.7389 65.2543C24.2853 65.3676 25.036 65.4677 25.8716 65.4922C26.7079 65.5214 27.464 65.4679 28.0159 65.3882C28.2899 65.3486 28.5261 65.3008 28.7016 65.2489C28.7854 65.2242 28.8791 65.1917 28.9609 65.1477C28.9993 65.1271 29.0645 65.0885 29.1252 65.0254C29.1789 64.9695 29.2975 64.8202 29.2737 64.6005C29.2527 64.3937 29.1213 64.2722 29.0513 64.222C28.9785 64.1697 28.9058 64.1438 28.8646 64.1308C28.7775 64.1034 28.6807 64.0893 28.5995 64.0803C28.4284 64.0613 28.197 64.0518 27.9368 64.0454C27.7428 64.0405 27.529 64.0372 27.2981 64.0336C26.8864 64.0273 26.4203 64.02 25.9151 64.0019L25.9151 64.0019L25.9121 64.0018C25.4315 63.9874 24.9956 63.9667 24.6055 63.9482C24.3487 63.936 24.1118 63.9248 23.8951 63.9169C23.6357 63.9075 23.4046 63.903 23.2322 63.912C23.1499 63.9162 23.0529 63.9247 22.9645 63.9466C22.9221 63.9572 22.8508 63.9781 22.7775 64.0227C22.7069 64.0657 22.5681 64.173 22.5276 64.3752L22.5249 64.3888L22.5229 64.4025C22.4912 64.6249 22.6071 64.7781 22.6559 64.8328C22.7117 64.8955 22.7725 64.936 22.8096 64.9586C22.8881 65.0064 22.9792 65.0441 23.0619 65.0739C23.2345 65.1361 23.4675 65.198 23.7389 65.2543Z" fill="white" stroke="white"/>
<path d="M29.2484 27.7964C29.2484 27.7964 29.2484 27.7964 29.2484 27.7965L29.2382 27.7961C29.2033 28.6477 29.0336 29.4903 28.7392 30.279C28.7465 30.2845 28.7539 30.2899 28.7612 30.2954L29.2484 27.7964ZM29.2484 27.7964C29.2488 27.7846 29.2492 27.7729 29.2495 27.7611C29.2495 27.7611 29.2495 27.761 29.2495 27.761C29.2713 27.0313 29.2061 26.218 28.8818 25.4931M20.7533 53.787V53.8001L20.754 53.8132C20.7575 53.8793 20.7586 53.9078 20.7597 53.935C20.7606 53.9569 20.7614 53.9778 20.7634 54.0167C20.7645 54.0387 20.7664 54.0734 20.7705 54.1059L20.7706 54.1062C20.7721 54.1185 20.7773 54.1592 20.7921 54.2063C20.7985 54.2267 20.8177 54.2854 20.8625 54.3486C20.9046 54.408 21.0363 54.5607 21.2722 54.5607C21.4769 54.5607 21.603 54.443 21.6503 54.3889C21.6992 54.333 21.724 54.2793 21.7333 54.2582C21.7535 54.2123 21.7632 54.1718 21.7661 54.1593L21.7662 54.1591C21.7739 54.1266 21.7797 54.0909 21.7837 54.0661C21.7877 54.0405 21.7932 54.0037 21.7999 53.9591C21.8066 53.9147 21.8144 53.8626 21.823 53.8063L21.8271 53.7798L21.8283 53.753C21.834 53.6277 21.843 53.4844 21.8537 53.3157C21.8604 53.2099 21.8677 53.0942 21.8752 52.9667L21.8753 52.9633C21.9132 52.2344 21.9605 51.2228 22.0172 49.929H22.0172L22.0173 49.9248C22.1117 47.2539 22.2533 43.4502 22.4326 38.7681L22.4327 38.7669C22.4762 37.5568 22.5198 36.287 22.5646 34.9642C22.5725 34.9653 22.5803 34.9664 22.5881 34.9675C24.4889 35.2596 26.4517 34.3907 27.6971 32.9639C28.0014 32.6275 28.2735 32.2631 28.5123 31.8771C28.9902 32.1713 29.4976 32.4208 30.0348 32.612L30.0363 32.6125C30.2666 32.6936 30.5022 32.7637 30.7418 32.8206C30.5685 34.769 30.4429 36.6123 30.3257 38.3325C30.3165 38.467 30.3074 38.6008 30.2983 38.7338L30.2982 38.7358C29.9958 43.4511 29.8163 47.2685 29.7029 49.9045L29.7028 49.9077C29.6556 51.201 29.6179 52.22 29.5896 52.9462H29.5895L29.5894 52.9514C29.5874 53.0212 29.5854 53.0883 29.5834 53.153C29.5764 53.3874 29.5703 53.5884 29.5703 53.7586V53.7657C29.5703 53.8492 29.5703 53.923 29.5717 53.9756C29.5723 54.0002 29.5735 54.0364 29.5775 54.0715C29.579 54.0846 29.5838 54.1266 29.5988 54.1753C29.6053 54.1964 29.6245 54.2556 29.6695 54.3195C29.7119 54.3796 29.8438 54.5324 30.0798 54.5324C30.2827 54.5324 30.4082 54.4165 30.4552 54.3636C30.5045 54.3082 30.5298 54.2548 30.5396 54.2329C30.561 54.1852 30.5708 54.1434 30.574 54.1296C30.5822 54.0943 30.5874 54.0581 30.5906 54.0344C30.5977 53.9818 30.6056 53.9072 30.6148 53.8204L30.6148 53.8204L30.6152 53.8155C30.6252 53.7114 30.6357 53.5815 30.6475 53.437C30.6578 53.3097 30.6691 53.171 30.6817 53.0285L30.6817 53.0285L30.6821 53.0234C30.7318 52.3848 30.7888 51.5222 30.859 50.4592C30.8691 50.3061 30.8795 50.1487 30.8902 49.9873C30.9552 49.0217 31.0315 47.9049 31.1172 46.6504C31.2676 44.4496 31.4469 41.8251 31.6453 38.8496C31.7774 37.0211 31.9265 35.0593 32.1281 32.9888C32.3735 32.989 32.6205 32.9728 32.8677 32.9382L32.8677 32.9382L32.8737 32.9373C33.8195 32.7934 34.7191 32.423 35.4684 31.8515C36.2237 31.2919 36.8508 30.5143 37.1527 29.5898C37.4637 28.6753 37.4275 27.6102 36.9635 26.7314C36.5431 25.8756 35.6063 25.0805 34.4789 25.1276C33.3935 25.1637 32.5591 25.8369 32.0522 26.5444L32.0522 26.5444L32.049 26.5489C31.522 27.3018 31.3181 28.1363 31.1917 28.8753L31.1915 28.8764C31.0999 29.4193 31.0383 29.953 30.9794 30.4633C30.9579 30.6499 30.9367 30.8334 30.9145 31.013L30.9144 31.013L30.9134 31.0233C30.9017 31.1378 30.8901 31.2519 30.8788 31.3658C30.7622 31.333 30.6463 31.2959 30.5315 31.2548L30.5297 31.2542C30.0542 31.086 29.5975 30.8546 29.1621 30.573C29.5083 29.6872 29.7041 28.7368 29.7392 27.7791L29.7393 27.7791L29.7395 27.7714C29.759 26.8548 29.6759 25.7747 29.0912 24.811L29.0907 24.8102C28.506 23.8503 27.2266 23.0828 25.9126 23.5409L25.9023 23.5445L25.8922 23.5485C24.5895 24.0672 24.1443 25.4862 24.3083 26.5794L24.3083 26.5794L24.3088 26.5827C24.4812 27.682 25.1021 28.5622 25.6453 29.2579L25.6453 29.2579L25.6482 29.2616C26.1458 29.8868 26.7044 30.4836 27.3249 31.0106C27.1139 31.372 26.8695 31.7089 26.594 32.0128L26.594 32.0128L26.5886 32.0189C25.606 33.1394 24.153 33.7515 22.7885 33.553L22.7885 33.553L22.7804 33.5519C22.7245 33.5447 22.6687 33.5365 22.6132 33.5273C22.6405 32.7201 22.6683 31.895 22.697 31.0535L22.697 31.0535L22.6971 31.05C22.7166 30.3292 22.6805 29.5059 22.3721 28.6972C22.2183 28.2909 21.9522 27.8354 21.4962 27.514C21.0536 27.1954 20.4711 27.0429 19.8997 27.1572L19.8997 27.1571L19.8927 27.1586C18.7511 27.4041 18.1524 28.4149 17.9046 29.2408L17.9043 29.2418C17.6219 30.1907 17.8323 31.2001 18.2161 31.9988L18.2167 32.0001C18.8143 33.2342 19.9208 34.1229 21.1777 34.6055C21.139 36.0605 21.102 37.4504 21.065 38.7727L21.065 38.7747C21.008 41.1328 20.9583 43.2657 20.9145 45.1433C20.8711 47.003 20.8335 48.6123 20.8007 49.9419H20.8006L20.8006 49.947C20.7914 50.5755 20.7822 51.1411 20.7741 51.64C20.7655 52.1645 20.7582 52.6152 20.7534 52.9875L20.7533 52.9875V52.994V52.9959V52.9979V52.9998V53.0017V53.0036V53.0056V53.0075V53.0094V53.0113V53.0133V53.0152V53.0171V53.019V53.0209V53.0228V53.0247V53.0266V53.0286V53.0305V53.0324V53.0343V53.0362V53.0381V53.04V53.0418V53.0437V53.0456V53.0475V53.0494V53.0513V53.0532V53.0551V53.0569V53.0588V53.0607V53.0626V53.0644V53.0663V53.0682V53.0701V53.0719V53.0738V53.0757V53.0775V53.0794V53.0812V53.0831V53.0849V53.0868V53.0886V53.0905V53.0923V53.0942V53.096V53.0979V53.0997V53.1016V53.1034V53.1052V53.1071V53.1089V53.1107V53.1126V53.1144V53.1162V53.1181V53.1199V53.1217V53.1235V53.1253V53.1272V53.129V53.1308V53.1326V53.1344V53.1362V53.138V53.1398V53.1416V53.1434V53.1452V53.147V53.1488V53.1506V53.1524V53.1542V53.156V53.1578V53.1596V53.1614V53.1632V53.1649V53.1667V53.1685V53.1703V53.1721V53.1738V53.1756V53.1774V53.1791V53.1809V53.1827V53.1845V53.1862V53.188V53.1897V53.1915V53.1933V53.195V53.1968V53.1985V53.2003V53.202V53.2038V53.2055V53.2073V53.209V53.2107V53.2125V53.2142V53.216V53.2177V53.2194V53.2212V53.2229V53.2246V53.2263V53.2281V53.2298V53.2315V53.2332V53.235V53.2367V53.2384V53.2401V53.2418V53.2435V53.2452V53.247V53.2487V53.2504V53.2521V53.2538V53.2555V53.2572V53.2589V53.2606V53.2623V53.264V53.2656V53.2673V53.269V53.2707V53.2724V53.2741V53.2758V53.2774V53.2791V53.2808V53.2825V53.2842V53.2858V53.2875V53.2892V53.2908V53.2925V53.2942V53.2958V53.2975V53.2992V53.3008V53.3025V53.3041V53.3058V53.3074V53.3091V53.3107V53.3124V53.314V53.3157V53.3173V53.319V53.3206V53.3223V53.3239V53.3255V53.3272V53.3288V53.3304V53.3321V53.3337V53.3353V53.337V53.3386V53.3402V53.3418V53.3434V53.3451V53.3467V53.3483V53.3499V53.3515V53.3531V53.3547V53.3564V53.358V53.3596V53.3612V53.3628V53.3644V53.366V53.3676V53.3692V53.3708V53.3724V53.374V53.3755V53.3771V53.3787V53.3803V53.3819V53.3835V53.3851V53.3866V53.3882V53.3898V53.3914V53.393V53.3945V53.3961V53.3977V53.3992V53.4008V53.4024V53.4039V53.4055V53.4071V53.4086V53.4102V53.4118V53.4133V53.4149V53.4164V53.418V53.4195V53.4211V53.4226V53.4242V53.4257V53.4273V53.4288V53.4303V53.4319V53.4334V53.435V53.4365V53.438V53.4396V53.4411V53.4426V53.4442V53.4457V53.4472V53.4487V53.4503V53.4518V53.4533V53.4548V53.4563V53.4578V53.4594V53.4609V53.4624V53.4639V53.4654V53.4669V53.4684V53.4699V53.4714V53.4729V53.4744V53.4759V53.4774V53.4789V53.4804V53.4819V53.4834V53.4849V53.4864V53.4879V53.4894V53.4909V53.4923V53.4938V53.4953V53.4968V53.4983V53.4997V53.5012V53.5027V53.5042V53.5056V53.5071V53.5086V53.51V53.5115V53.513V53.5144V53.5159V53.5174V53.5188V53.5203V53.5217V53.5232V53.5247V53.5261V53.5276V53.529V53.5305V53.5319V53.5334V53.5348V53.5362V53.5377V53.5391V53.5406V53.542V53.5434V53.5449V53.5463V53.5478V53.5492V53.5506V53.552V53.5535V53.5549V53.5563V53.5578V53.5592V53.5606V53.562V53.5634V53.5649V53.5663V53.5677V53.5691V53.5705V53.5719V53.5733V53.5747V53.5762V53.5776V53.579V53.5804V53.5818V53.5832V53.5846V53.586V53.5874V53.5888V53.5902V53.5916V53.593V53.5943V53.5957V53.5971V53.5985V53.5999V53.6013V53.6027V53.604V53.6054V53.6068V53.6082V53.6096V53.6109V53.6123V53.6137V53.6151V53.6164V53.6178V53.6192V53.6205V53.6219V53.6233V53.6246V53.626V53.6274V53.6287V53.6301V53.6314V53.6328V53.6341V53.6355V53.6369V53.6382V53.6396V53.6409V53.6423V53.6436V53.6449V53.6463V53.6476V53.649V53.6503V53.6516V53.653V53.6543V53.6557V53.657V53.6583V53.6597V53.661V53.6623V53.6636V53.665V53.6663V53.6676V53.6689V53.6703V53.6716V53.6729V53.6742V53.6755V53.6769V53.6782V53.6795V53.6808V53.6821V53.6834V53.6847V53.686V53.6874V53.6887V53.69V53.6913V53.6926V53.6939V53.6952V53.6965V53.6978V53.6991V53.7004V53.7016V53.7029V53.7042V53.7055V53.7068V53.7081V53.7094V53.7107V53.712V53.7132V53.7145V53.7158V53.7171V53.7184V53.7196V53.7209V53.7222V53.7235V53.7247V53.726V53.7273V53.7286V53.7298V53.7311V53.7324V53.7336V53.7349V53.7361V53.7374V53.7387V53.7399V53.7412V53.7424V53.7437V53.745V53.7462V53.7475V53.7487V53.75V53.7512V53.7525V53.7537V53.755V53.7562V53.7574V53.7587V53.7599V53.7612V53.7624V53.7636V53.7649V53.7661V53.7674V53.7686V53.7698V53.771V53.7723V53.7735V53.7747V53.776V53.7772V53.7784V53.7796V53.7809V53.7821V53.7833V53.7845V53.7857V53.787Z" fill="white" stroke="white"/>
<path d="M26.0019 62.3108C27.8376 62.3108 29.5008 62.2825 30.7076 62.2373C31.3097 62.2148 31.8044 62.1879 32.1518 62.1576C32.3232 62.1427 32.4713 62.1259 32.5821 62.1061C32.6338 62.0969 32.7004 62.0831 32.7631 62.0607C32.7913 62.0506 32.85 62.028 32.911 61.9844C32.9546 61.9532 33.1288 61.8189 33.1288 61.5654C33.1288 61.3119 32.9546 61.1775 32.911 61.1463C32.85 61.1027 32.7913 61.0802 32.7631 61.0701C32.7004 61.0477 32.6338 61.0339 32.5821 61.0247C32.4713 61.0049 32.3232 60.9881 32.1518 60.9732C31.8044 60.9429 31.3097 60.916 30.7076 60.8935C29.5008 60.8483 27.8376 60.8199 26.0019 60.8199C24.1662 60.8199 22.503 60.8483 21.2962 60.8935C20.694 60.916 20.1994 60.9429 19.8519 60.9732C19.6805 60.9881 19.5325 61.0049 19.4216 61.0247C19.3699 61.0339 19.3034 61.0477 19.2407 61.0701C19.2125 61.0802 19.1537 61.1027 19.0928 61.1463C19.0491 61.1775 18.875 61.3119 18.875 61.5654C18.875 61.8189 19.0491 61.9532 19.0928 61.9844C19.1537 62.028 19.2125 62.0506 19.2407 62.0607C19.3034 62.0831 19.3699 62.0969 19.4216 62.1061C19.5325 62.1259 19.6805 62.1427 19.8519 62.1576C20.1994 62.1879 20.694 62.2148 21.2962 62.2373C22.503 62.2825 24.1662 62.3108 26.0019 62.3108Z" fill="white" stroke="white"/>
</svg>
