<svg width="66" height="66" viewBox="0 0 66 66" fill="none" xmlns="http://www.w3.org/2000/svg">
<path d="M47.6672 19.4305L47.6671 19.4305L47.669 19.4379C48.1227 21.2319 48.3076 22.6521 48.3949 23.6202C48.4301 24.011 48.4493 24.3268 48.4642 24.5713C48.4678 24.6309 48.4712 24.6862 48.4745 24.7374C48.4824 24.8614 48.4908 24.9781 48.5034 25.0653C48.5048 25.0751 48.5065 25.0869 48.5088 25.1002C48.5079 25.1067 48.5071 25.1126 48.5064 25.1179C48.4956 25.2017 48.4879 25.3156 48.4803 25.4388C48.478 25.4761 48.4756 25.5158 48.4731 25.5579C48.4582 25.8061 48.4383 26.1365 48.4002 26.5506C48.3113 27.5168 48.1228 28.9375 47.6689 30.7395L47.6688 30.7394L47.6672 30.7465C47.2474 32.5205 46.4025 34.6258 45.0687 36.8674C43.729 39.0952 41.8005 41.4071 39.1874 43.3775C36.5684 45.3243 33.2857 46.9771 29.5056 47.6463C25.728 48.2778 21.4752 48.164 17.4541 46.6237L17.4471 46.621L17.44 46.6186C15.4098 45.9101 13.456 44.8453 11.6483 43.4896L11.6406 43.4838L11.6326 43.4783C10.9035 42.9743 10.2469 42.3713 9.56084 41.7411C9.39167 41.5857 9.22071 41.4286 9.04642 41.271C8.91501 41.1257 8.78378 40.9821 8.65331 40.8392C7.99665 40.1205 7.35891 39.4225 6.81144 38.6292L6.80568 38.6209L6.79958 38.6128C3.98889 34.8743 2.39888 30.0468 2.35693 25.0745C2.39888 20.1025 3.98871 15.2889 6.79958 11.5502L6.80568 11.5421L6.81144 11.5338C7.35892 10.7405 7.99667 10.0424 8.65334 9.32367C8.78429 9.18034 8.91599 9.03619 9.04788 8.8903C9.16046 8.78674 9.27184 8.68369 9.38239 8.5814C10.1305 7.88921 10.8411 7.23176 11.6326 6.68471L11.6396 6.6799L11.6464 6.67485C13.4552 5.33194 15.4097 4.26693 17.44 3.55837L17.4468 3.55599L17.4535 3.55341C21.4903 2.01236 25.7296 1.88555 29.5046 2.53052C33.2852 3.19955 36.5682 4.85249 39.1874 6.79948C41.8006 8.76994 43.7292 11.0818 45.0688 13.3097C46.4026 15.5513 47.2474 17.6565 47.6672 19.4305ZM48.9049 19.0828C48.4994 17.1681 47.6403 14.9172 46.2808 12.5522L46.279 12.5491C44.8943 10.1795 42.8821 7.68204 40.1131 5.55535L40.1115 5.55413C37.3627 3.46046 33.8666 1.66052 29.8061 0.917056L29.8061 0.917048L29.8034 0.916558C25.7939 0.205653 21.2437 0.315975 16.8959 1.94495C14.7099 2.70293 12.6009 3.84368 10.6663 5.27931C9.82105 5.86002 9.05423 6.5628 8.31459 7.24068C8.16927 7.37387 8.02499 7.50609 7.88138 7.63624L7.86316 7.65276L7.84665 7.67098C7.71856 7.81231 7.58813 7.95462 7.45641 8.09834C6.77275 8.84426 6.0543 9.62814 5.44852 10.5108C2.42178 14.5411 0.700726 19.7306 0.658006 25.0565H0.657941L0.658006 25.0645C0.700718 30.3893 2.40722 35.5794 5.44886 39.6108C6.05457 40.4932 6.77288 41.2769 7.4564 42.0227C7.58813 42.1664 7.71856 42.3087 7.84665 42.45L7.86316 42.4683L7.88138 42.4848C8.02501 42.6149 8.16929 42.7472 8.31462 42.8804C9.05426 43.5582 9.82105 44.261 10.6663 44.8417C12.6008 46.2772 14.7096 47.4179 16.8953 48.1759C21.2446 49.8195 25.7953 49.9151 29.8034 49.2045L29.8061 49.204C33.8666 48.4605 37.3627 46.6606 40.1115 44.5669L40.1128 44.5659C42.8674 42.4536 44.8942 39.956 46.2797 37.5708L46.2814 37.5677C47.6405 35.1893 48.5 32.9516 48.9054 31.0358C49.1404 30.1824 49.2457 29.3879 49.3347 28.7164C49.3435 28.6497 49.3522 28.5842 49.3608 28.52C49.491 27.7784 49.5201 27.1389 49.5204 26.6198C49.5229 26.5377 49.5254 26.4577 49.5279 26.38C49.5388 26.0306 49.5484 25.7268 49.5484 25.4799V25.4713C49.5484 25.3459 49.5484 25.2426 49.5464 25.1711C49.5459 25.1512 49.5451 25.1275 49.5435 25.1029C49.5475 25.0692 49.5498 25.0352 49.5513 25.0039C49.5558 24.9097 49.5552 24.7813 49.5478 24.6184L49.5478 24.6174C49.5402 24.4575 49.5371 24.283 49.5334 24.0782C49.5304 23.9094 49.527 23.72 49.5204 23.5013C49.5201 22.9948 49.4908 22.3557 49.3608 21.6012C49.3471 21.5005 49.3334 21.3957 49.3192 21.2872C49.2368 20.6556 49.138 19.8984 48.9049 19.0828Z" fill="white" stroke="white"/>
<path d="M42.0055 42.2031C42.0056 42.2032 42.0061 42.204 42.007 42.2056C42.006 42.2039 42.0055 42.2031 42.0055 42.2031ZM41.3646 42.8441C41.3646 42.8441 41.3654 42.8445 41.3671 42.8455C41.3655 42.8446 41.3647 42.8441 41.3646 42.8441ZM63.7224 65.1881C63.7224 65.1882 63.7218 65.1873 63.7208 65.1854C63.7219 65.1872 63.7224 65.1881 63.7224 65.1881ZM64.363 64.5467C64.3632 64.5468 64.3625 64.5464 64.3606 64.5452C64.3621 64.546 64.3629 64.5465 64.363 64.5467ZM53.469 53.0832C50.3499 49.9641 47.492 47.1656 45.3952 45.1633C44.3473 44.1627 43.4868 43.3583 42.8778 42.8115C42.5745 42.5391 42.3277 42.3254 42.149 42.1822C42.0619 42.1124 41.979 42.0497 41.9084 42.0047C41.8766 41.9843 41.8244 41.9527 41.7633 41.9291C41.7348 41.9181 41.6743 41.8967 41.5962 41.8919C41.5221 41.8873 41.3477 41.8942 41.2017 42.0402C41.0557 42.1862 41.0488 42.3606 41.0533 42.4348C41.0582 42.5128 41.0795 42.5734 41.0906 42.6019C41.1142 42.6629 41.1458 42.7151 41.1662 42.747C41.2112 42.8176 41.2739 42.9005 41.3438 42.9876C41.487 43.1662 41.7008 43.413 41.9733 43.7163C42.5204 44.3251 43.3253 45.1852 44.3268 46.2323C46.3309 48.3273 49.1328 51.1816 52.2588 54.2937C55.3778 57.4197 58.2356 60.2215 60.3324 62.2255C61.3803 63.2271 62.2408 64.0319 62.8498 64.579C63.1532 64.8515 63.4 65.0653 63.5786 65.2085C63.6658 65.2783 63.7487 65.3411 63.8193 65.3861C63.8511 65.4064 63.9033 65.4381 63.9643 65.4617C63.9929 65.4727 64.0534 65.4941 64.1314 65.4989C64.2056 65.5035 64.38 65.4966 64.526 65.3506C64.6719 65.2047 64.679 65.0304 64.6744 64.9559C64.6695 64.8778 64.6481 64.8172 64.637 64.7886C64.6133 64.7276 64.5816 64.6754 64.5613 64.6435C64.5162 64.573 64.4535 64.4903 64.3836 64.4033C64.2404 64.2251 64.0266 63.9788 63.7541 63.676C63.2071 63.0681 62.4023 62.2089 61.4008 61.162C59.3969 59.067 56.5949 56.2092 53.469 53.0832Z" fill="white" stroke="white"/>
</svg>
