<svg width="101" height="100" viewBox="0 0 101 100" fill="none" xmlns="http://www.w3.org/2000/svg">
<rect x="0.462646" width="100" height="100" fill="#194DF5"/>
<path d="M13.3706 50C13.3706 42.5832 15.5699 35.333 19.6905 29.1661C23.811 22.9993 29.6677 18.1928 36.52 15.3545C43.3722 12.5162 50.9122 11.7736 58.1865 13.2206C65.4608 14.6675 72.1426 18.239 77.3871 23.4835C82.6316 28.728 86.2031 35.4098 87.6501 42.6841C89.097 49.9584 88.3544 57.4984 85.5161 64.3506C82.6778 71.2029 77.8713 77.0596 71.7045 81.1801C65.5376 85.3007 58.2874 87.5 50.8706 87.5C40.925 87.5 31.3867 83.5491 24.3541 76.5165C17.3215 69.4839 13.3706 59.9456 13.3706 50V50Z" stroke="white" stroke-width="1.5" stroke-linecap="round" stroke-linejoin="round"/>
<path d="M50.8706 66.6667V33.3334" stroke="white" stroke-width="1.5" stroke-linecap="round" stroke-linejoin="round"/>
<path d="M63.3706 54.1666L50.8706 66.6666L38.3706 54.1666" stroke="white" stroke-width="1.5" stroke-linecap="round" stroke-linejoin="round"/>
</svg>
