<svg width="32" height="32" viewBox="0 0 32 32" fill="none" xmlns="http://www.w3.org/2000/svg">
<path d="M28 12H4" stroke="white" stroke-miterlimit="10" stroke-linecap="round" stroke-linejoin="round"/>
<path d="M10.667 3.84009V6.82729" stroke="white" stroke-miterlimit="10" stroke-linecap="round" stroke-linejoin="round"/>
<path d="M21.333 3.84009V6.82729" stroke="white" stroke-miterlimit="10" stroke-linecap="round" stroke-linejoin="round"/>
<path d="M24 28.0002H8C6.93913 28.0002 5.92172 27.5788 5.17157 26.8286C4.42143 26.0785 4 25.0611 4 24.0002V9.33301C4 8.27214 4.42143 7.25473 5.17157 6.50458C5.92172 5.75444 6.93913 5.33301 8 5.33301L24 5.33301C25.0609 5.33301 26.0783 5.75444 26.8284 6.50458C27.5786 7.25473 28 8.27214 28 9.33301V24.0002C28 25.0611 27.5786 26.0785 26.8284 26.8286C26.0783 27.5788 25.0609 28.0002 24 28.0002V28.0002Z" stroke="white" stroke-miterlimit="10" stroke-linecap="round" stroke-linejoin="round"/>
</svg>
