<svg width="220" height="229" viewBox="0 0 220 229" fill="none" xmlns="http://www.w3.org/2000/svg">
<path d="M18.7032 179.209C18.7688 179.242 18.8453 179.264 18.9109 179.296C19.4903 179.537 20.1682 179.395 20.6055 178.947L57.24 141.995C57.6883 141.547 57.8195 140.88 57.5789 140.29C57.5461 140.224 57.5243 140.147 57.4915 140.082L18.7032 179.209Z" fill="#0F0F0F" stroke="white"/>
<path d="M14.9749 177.328C15.5871 177.689 16.3524 177.591 16.8443 177.099L55.3593 138.256C55.8512 137.753 55.9387 136.988 55.578 136.386L55.567 136.375L14.9749 177.328Z" fill="#0F0F0F" stroke="white"/>
<path d="M11.6623 175.033C11.9684 175.273 12.2745 175.525 12.5915 175.755L53.9818 134.014C53.7412 133.697 53.5007 133.391 53.2493 133.085L11.6623 175.033Z" fill="#0F0F0F" stroke="white"/>
<path d="M27.7113 181.395C27.9956 181.417 28.2907 181.439 28.5749 181.45C29.0122 181.472 29.4386 181.297 29.7557 180.991L59.3716 151.123C59.6777 150.806 59.8527 150.38 59.8199 149.943C59.798 149.648 59.7761 149.363 59.7543 149.079L27.7113 181.395Z" fill="#0F0F0F" stroke="white"/>
<path d="M40.6771 179.592C41.5954 179.242 42.5028 178.848 43.3774 178.411C43.5305 178.335 43.6835 178.225 43.8038 178.105L56.6057 165.194C56.7259 165.073 56.8352 164.92 56.9118 164.767C57.3381 163.893 57.7317 162.985 58.0706 162.056L40.6771 179.592Z" fill="#0F0F0F" stroke="white"/>
<path d="M22.9013 180.608C23.0652 180.652 23.2292 180.685 23.3932 180.728C23.918 180.849 24.4755 180.685 24.8582 180.302L58.6394 146.236C59.022 145.854 59.186 145.296 59.0548 144.771C59.0111 144.607 58.9783 144.444 58.9346 144.28L22.9013 180.608Z" fill="#0F0F0F" stroke="white"/>
<path d="M33.3523 181.341C33.8333 181.286 34.3034 181.221 34.7735 181.144C35.1014 181.089 35.4076 180.936 35.6371 180.696L59.1309 157.005C59.3605 156.765 59.5245 156.47 59.5682 156.142C59.6447 155.672 59.6994 155.201 59.7431 154.72L33.3523 181.341Z" fill="#0F0F0F" stroke="white"/>
<path d="M6.17464 169.293C6.40422 169.61 6.64472 169.928 6.88524 170.234L48.4176 128.351C48.1115 128.111 47.7944 127.87 47.4774 127.641L6.17464 169.293Z" fill="#0F0F0F" stroke="white"/>
<path d="M1.30932 146.018C1.07974 146.248 0.926688 146.543 0.872026 146.86C0.795499 147.341 0.718969 147.833 0.664307 148.325L26.4539 122.316C25.962 122.382 25.47 122.448 24.989 122.535C24.6719 122.59 24.3768 122.754 24.1472 122.983L1.30932 146.018Z" fill="#0F0F0F" stroke="white"/>
<path d="M4.22834 137.436C4.11901 137.545 4.02061 137.677 3.94408 137.819C3.44119 138.77 2.98203 139.754 2.57753 140.759L18.8997 124.306C17.8939 124.722 16.9209 125.181 15.9698 125.695C15.8276 125.771 15.7074 125.869 15.5872 125.979L4.22834 137.436Z" fill="#0F0F0F" stroke="white"/>
<path d="M0.959652 152.009C0.653544 152.315 0.489543 152.742 0.500475 153.168C0.511408 153.474 0.533293 153.77 0.555157 154.076L32.2045 122.153C31.9094 122.131 31.6033 122.12 31.2972 122.109C30.8599 122.098 30.4444 122.262 30.1383 122.568L0.959652 152.009Z" fill="#0F0F0F" stroke="white"/>
<path d="M2.97109 161.247C2.53379 161.684 2.39166 162.351 2.62124 162.92C2.65404 162.996 2.68684 163.084 2.71963 163.16L41.3112 124.241C41.2346 124.208 41.1472 124.175 41.0706 124.142C40.4912 123.913 39.8353 124.066 39.398 124.503L2.97109 161.247Z" fill="#0F0F0F" stroke="white"/>
<path d="M4.81834 165.03C4.32638 165.521 4.2389 166.287 4.58874 166.888L4.59968 166.91L45.0825 126.088C44.4703 125.727 43.6832 125.837 43.1912 126.34L4.81834 165.03Z" fill="#0F0F0F" stroke="white"/>
<path d="M50.5489 130.177L8.73235 172.354C9.00566 172.638 9.27898 172.912 9.55229 173.185L51.3798 130.997C51.1174 130.712 50.8332 130.45 50.5489 130.177Z" fill="#0F0F0F" stroke="white"/>
<path d="M1.63727 156.962C1.26557 157.344 1.09063 157.891 1.21089 158.405C1.25462 158.58 1.28744 158.754 1.33117 158.918L37.0693 122.874C36.8944 122.83 36.7195 122.798 36.5445 122.754C36.0198 122.645 35.4732 122.809 35.1014 123.191L1.63727 156.962Z" fill="#0F0F0F" stroke="white"/>
<path d="M188.604 154.273C193.355 154.273 197.207 150.421 197.207 145.669C197.207 140.917 193.355 137.065 188.604 137.065C183.852 137.065 180 140.917 180 145.669C180 150.421 183.852 154.273 188.604 154.273Z" fill="#0F0F0F" stroke="white"/>
<path d="M160.737 8.37939H36.5557V194.439H160.737V8.37939Z" fill="#0F0F0F" stroke="white"/>
<path d="M167.297 1H43.1152V187.059H167.297V1Z" fill="#0F0F0F" stroke="white"/>
<path d="M100.488 121.901H62.3775V125.181H100.488V121.901Z" fill="#0F0F0F" stroke="white"/>
<path d="M154.177 140.028H62.3771V143.307H154.177V140.028Z" fill="#0F0F0F" stroke="white"/>
<path d="M102.849 148.839H62.3771V152.119H102.849V148.839Z" fill="#0F0F0F" stroke="white"/>
<path d="M76.3164 128.45H62.3775V131.73H76.3164V128.45Z" fill="#0F0F0F" stroke="white"/>
<path d="M141.677 99.273H71.9875C69.8556 99.273 68.135 97.544 68.135 95.4205V21.9543C68.135 19.8224 69.864 18.1018 71.9875 18.1018H141.677C143.809 18.1018 145.529 19.8308 145.529 21.9543V95.4205C145.529 97.5524 143.8 99.273 141.677 99.273Z" fill="#0F0F0F" stroke="white"/>
<circle cx="107.265" cy="38.9851" r="15.8469" fill="#0F0F0F" stroke="white"/>
<path d="M138.519 99.2912H107.265H75.1314C76.4519 76.8415 89.7613 59.2339 107.265 59.2339C124.769 59.2339 138.519 81.0579 138.519 99.2912Z" fill="#0F0F0F" stroke="white"/>
<path d="M67.8991 161.641L69.222 165.73C69.2876 165.938 69.4844 166.08 69.703 166.08H73.9995C74.4914 166.08 74.6882 166.703 74.2946 166.998L70.8181 169.524C70.6432 169.655 70.5667 169.884 70.6322 170.092L71.9551 174.181C72.1081 174.651 71.5724 175.034 71.1789 174.749L67.7024 172.224C67.5274 172.093 67.2869 172.093 67.112 172.224L63.6355 174.749C63.2419 175.034 62.7062 174.651 62.8593 174.181L64.1821 170.092C64.2477 169.884 64.1712 169.655 63.9963 169.524L60.5197 166.998C60.1262 166.714 60.323 166.08 60.8149 166.08H65.1114C65.33 166.08 65.5268 165.938 65.5924 165.73L66.9152 161.641C67.0901 161.171 67.7461 161.171 67.8991 161.641Z" fill="#0F0F0F" stroke="white"/>
<path d="M87.6101 161.642L88.933 165.73C88.9986 165.938 89.1953 166.08 89.414 166.08H93.7104C94.2024 166.08 94.3992 166.703 94.0056 166.999L90.5291 169.524C90.3542 169.655 90.2776 169.885 90.3432 170.092L91.6661 174.181C91.8191 174.651 91.2834 175.034 90.8898 174.75L87.4133 172.224C87.2384 172.093 86.9979 172.093 86.823 172.224L83.3465 174.75C82.9529 175.034 82.4172 174.651 82.5703 174.181L83.8931 170.092C83.9587 169.885 83.8822 169.655 83.7073 169.524L80.2307 166.999C79.8371 166.714 80.0339 166.08 80.5259 166.08H84.8223C85.041 166.08 85.2378 165.938 85.3034 165.73L86.6262 161.642C86.8011 161.172 87.4571 161.172 87.6101 161.642Z" fill="#0F0F0F" stroke="white"/>
<path d="M107.322 161.642L108.645 165.73C108.71 165.938 108.907 166.08 109.126 166.08H113.422C113.914 166.08 114.111 166.703 113.717 166.999L110.241 169.524C110.066 169.655 109.989 169.885 110.055 170.092L111.378 174.181C111.531 174.651 110.995 175.034 110.602 174.75L107.125 172.224C106.95 172.093 106.71 172.093 106.535 172.224L103.058 174.75C102.665 175.034 102.129 174.651 102.282 174.181L103.605 170.092C103.67 169.885 103.594 169.655 103.419 169.524L99.9425 166.999C99.5489 166.714 99.7457 166.08 100.238 166.08H104.534C104.753 166.08 104.95 165.938 105.015 165.73L106.338 161.642C106.513 161.172 107.169 161.172 107.322 161.642Z" fill="#0F0F0F" stroke="white"/>
<path d="M127.033 161.642L128.356 165.73C128.421 165.938 128.618 166.08 128.837 166.08H133.133C133.625 166.08 133.822 166.703 133.428 166.999L129.952 169.524C129.777 169.655 129.7 169.885 129.766 170.092L131.089 174.181C131.242 174.651 130.706 175.034 130.313 174.75L126.836 172.224C126.661 172.093 126.421 172.093 126.246 172.224L122.769 174.75C122.376 175.034 121.84 174.651 121.993 174.181L123.316 170.092C123.382 169.885 123.305 169.655 123.13 169.524L119.654 166.999C119.26 166.714 119.457 166.08 119.949 166.08H124.245C124.464 166.08 124.661 165.938 124.726 165.73L126.049 161.642C126.224 161.172 126.88 161.172 127.033 161.642Z" fill="#0F0F0F" stroke="white"/>
<path d="M146.744 161.642L148.066 165.73C148.132 165.938 148.329 166.08 148.547 166.08H152.844C153.336 166.08 153.533 166.703 153.139 166.999L149.662 169.524C149.488 169.655 149.411 169.885 149.477 170.092L150.799 174.181C150.953 174.651 150.417 175.034 150.023 174.75L146.547 172.224C146.372 172.093 146.131 172.093 145.956 172.224L142.48 174.75C142.086 175.034 141.551 174.651 141.704 174.181L143.026 170.092C143.092 169.885 143.016 169.655 142.841 169.524L139.364 166.999C138.971 166.714 139.167 166.08 139.659 166.08H143.956C144.174 166.08 144.371 165.938 144.437 165.73L145.76 161.642C145.935 161.172 146.59 161.172 146.744 161.642Z" fill="#0F0F0F" stroke="white"/>
<path d="M137.638 158.917L142.167 151.833L132.726 145.797L128.197 152.88L137.638 158.917Z" fill="#0F0F0F" stroke="white"/>
<path opacity="0.53" d="M131.005 128.515C127.838 114.077 113.566 104.941 99.129 108.108C84.6918 111.276 75.5556 125.547 78.7228 139.984C81.89 154.421 96.1613 163.557 110.599 160.39C125.036 157.223 134.172 142.952 131.005 128.515Z" fill="#0F0F0F" stroke="white"/>
<path d="M123.803 99.3288C106.056 89.6699 83.7246 94.9094 72.1677 111.662" stroke="white" stroke-linecap="round" stroke-linejoin="round"/>
<path d="M87.069 162.028C102.414 171.847 122.817 167.353 132.625 152.011C142.444 136.666 137.949 116.263 122.607 106.455C107.263 96.6363 86.8596 101.131 77.0515 116.472C67.2329 131.817 71.7271 152.22 87.069 162.028ZM90.4254 156.789C77.97 148.831 74.3325 132.284 82.2908 119.829C90.2491 107.374 106.796 103.736 119.251 111.694C131.706 119.653 135.344 136.199 127.386 148.654C119.427 161.11 102.881 164.747 90.4254 156.789Z" fill="#0F0F0F" stroke="white"/>
<path d="M188.357 197.423L197.786 182.677L141.351 146.595L131.923 161.341L188.357 197.423Z" fill="#0F0F0F" stroke="white"/>
<path d="M191.891 199.684L201.319 184.938L197.782 182.676L188.354 197.423L191.891 199.684Z" fill="#0F0F0F" stroke="white"/>
<path d="M5.40935 88.6997L11.9688 95.2592" stroke="white" stroke-miterlimit="10" stroke-linecap="round" stroke-linejoin="round"/>
<path d="M11.554 89.5198L18.1134 96.0792" stroke="white" stroke-miterlimit="10" stroke-linecap="round" stroke-linejoin="round"/>
<path d="M17.293 89.5198L23.8525 96.0792" stroke="white" stroke-miterlimit="10" stroke-linecap="round" stroke-linejoin="round"/>
<path d="M36.7525 160.253V194.438H62.4437" stroke="white" stroke-miterlimit="10"/>
<path d="M71.1894 194.69H83.215" stroke="white" stroke-miterlimit="10"/>
<path d="M145.53 204.53C146.133 204.53 146.623 204.04 146.623 203.436C146.623 202.832 146.133 202.343 145.53 202.343C144.926 202.343 144.436 202.832 144.436 203.436C144.436 204.04 144.926 204.53 145.53 204.53Z" fill="#0F0F0F" stroke="white"/>
<path d="M154.636 204.53C155.24 204.53 155.73 204.04 155.73 203.437C155.73 202.833 155.24 202.343 154.636 202.343C154.033 202.343 153.543 202.833 153.543 203.437C153.543 204.04 154.033 204.53 154.636 204.53Z" fill="#0F0F0F" stroke="white"/>
<path d="M163.754 204.53C164.357 204.53 164.847 204.04 164.847 203.437C164.847 202.833 164.357 202.343 163.754 202.343C163.15 202.343 162.66 202.833 162.66 203.437C162.66 204.04 163.15 204.53 163.754 204.53Z" fill="#0F0F0F" stroke="white"/>
<path d="M172.861 204.53C173.464 204.53 173.954 204.04 173.954 203.437C173.954 202.833 173.464 202.343 172.861 202.343C172.257 202.343 171.767 202.833 171.767 203.437C171.767 204.04 172.257 204.53 172.861 204.53Z" fill="#0F0F0F" stroke="white"/>
<path d="M145.53 212.368C146.133 212.368 146.623 211.879 146.623 211.275C146.623 210.671 146.133 210.182 145.53 210.182C144.926 210.182 144.436 210.671 144.436 211.275C144.436 211.879 144.926 212.368 145.53 212.368Z" fill="#0F0F0F" stroke="white"/>
<path d="M154.636 212.368C155.24 212.368 155.73 211.879 155.73 211.275C155.73 210.671 155.24 210.182 154.636 210.182C154.033 210.182 153.543 210.671 153.543 211.275C153.543 211.879 154.033 212.368 154.636 212.368Z" fill="#0F0F0F" stroke="white"/>
<path d="M163.754 212.368C164.357 212.368 164.847 211.879 164.847 211.275C164.847 210.671 164.357 210.182 163.754 210.182C163.15 210.182 162.66 210.671 162.66 211.275C162.66 211.879 163.15 212.368 163.754 212.368Z" fill="#0F0F0F" stroke="white"/>
<path d="M172.861 212.368C173.464 212.368 173.954 211.879 173.954 211.275C173.954 210.671 173.464 210.182 172.861 210.182C172.257 210.182 171.767 210.671 171.767 211.275C171.767 211.879 172.257 212.368 172.861 212.368Z" fill="#0F0F0F" stroke="white"/>
<path d="M145.53 220.196C146.133 220.196 146.623 219.706 146.623 219.103C146.623 218.499 146.133 218.009 145.53 218.009C144.926 218.009 144.436 218.499 144.436 219.103C144.436 219.706 144.926 220.196 145.53 220.196Z" fill="#0F0F0F" stroke="white"/>
<path d="M154.636 220.196C155.24 220.196 155.73 219.706 155.73 219.103C155.73 218.499 155.24 218.009 154.636 218.009C154.033 218.009 153.543 218.499 153.543 219.103C153.543 219.706 154.033 220.196 154.636 220.196Z" fill="#0F0F0F" stroke="white"/>
<path d="M163.754 220.196C164.357 220.196 164.847 219.706 164.847 219.103C164.847 218.499 164.357 218.009 163.754 218.009C163.15 218.009 162.66 218.499 162.66 219.103C162.66 219.706 163.15 220.196 163.754 220.196Z" fill="#0F0F0F" stroke="white"/>
<path d="M172.861 220.196C173.464 220.196 173.954 219.706 173.954 219.103C173.954 218.499 173.464 218.009 172.861 218.009C172.257 218.009 171.767 218.499 171.767 219.103C171.767 219.706 172.257 220.196 172.861 220.196Z" fill="#0F0F0F" stroke="white"/>
<path d="M145.53 228.034C146.133 228.034 146.623 227.545 146.623 226.941C146.623 226.337 146.133 225.848 145.53 225.848C144.926 225.848 144.436 226.337 144.436 226.941C144.436 227.545 144.926 228.034 145.53 228.034Z" fill="#0F0F0F" stroke="white"/>
<path d="M154.636 228.034C155.24 228.034 155.73 227.545 155.73 226.941C155.73 226.337 155.24 225.848 154.636 225.848C154.033 225.848 153.543 226.337 153.543 226.941C153.543 227.545 154.033 228.034 154.636 228.034Z" fill="#0F0F0F" stroke="white"/>
<path d="M163.754 228.034C164.357 228.034 164.847 227.545 164.847 226.941C164.847 226.337 164.357 225.848 163.754 225.848C163.15 225.848 162.66 226.337 162.66 226.941C162.66 227.545 163.15 228.034 163.754 228.034Z" fill="#0F0F0F" stroke="white"/>
<path d="M172.861 228.034C173.464 228.034 173.954 227.545 173.954 226.941C173.954 226.337 173.464 225.848 172.861 225.848C172.257 225.848 171.767 226.337 171.767 226.941C171.767 227.545 172.257 228.034 172.861 228.034Z" fill="#0F0F0F" stroke="white"/>
<path d="M217.5 65.5579C214.144 65.3502 211.881 63.8743 210.394 62.3547C214.504 58.2004 217.041 52.5046 217.041 46.1966C217.041 33.515 206.764 23.2275 194.072 23.2275C181.39 23.2275 171.103 33.504 171.103 46.1966C171.103 58.8782 181.379 69.1656 194.072 69.1656C198.018 69.1656 201.735 68.1708 204.982 66.4107C212.001 68.466 217.5 65.5579 217.5 65.5579Z" fill="#0F0F0F" stroke="white"/>
<path d="M213.673 67.7442C210.317 67.5365 208.054 66.0606 206.567 64.541C210.678 60.3867 213.214 54.6909 213.214 48.3829C213.214 35.7013 202.938 25.4138 190.245 25.4138C177.564 25.4138 167.276 35.6903 167.276 48.3829C167.276 61.0645 177.553 71.3519 190.245 71.3519C194.192 71.3519 197.909 70.3571 201.156 68.5969C208.174 70.6522 213.673 67.7442 213.673 67.7442Z" stroke="white" stroke-miterlimit="10"/>
<path d="M190.934 56.7684L181.368 47.2025L185.183 43.3871L190.934 49.1266L203.878 36.1826L207.704 39.998L190.934 56.7684Z" fill="#0F0F0F" stroke="white"/>
</svg>
