<svg width="74" height="66" viewBox="0 0 74 66" fill="none" xmlns="http://www.w3.org/2000/svg">
<path d="M71.3485 65.1398L71.3494 65.1398C71.7984 65.1311 72.146 65.1181 72.3845 65.1023C72.5018 65.0946 72.603 65.0855 72.6799 65.0744C72.715 65.0693 72.765 65.0611 72.8145 65.0465C72.8355 65.0403 72.8874 65.0242 72.9441 64.9906L72.9453 64.9899C72.9695 64.9757 73.1945 64.844 73.1945 64.5541C73.1945 64.2584 72.9604 64.1273 72.9441 64.1176C72.8874 64.084 72.8355 64.068 72.8145 64.0618C72.765 64.0471 72.715 64.0389 72.6799 64.0338C72.603 64.0227 72.5018 64.0136 72.3845 64.0059C72.146 63.9901 71.7984 63.9771 71.3494 63.9685L71.3487 63.9684C70.8208 63.959 70.1909 63.9444 69.4593 63.9275C68.8603 63.9137 68.193 63.8982 67.4575 63.8827L67.4519 63.8827C66.6819 63.8751 65.8439 63.8666 64.9409 63.8576C61.7616 63.8256 57.7762 63.7855 53.1147 63.7455L53.1118 63.7454C47.8709 63.7307 41.7993 63.7128 35.1154 63.6931C26.2503 63.6669 16.308 63.6376 5.79775 63.6082H5.79636H5.78952H5.78269H5.77586H5.76903H5.7622H5.75537H5.74854H5.74171H5.73488H5.72805H5.72122H5.71439H5.70756H5.70074H5.69391H5.68708H5.68026H5.67343H5.66661H5.65978H5.65296H5.64614H5.63931H5.63249H5.62567H5.61885H5.61202H5.6052H5.59838H5.59156H5.58474H5.57793H5.57111H5.56429H5.55747H5.55065H5.54384H5.53702H5.53021H5.52339H5.51658H5.50976H5.50295H5.49614H5.48933H5.48251H5.4757H5.46889H5.46208H5.45527H5.44846H5.44165H5.43485H5.42804H5.42123H5.41443H5.40762H5.40081H5.39401H5.38721H5.3804H5.3736H5.3668H5.36H5.35319H5.34639H5.33959H5.33279H5.326H5.3192H5.3124H5.3056H5.29881H5.29201H5.28522H5.27842H5.27163H5.26484H5.25804H5.25125H5.24446H5.23767H5.23088H5.22409H5.2173H5.21051H5.20373H5.19694H5.19015H5.18337H5.17658H5.1698H5.16302H5.15623H5.14945H5.14267H5.13589H5.12911H5.12233H5.11555H5.10877H5.102H5.09522H5.08844H5.08167H5.07489H5.06812H5.06135H5.05458H5.0478H5.04103H5.03426H5.02749H5.02073H5.01396H5.00719H5.00042H4.99366H4.98689H4.98013H4.97337H4.9666H4.95984H4.95308H4.94632H4.93956H4.9328H4.92605H4.91929H4.91253H4.90578H4.89902H4.89227H4.88552H4.87876H4.87201H4.86526H4.85851H4.85176H4.84501H4.83827H4.83152H4.82477H4.81803H4.81129H4.80454H4.7978H4.79106H4.78432H4.77758H4.77084H4.7641H4.75736H4.75063H4.74389H4.73716H4.73042H4.72369H4.71696H4.71023H4.7035H4.69677H4.69004H4.68331H4.67658H4.66986H4.66313H4.65641H4.64969H4.64296H4.63624H4.62952H4.6228H4.61608H4.60937H4.60265H4.59593H4.58922H4.58251H4.57579H4.56908H4.56237H4.55566H4.54895H4.54224H4.53553H4.52883H4.52212H4.51542H4.50872H4.50201H4.49531H4.48861H4.48191H4.47521H4.46852H4.46182H4.45512H4.44843H4.44174H4.43504H4.42835H4.42166H4.41497H4.40828H4.4016H4.39491H4.38822H4.38154H4.37486H4.36817H4.36149H4.35481H4.34813H4.34146H4.33478H4.3281H4.32143H4.31475H4.30808H4.30141H4.29474H4.28807H4.2814H4.27473H4.26807H4.2614H4.25474H4.24808H4.24141H4.23475H4.22809H4.22143H4.21478H4.20812H4.20146H4.19481H4.18816H4.18151H4.17485H4.1682H4.16156H4.15491H4.14826H4.14162H4.13497H4.12833H4.12169H4.11505H4.10841H4.10177H4.09513H4.0885H4.08186H4.07523H4.0686H4.06196H4.05533H4.04871H4.04208H4.03545H4.02883H4.0222H4.01558H4.00896H4.00234H3.99572H3.9891H3.98248H3.97587H3.96925H3.96264H3.95603H3.94942H3.94281H3.9362H3.92959H3.92299H3.91638H3.90978H3.90318H3.89658H3.88998H3.88338H3.87678H3.87018H3.86359H3.857H3.85041H3.84381H3.83723H3.83064H3.82405H3.81746H3.81088H3.8043H3.79772H3.79114H3.78456H3.77798H3.7714H3.76483H3.75825H3.75168H3.74511H3.73854H3.73197H3.7254H3.71884H3.71227H3.70571H3.69915H3.69259H3.68603H3.67947H3.67292H3.66636H3.65981H3.65325H3.6467H3.64015H3.63361H3.62706H3.62051H3.61397H3.60743H3.60089H3.59435H3.58781H3.58127H3.57474H3.5682H3.56167H3.55514H3.54861H3.54208H3.53555H3.52903H3.5225H3.51598H3.50946H3.50294H3.49642H3.4899H3.48339H3.47687H3.47036H3.46385H3.45734H3.45083H3.44432H3.43782H3.43131H3.42481H3.41831H3.41181H3.40531H3.39882H3.39232H3.38583H3.37934H3.37285H3.36636H3.35987H3.35338H3.3469H3.34042H3.33393H3.32745H3.32098H3.3145H3.30802H3.30155H3.29508H3.28861H3.28214H3.27567H3.2692H3.26274H3.25628H3.24981H3.24335H3.2369H3.23044H3.22398H3.21753H3.21108H3.20463H3.19818H3.19173H3.18529H3.17884H3.1724H3.16596H3.15952H3.15308H3.14665H3.14021H3.13378H3.12735H3.12092H3.11449H3.10806H3.10164H3.09521H3.08879H3.08237H3.07595H3.06954H3.06312H3.05671H3.0503H3.04389H3.03748H3.03107H3.02467H3.01826H3.01186H3.00546H2.99906H2.99267H2.98627H2.97988H2.97349H2.9671H2.96071H2.95432H2.94794H2.94156H2.93517H2.92879H2.92242H2.91667C2.89552 54.9593 2.97966 46.8621 3.0659 39.501C3.07515 38.7117 3.08442 37.9309 3.09359 37.1586C3.17155 30.5926 3.24208 24.6527 3.22673 19.4851L3.22671 19.4821C3.18592 14.996 3.14512 11.1672 3.11288 8.14114C3.10444 7.3495 3.09659 6.61281 3.08948 5.93368L3.08951 5.93368L3.08938 5.92768C3.07448 5.26484 3.05964 4.66192 3.0462 4.11618C3.0286 3.40133 3.01342 2.78458 3.0037 2.25978L3.00383 2.25977L3.00335 2.24822C3.002 2.21585 3.00068 2.18401 2.99937 2.15272C2.98424 1.78897 2.97217 1.49865 2.96 1.29587C2.95349 1.18759 2.94628 1.0918 2.93704 1.01929C2.93287 0.986612 2.92573 0.936966 2.91202 0.887402C2.90625 0.866562 2.8907 0.812645 2.85635 0.753645L2.85598 0.753005C2.83998 0.725486 2.70889 0.5 2.41801 0.5C2.13391 0.5 2.00225 0.715899 1.98363 0.746767C1.94757 0.806547 1.9312 0.86142 1.92511 0.882724C1.91074 0.93305 1.90339 0.983127 1.89918 1.01536C1.88979 1.08719 1.88256 1.18191 1.87606 1.28917C1.86317 1.50189 1.85042 1.81431 1.83403 2.21604L1.8327 2.24864L1.83257 2.24864L1.83237 2.25978C1.82265 2.78458 1.80746 3.40132 1.78986 4.11617C1.77642 4.66191 1.76158 5.26484 1.74668 5.92768L1.74665 5.92768L1.74659 5.93371C1.73885 6.67662 1.73023 7.48595 1.72094 8.35893C1.68906 11.3545 1.6492 15.0996 1.60936 19.4821H1.60935L1.60934 19.4851C1.59564 24.0959 1.5792 29.3939 1.56112 35.2215C1.53395 43.9804 1.50306 53.9359 1.47217 64.5527V64.5541V65V65.5H1.97217H2.41801H2.42434H2.43067H2.437H2.44334H2.44968H2.45602H2.46236H2.4687H2.47504H2.48139H2.48773H2.49408H2.50043H2.50678H2.51314H2.51949H2.52585H2.5322H2.53856H2.54492H2.55129H2.55765H2.56401H2.57038H2.57675H2.58312H2.58949H2.59586H2.60223H2.60861H2.61499H2.62137H2.62775H2.63413H2.64051H2.64689H2.65328H2.65967H2.66605H2.67244H2.67884H2.68523H2.69162H2.69802H2.70442H2.71081H2.71722H2.72362H2.73002H2.73642H2.74283H2.74924H2.75565H2.76206H2.76847H2.77488H2.78129H2.78771H2.79413H2.80054H2.80696H2.81339H2.81981H2.82623H2.83266H2.83908H2.84551H2.85194H2.85837H2.8648H2.87124H2.87767H2.88411H2.89055H2.89698H2.90343H2.90987H2.91631H2.92275H2.9292H2.93565H2.94209H2.94854H2.95499H2.96145H2.9679H2.97435H2.98081H2.98727H2.99373H3.00019H3.00665H3.01311H3.01957H3.02604H3.03251H3.03897H3.04544H3.05191H3.05838H3.06486H3.07133H3.07781H3.08428H3.09076H3.09724H3.10372H3.1102H3.11668H3.12317H3.12965H3.13614H3.14263H3.14911H3.1556H3.1621H3.16859H3.17508H3.18158H3.18807H3.19457H3.20107H3.20757H3.21407H3.22057H3.22708H3.23358H3.24009H3.24659H3.2531H3.25961H3.26612H3.27263H3.27914H3.28566H3.29217H3.29869H3.30521H3.31172H3.31824H3.32476H3.33129H3.33781H3.34433H3.35086H3.35739H3.36391H3.37044H3.37697H3.3835H3.39003H3.39657H3.4031H3.40964H3.41617H3.42271H3.42925H3.43579H3.44233H3.44887H3.45541H3.46196H3.4685H3.47505H3.4816H3.48814H3.49469H3.50124H3.5078H3.51435H3.5209H3.52746H3.53401H3.54057H3.54713H3.55368H3.56024H3.56681H3.57337H3.57993H3.58649H3.59306H3.59962H3.60619H3.61276H3.61933H3.6259H3.63247H3.63904H3.64561H3.65219H3.65876H3.66534H3.67191H3.67849H3.68507H3.69165H3.69823H3.70481H3.7114H3.71798H3.72456H3.73115H3.73774H3.74432H3.75091H3.7575H3.76409H3.77068H3.77727H3.78387H3.79046H3.79706H3.80365H3.81025H3.81685H3.82344H3.83004H3.83664H3.84324H3.84985H3.85645H3.86305H3.86966H3.87626H3.88287H3.88948H3.89609H3.90269H3.9093H3.91592H3.92253H3.92914H3.93575H3.94237H3.94898H3.9556H3.96222H3.96883H3.97545H3.98207H3.98869H3.99531H4.00193H4.00856H4.01518H4.0218H4.02843H4.03505H4.04168H4.04831H4.05494H4.06157H4.0682H4.07483H4.08146H4.08809H4.09472H4.10136H4.10799H4.11463H4.12126H4.1279H4.13454H4.14118H4.14781H4.15445H4.1611H4.16774H4.17438H4.18102H4.18767H4.19431H4.20096H4.2076H4.21425H4.22089H4.22754H4.23419H4.24084H4.24749H4.25414H4.26079H4.26745H4.2741H4.28075H4.28741H4.29406H4.30072H4.30737H4.31403H4.32069H4.32735H4.33401H4.34067H4.34733H4.35399H4.36065H4.36731H4.37398H4.38064H4.3873H4.39397H4.40063H4.4073H4.41397H4.42063H4.4273H4.43397H4.44064H4.44731H4.45398H4.46065H4.46733H4.474H4.48067H4.48734H4.49402H4.50069H4.50737H4.51405H4.52072H4.5274H4.53408H4.54076H4.54743H4.55411H4.56079H4.56748H4.57416H4.58084H4.58752H4.5942H4.60089H4.60757H4.61426H4.62094H4.62763H4.63431H4.641H4.64769H4.65437H4.66106H4.66775H4.67444H4.68113H4.68782H4.69451H4.7012H4.70789H4.71459H4.72128H4.72797H4.73467H4.74136H4.74806H4.75475H4.76145H4.76814H4.77484H4.78154H4.78823H4.79493H4.80163H4.80833H4.81503H4.82173H4.82843H4.83513H4.84183H4.84853H4.85523H4.86194H4.86864H4.87534H4.88205H4.88875H4.89546H4.90216H4.90887H4.91557H4.92228H4.92899H4.93569H4.9424H4.94911H4.95582H4.96252H4.96923H4.97594H4.98265H4.98936H4.99607H5.00278H5.00949H5.01621H5.02292H5.02963H5.03634H5.04306H5.04977H5.05648H5.0632H5.06991H5.07663H5.08334H5.09006H5.09677H5.10349H5.1102H5.11692H5.12364H5.13035H5.13707H5.14379H5.15051H5.15723H5.16394H5.17066H5.17738H5.1841H5.19082H5.19754H5.20426H5.21098H5.2177H5.22442H5.23115H5.23787H5.24459H5.25131H5.25803H5.26476H5.27148H5.2782H5.28493H5.29165H5.29837H5.3051H5.31182H5.31855H5.32527H5.332H5.33872H5.34545H5.35217H5.3589H5.36562H5.37235H5.37908H5.3858H5.39253H5.39926H5.40598H5.41271H5.41944H5.42616H5.43289H5.43962H5.44635H5.45308H5.45981H5.46653H5.47326H5.47999H5.48672H5.49345H5.50018H5.50691H5.51364H5.52037H5.5271H5.53383H5.54056H5.54729H5.55402H5.56075H5.56748H5.57421H5.58094H5.58767H5.5944H5.60113H5.60786H5.61459H5.62133H5.62806H5.63479H5.64152H5.64825H5.65498H5.66171H5.66845H5.67518H5.68191H5.68864H5.69537H5.70211H5.70884H5.71557H5.7223H5.72903H5.73577H5.7425H5.74923H5.75596H5.7627H5.76943H5.77616H5.78289H5.78962H5.79636H5.79775C16.3025 65.4707 26.2399 65.4414 35.1014 65.4152C41.7909 65.3955 47.8672 65.3776 53.1118 65.3628L53.1147 65.3628C57.7754 65.3227 61.7603 65.2827 64.9394 65.2507C65.843 65.2416 66.6815 65.2332 67.4519 65.2256L67.4576 65.2255C68.1484 65.2108 68.781 65.1961 69.3553 65.1828C70.1246 65.165 70.7892 65.1496 71.3485 65.1398ZM59.5353 64.8041C57.5708 64.823 55.4239 64.8429 53.1104 64.8628L72.1979 64.6124C72.2119 64.7319 72.2665 64.8206 72.3109 64.8732C72.3593 64.9306 72.4093 64.9631 72.4342 64.9778C72.4825 65.0064 72.5228 65.0183 72.5308 65.0207L72.5313 65.0208C72.552 65.0269 72.5588 65.0267 72.5366 65.0235C72.4988 65.018 72.4285 65.011 72.3186 65.0037C72.1053 64.9896 71.7808 64.9771 71.3461 64.9686C71.3459 64.9686 71.3457 64.9686 71.3455 64.9686C71.3404 64.9685 71.3353 64.9684 71.3301 64.9683C70.8013 64.9588 70.1667 64.9441 69.4321 64.9272C68.8363 64.9134 68.1747 64.8981 67.4503 64.8828C67.4497 64.8828 67.4491 64.8828 67.4485 64.8828C67.4455 64.8827 67.4424 64.8827 67.4393 64.8826C66.6695 64.875 65.8318 64.8666 64.9292 64.8575C63.3296 64.8414 61.5261 64.8233 59.5353 64.8041ZM35.1023 64.193C41.7906 64.2128 47.8661 64.2307 53.1104 64.2454L5.79636 64.1082C16.3024 64.1376 26.2403 64.1669 35.1023 64.193Z" fill="white" stroke="white"/>
<path d="M63.132 18.7975L63.1351 18.7948C63.8305 18.168 64.3667 17.6752 64.726 17.3311C64.9045 17.1601 65.0456 17.02 65.142 16.9161C65.1883 16.8662 65.2352 16.813 65.272 16.7631C65.2883 16.741 65.3183 16.6987 65.3432 16.6452C65.3552 16.6195 65.3776 16.5671 65.3879 16.4978C65.3977 16.4329 65.4064 16.2863 65.3086 16.1396C65.1995 15.976 65.0378 15.9283 64.9452 15.9174C64.8593 15.9074 64.7908 15.9216 64.7606 15.9288C64.6964 15.9441 64.6445 15.969 64.6207 15.9809C64.5643 16.0089 64.5033 16.0467 64.4472 16.0836C64.3295 16.1608 64.1685 16.2765 63.9716 16.4237C63.575 16.72 63.0041 17.1656 62.2828 17.7409L62.2791 17.7439C61.9693 17.9958 61.6392 18.264 61.2895 18.5481C59.8784 19.6944 58.1488 21.0994 56.1552 22.7356L56.1532 22.7373C51.0242 26.9914 43.9576 32.9089 36.1881 39.4777L36.1653 39.497L36.145 39.5189L35.5578 40.1495C34.1413 38.8403 32.8172 37.5631 31.5296 36.317C31.429 36.2196 31.3286 36.1224 31.2284 36.0254C29.9384 34.7766 28.6799 33.5584 27.4026 32.3768C27.4022 32.3764 27.4018 32.3761 27.4014 32.3757L27.1294 32.1207L26.7991 31.811L26.4582 32.1092L26.186 32.3475C22.6324 35.3882 19.4353 38.1306 16.7276 40.4532C15.5418 41.4703 14.45 42.4069 13.4631 43.2527L13.4631 43.2526L13.4553 43.2596C11.9984 44.5622 10.7996 45.624 9.85852 46.4453L9.85849 46.4453L9.85323 46.45C9.43078 46.8294 9.10662 47.1314 8.89024 47.3455C8.7836 47.4511 8.69501 47.5432 8.63259 47.6163C8.60391 47.6499 8.56596 47.6965 8.53479 47.7475C8.52147 47.7692 8.49014 47.8222 8.47013 47.8935C8.45942 47.9317 8.3995 48.1591 8.56708 48.3584C8.70033 48.5219 8.88373 48.5442 8.96256 48.5445C9.04892 48.5448 9.1171 48.5235 9.1466 48.5136C9.21261 48.4914 9.27235 48.4591 9.31202 48.4364C9.39951 48.3863 9.50871 48.3128 9.63046 48.2262C9.87847 48.0497 10.2291 47.7821 10.6673 47.4384L10.6673 47.4385L10.6727 47.4341C11.4076 46.841 12.2977 46.1316 13.3447 45.2971C13.6883 45.0232 14.0487 44.7359 14.4262 44.4348L14.4262 44.4348L14.4333 44.429C15.8484 43.2571 17.4309 41.902 19.1819 40.4027C19.4728 40.1535 19.7684 39.9005 20.0686 39.6435C22.085 37.9181 24.3148 36.0182 26.7669 33.9912C27.9565 35.1085 29.1407 36.2747 30.3643 37.4796C30.4255 37.5399 30.4868 37.6002 30.5481 37.6606C31.9452 39.0363 33.3944 40.4598 34.952 41.9055C34.9524 41.9059 34.9528 41.9063 34.9532 41.9066L35.2423 42.1787L35.5648 42.4822L35.905 42.1986L36.2137 41.9414L36.2153 41.94L37.3986 40.9454L37.4001 40.9442C45.1523 34.3754 52.1506 28.389 57.1944 24.0143L57.197 24.0121C58.1694 23.1569 59.0761 22.362 59.9109 21.6301C61.1496 20.5442 62.2301 19.597 63.132 18.7975Z" fill="white" stroke="white"/>
<path d="M65.3276 30.9338C65.3276 30.9337 65.3276 30.9336 65.3276 30.9335L65.3286 30.9367C65.3285 30.9367 65.3282 30.9357 65.3276 30.9338ZM48.5147 15.6336C48.5147 15.6336 48.5159 15.6339 48.518 15.6346C48.5157 15.6339 48.5146 15.6336 48.5147 15.6336ZM48.5183 16.5119C48.5183 16.5118 48.5193 16.5115 48.5216 16.5108C48.5195 16.5115 48.5184 16.5119 48.5183 16.5119ZM63.9456 17.0194C63.9505 20.9391 64.0009 24.1954 64.0825 26.7732C64.1254 28.1379 64.1728 29.2428 64.2249 30.0089C64.2508 30.39 64.2786 30.6976 64.309 30.9145C64.3238 31.0196 64.3417 31.1228 64.3659 31.2077C64.3769 31.2463 64.3973 31.3114 64.4349 31.3769C64.4537 31.4096 64.4901 31.4665 64.5518 31.5201C64.6169 31.5766 64.7326 31.6475 64.891 31.6475C65.0511 31.6475 65.1673 31.5752 65.232 31.5184C65.2934 31.4645 65.3295 31.4075 65.348 31.375C65.3852 31.3095 65.4055 31.2445 65.4164 31.2059C65.4404 31.1209 65.4583 31.0173 65.473 30.9116C65.5034 30.6936 65.5311 30.3845 65.557 30.0023C65.6091 29.2342 65.6565 28.1294 65.6994 26.7732C65.7854 24.0567 65.8368 20.2783 65.8368 16.0735V15.6277V15.1277H65.3368H64.891H64.8896H64.8882H64.8868H64.8853H64.8839H64.8825H64.8811H64.8797H64.8783H64.8769H64.8755H64.8741H64.8727H64.8712H64.8698H64.8684H64.867H64.8656H64.8642H64.8628H64.8614H64.8599H64.8585H64.8571H64.8557H64.8543H64.8529H64.8514H64.85H64.8486H64.8472H64.8458H64.8443H64.8429H64.8415H64.8401H64.8387H64.8372H64.8358H64.8344H64.833H64.8316H64.8301H64.8287H64.8273H64.8259H64.8244H64.823H64.8216H64.8202H64.8187H64.8173H64.8159H64.8145H64.813H64.8116H64.8102H64.8088H64.8073H64.8059H64.8045H64.803H64.8016H64.8002H64.7987H64.7973H64.7959H64.7945H64.793H64.7916H64.7902H64.7887H64.7873H64.7859H64.7844H64.783H64.7816H64.7801H64.7787H64.7772H64.7758H64.7744H64.7729H64.7715H64.7701H64.7686H64.7672H64.7658H64.7643H64.7629H64.7614H64.76H64.7586H64.7571H64.7557H64.7542H64.7528H64.7514H64.7499H64.7485H64.747H64.7456H64.7441H64.7427H64.7413H64.7398H64.7384H64.7369H64.7355H64.734H64.7326H64.7311H64.7297H64.7282H64.7268H64.7254H64.7239H64.7225H64.721H64.7196H64.7181H64.7167H64.7152H64.7138H64.7123H64.7109H64.7094H64.708H64.7065H64.7051H64.7036H64.7022H64.7007H64.6993H64.6978H64.6964H64.6949H64.6934H64.692H64.6905H64.6891H64.6876H64.6862H64.6847H64.6833H64.6818H64.6803H64.6789H64.6774H64.676H64.6745H64.6731H64.6716H64.6701H64.6687H64.6672H64.6658H64.6643H64.6629H64.6614H64.6599H64.6585H64.657H64.6556H64.6541H64.6526H64.6512H64.6497H64.6482H64.6468H64.6453H64.6439H64.6424H64.6409H64.6395H64.638H64.6365H64.6351H64.6336H64.6321H64.6307H64.6292H64.6278H64.6263H64.6248H64.6234H64.6219H64.6204H64.619H64.6175H64.616H64.6145H64.6131H64.6116H64.6101H64.6087H64.6072H64.6057H64.6043H64.6028H64.6013H64.5999H64.5984H64.5969H64.5954H64.594H64.5925H64.591H64.5896H64.5881H64.5866H64.5851H64.5837H64.5822H64.5807H64.5792H64.5778H64.5763H64.5748H64.5734H64.5719H64.5704H64.5689H64.5675H64.566H64.5645H64.563H64.5615H64.5601H64.5586H64.5571H64.5556H64.5542H64.5527H64.5512H64.5497H64.5483H64.5468H64.5453H64.5438H64.5423H64.5409H64.5394H64.5379H64.5364H64.5349H64.5335H64.532H64.5305H64.529H64.5275H64.5261H64.5246H64.5231H64.5216H64.5201H64.5186H64.5172H64.5157H64.5142H64.5127H64.5112H64.5097H64.5083H64.5068H64.5053H64.5038H64.5023H64.5008H64.4994H64.4979H64.4964H64.4949H64.4934H64.4919H64.4904H64.489H64.4875H64.486H64.4845H64.483H64.4815H64.48H64.4786H64.4771H64.4756H64.4741H64.4726H64.4711H64.4696H64.4681H64.4667H64.4652H64.4637H64.4622H64.4607H64.4592H64.4577H64.4562H64.4547H64.4532H64.4518H64.4503H64.4488H64.4473H64.4458H64.4443H64.4428H64.4413H64.4398H64.4383H64.4368H64.4354H64.4339H64.4324H64.4309H64.4294H64.4279H64.4264H64.4249H64.4234H64.4219H64.4204H64.4189H64.4174H64.4159H64.4144H64.413H64.4115H64.41H64.4085H64.407H64.4055H64.404H64.4025H64.401H64.3995H64.398H64.3965H64.395H64.3935H64.392H64.3905H64.389H64.3875H64.386H64.3845H64.383H64.3815H64.38H64.3785H64.3771H64.3756H64.3741H64.3726H64.3711H64.3696H64.3681H64.3666H64.3651H64.3636H64.3621H64.3606H64.3591H64.3576H64.3561H64.3546H64.3531H64.3516H64.3501H64.3486H64.3471H64.3456H64.3441H64.3426H64.3411H64.3396H64.3381H64.3366H64.3351H64.3336H64.3321H64.3306H64.3291H64.3276H64.3261H64.3246H64.3231H64.3216H64.3201H64.3186H64.3171H64.3156H64.3141H64.3126H64.3111H64.3096H64.3081H64.3066H64.305H64.3035H64.302H64.3005H64.299H64.2975H64.296H64.2945H64.293H64.2915H64.29H64.2885H64.287H64.2855H64.284H64.2825H64.281H64.2795H64.278H64.2765H64.275H64.2735H64.272H64.2705H64.269H64.2675H64.266H64.2645H64.2629H64.2614H64.2599H64.2584H64.2569H64.2554H64.2539H64.2524H64.2509H64.2494H64.2479H64.2464H64.2449H64.2434H64.2419H64.2404H64.2389H64.2374H64.2359H64.2344H64.2328H64.2313H64.2298H64.2283H64.2268H64.2253H64.2238H64.2223H64.2208H64.2193H64.2178H64.2163H64.2148H64.2133H64.2118H64.2103H64.2088H64.2072H64.2057H64.2042H64.2027H64.2012H64.1997H64.1982H64.1967H64.1952H64.1937H64.1922H64.1907H64.1892H64.1877H64.1862H64.1846H64.1831H64.1816H64.1801H64.1786H64.1771H64.1756H64.1741H64.1726H64.1711H64.1696H64.1681H64.1666H64.1651H64.1635H64.162H64.1605H64.159H64.1575H64.156H64.1545H64.153H64.1515H64.15H64.1485H64.147H64.1455H64.144H64.1424H64.1409H64.1394H64.1379H64.1364C59.761 15.1277 55.795 15.1791 52.9247 15.2651C51.4903 15.2994 50.3252 15.3468 49.5156 15.401C49.1125 15.4281 48.7881 15.4574 48.5599 15.4891C48.4489 15.5045 48.3425 15.5228 48.2561 15.5467C48.2168 15.5576 48.1523 15.5773 48.0877 15.6128C48.0559 15.6303 47.9988 15.6651 47.9441 15.7248C47.8873 15.787 47.8079 15.9056 47.8079 16.0735C47.8079 16.242 47.8877 16.3611 47.9455 16.4238C48.0009 16.4838 48.0587 16.5184 48.0907 16.5357C48.1558 16.5709 48.2205 16.5901 48.2597 16.6007C48.346 16.6238 48.4524 16.6414 48.563 16.656C48.7906 16.6862 49.1146 16.7138 49.517 16.7397C50.3254 16.7917 51.4899 16.8391 52.9232 16.882C55.7518 16.9667 59.645 17.0179 63.9456 17.0194Z" fill="white" stroke="white"/>
</svg>
