<svg width="160" height="160" viewBox="0 0 160 160" fill="none" xmlns="http://www.w3.org/2000/svg">
<path d="M26.6667 70H106.667C108.435 70 110.13 70.7024 111.381 71.9526C112.631 73.2029 113.333 74.8986 113.333 76.6667V96.6667C113.333 107.275 109.119 117.449 101.618 124.951C94.1162 132.452 83.942 136.667 73.3333 136.667H60C49.3913 136.667 39.2172 132.452 31.7157 124.951C24.2143 117.449 20 107.275 20 96.6667V76.6667C20 74.8986 20.7024 73.2029 21.9526 71.9526C23.2029 70.7024 24.8986 70 26.6667 70Z" stroke="white" stroke-width="1.5" stroke-linecap="round" stroke-linejoin="round"/>
<path d="M89.9983 50C87.8586 47.7532 86.665 44.7693 86.665 41.6666C86.665 38.5639 87.8586 35.5801 89.9983 33.3333C92.1382 31.0865 93.3317 28.1027 93.3317 25C93.3317 21.8972 92.1382 18.9134 89.9983 16.6666" stroke="white" stroke-width="1.5" stroke-linecap="round" stroke-linejoin="round"/>
<path d="M66.6683 50C64.5285 47.7532 63.335 44.7693 63.335 41.6666C63.335 38.5639 64.5285 35.5801 66.6683 33.3333C68.8081 31.0865 70.0016 28.1027 70.0016 25C70.0016 21.8972 68.8081 18.9134 66.6683 16.6666" stroke="white" stroke-width="1.5" stroke-linecap="round" stroke-linejoin="round"/>
<path d="M43.3334 50C41.1935 47.7532 40 44.7693 40 41.6666C40 38.5639 41.1935 35.5801 43.3334 33.3333C45.4731 31.0865 46.6667 28.1027 46.6667 25C46.6667 21.8972 45.4731 18.9134 43.3334 16.6666" stroke="white" stroke-width="1.5" stroke-linecap="round" stroke-linejoin="round"/>
<path d="M107.52 117.433L119.826 114.617C125.558 113.305 130.675 110.087 134.341 105.488C138.006 100.889 140.002 95.183 140.002 89.3024C140.002 86.7676 139.502 84.2576 138.532 81.9157C137.562 79.5738 136.141 77.4459 134.348 75.6535C132.556 73.8612 130.428 72.4393 128.086 71.4693C125.744 70.4993 123.234 70 120.699 70H103.335" stroke="white" stroke-width="1.5" stroke-linecap="round" stroke-linejoin="round"/>
</svg>
