<svg width="32" height="32" viewBox="0 0 32 32" fill="none" xmlns="http://www.w3.org/2000/svg">
<path d="M20.4987 16.9574L26.5067 12.8841C26.9668 12.5728 27.3436 12.1535 27.6039 11.6628C27.8643 11.172 28.0003 10.6249 28 10.0694C28.0002 9.62263 27.9123 9.18019 27.7415 8.76737C27.5706 8.35455 27.3201 7.97943 27.0043 7.66345C26.6884 7.34746 26.3134 7.0968 25.9006 6.92579C25.4879 6.75477 25.0455 6.66675 24.5987 6.66675H7.42135C6.51926 6.66675 5.65412 7.0251 5.01625 7.66298C4.37837 8.30085 4.02002 9.16599 4.02002 10.0681V10.0681C4.01998 10.6237 4.15608 11.1709 4.4164 11.6618C4.67673 12.1527 5.05336 12.5724 5.51335 12.8841L11.5214 16.9574C12.8461 17.8554 14.4097 18.3353 16.01 18.3353C17.6104 18.3353 19.174 17.8554 20.4987 16.9574V16.9574Z" stroke="white" stroke-width="1.5" stroke-linecap="round" stroke-linejoin="round"/>
<path d="M4 10.0681V22.6668C4 23.7276 4.42143 24.7451 5.17157 25.4952C5.92172 26.2454 6.93913 26.6668 8 26.6668H24C25.0609 26.6668 26.0783 26.2454 26.8284 25.4952C27.5786 24.7451 28 23.7276 28 22.6668V10.0694" stroke="white" stroke-width="1.5" stroke-linecap="round" stroke-linejoin="round"/>
</svg>
