<svg width="24" height="24" viewBox="0 0 24 24" fill="none" xmlns="http://www.w3.org/2000/svg">
<path d="M12 24C18.6274 24 24 18.6274 24 12C24 5.37258 18.6274 0 12 0C5.37258 0 0 5.37258 0 12C0 18.6274 5.37258 24 12 24Z" fill="#FDD8D7"/>
<path d="M12 23.4287C18.3118 23.4287 23.4286 18.3119 23.4286 12.0001C23.4286 5.68828 18.3118 0.571533 12 0.571533C5.68816 0.571533 0.571411 5.68828 0.571411 12.0001C0.571411 18.3119 5.68816 23.4287 12 23.4287Z" fill="#FDD8D7" stroke="#FD4B4C"/>
<path d="M8.40002 8.3999L15.6 15.5999" stroke="#FD4B4C" stroke-width="1.5" stroke-miterlimit="10" stroke-linecap="round" stroke-linejoin="round"/>
<path d="M15.6 8.3999L8.39997 15.5999" stroke="#FD4B4C" stroke-width="1.5" stroke-miterlimit="10" stroke-linecap="round" stroke-linejoin="round"/>
</svg>
