<svg width="160" height="160" viewBox="0 0 160 160" fill="none" xmlns="http://www.w3.org/2000/svg">
<path d="M122.757 42.76L103.903 23.9067C101.404 21.406 98.0127 20.0008 94.4767 20H46.6634C43.1272 20 39.7358 21.4048 37.2353 23.9052C34.7348 26.4057 33.3301 29.7971 33.3301 33.3333V126.667C33.3301 130.203 34.7348 133.594 37.2353 136.095C39.7358 138.595 43.1272 140 46.6634 140H113.33C116.866 140 120.258 138.595 122.758 136.095C125.259 133.594 126.663 130.203 126.663 126.667V52.1867C126.663 48.6507 125.257 45.2599 122.757 42.76Z" stroke="white" stroke-width="1.5" stroke-linecap="round" stroke-linejoin="round"/>
<path d="M126.663 53.3333H99.9967C98.2286 53.3333 96.5329 52.631 95.2827 51.3807C94.0325 50.1305 93.3301 48.4348 93.3301 46.6667V20" stroke="white" stroke-width="1.5" stroke-linecap="round" stroke-linejoin="round"/>
<path d="M53.3301 73.3331H93.3301" stroke="white" stroke-width="1.5" stroke-linecap="round" stroke-linejoin="round"/>
<path d="M53.3301 93.3331H93.3301" stroke="white" stroke-width="1.5" stroke-linecap="round" stroke-linejoin="round"/>
<path d="M53.3301 113.333H82.1967" stroke="white" stroke-width="1.5" stroke-linecap="round" stroke-linejoin="round"/>
</svg>
