<svg width="120" height="120" viewBox="0 0 120 120" fill="none" xmlns="http://www.w3.org/2000/svg">
<path d="M90 40H85" stroke="white" stroke-width="1.5" stroke-linecap="round" stroke-linejoin="round"/>
<path d="M70 40H65" stroke="white" stroke-width="1.5" stroke-linecap="round" stroke-linejoin="round"/>
<path d="M45 40H50" stroke="white" stroke-width="1.5" stroke-linecap="round" stroke-linejoin="round"/>
<path d="M30 105H95C97.6522 105 100.196 103.946 102.071 102.071C103.946 100.196 105 97.6522 105 95V35C105 32.3478 103.946 29.8043 102.071 27.9289C100.196 26.0536 97.6522 25 95 25H45" stroke="white" stroke-width="1.5" stroke-linecap="round" stroke-linejoin="round"/>
<path d="M87.2607 71.37V80C87.2607 81.3261 86.734 82.5979 85.7963 83.5355C84.8586 84.4732 83.5868 85 82.2607 85H67.2607C65.9347 85 64.6629 84.4732 63.7252 83.5355C62.7875 82.5979 62.2607 81.3261 62.2607 80V71.13C62.2607 70.1927 62.4716 69.2673 62.8776 68.4225C63.2837 67.5777 63.8745 66.835 64.6065 66.2495L70.7065 61.3695C71.8147 60.483 73.1916 60 74.6107 60C76.0299 60 77.4068 60.483 78.515 61.3695L84.915 66.4895C85.6469 67.075 86.2378 67.8177 86.6439 68.6625C87.0499 69.5073 87.2607 70.4327 87.2607 71.37Z" stroke="white" stroke-width="1.5" stroke-linecap="round" stroke-linejoin="round"/>
<path d="M30 105C38.2843 105 45 98.2843 45 90C45 81.7157 38.2843 75 30 75C21.7157 75 15 81.7157 15 90C15 98.2843 21.7157 105 30 105Z" stroke="white" stroke-width="1.5" stroke-linecap="round" stroke-linejoin="round"/>
<path d="M15 90V25C15 21.0218 16.5804 17.2064 19.3934 14.3934C22.2064 11.5804 26.0218 10 30 10C33.9782 10 37.7936 11.5804 40.6066 14.3934C43.4196 17.2064 45 21.0218 45 25V90" stroke="white" stroke-width="1.5" stroke-linecap="round" stroke-linejoin="round"/>
<path d="M29.751 89.7505C29.7512 89.7999 29.766 89.8482 29.7936 89.8891C29.8212 89.9301 29.8603 89.962 29.906 89.9808C29.9517 89.9995 30.0019 90.0043 30.0504 89.9946C30.0988 89.9848 30.1433 89.9609 30.1781 89.9259C30.213 89.8909 30.2367 89.8464 30.2463 89.7979C30.2558 89.7495 30.2508 89.6992 30.2319 89.6536C30.2129 89.608 30.1809 89.569 30.1398 89.5416C30.0987 89.5142 30.0504 89.4995 30.001 89.4995C29.968 89.4993 29.9353 89.5057 29.9049 89.5183C29.8744 89.5308 29.8467 89.5493 29.8234 89.5727C29.8002 89.596 29.7818 89.6238 29.7694 89.6543C29.7569 89.6848 29.7507 89.7175 29.751 89.7505Z" stroke="white" stroke-width="1.5" stroke-linecap="round" stroke-linejoin="round"/>
</svg>
