<svg width="16" height="16" viewBox="0 0 16 16" fill="none" xmlns="http://www.w3.org/2000/svg">
<path d="M7.99671 13.9883C11.3077 13.9883 13.9917 11.3042 13.9917 7.99329C13.9917 4.68234 11.3077 1.99829 7.99671 1.99829C4.68576 1.99829 2.00171 4.68234 2.00171 7.99329C2.00171 11.3042 4.68576 13.9883 7.99671 13.9883Z" fill="#194DF5"/>
<path d="M6.45459 6.45457C6.5306 6.12429 6.71969 5.83099 6.98913 5.62541C7.25857 5.41983 7.5914 5.31492 7.93003 5.32884C8.30519 5.30806 8.67335 5.43645 8.95423 5.68601C9.23511 5.93557 9.40593 6.28607 9.42944 6.66106C9.42944 7.66023 7.99664 7.99329 7.99664 8.6594" stroke="white" stroke-miterlimit="10" stroke-linecap="round" stroke-linejoin="round"/>
<path d="M8.08012 10.4952C8.08012 10.5117 8.07523 10.5278 8.06607 10.5415C8.05692 10.5552 8.0439 10.5659 8.02868 10.5722C8.01345 10.5785 7.99669 10.5801 7.98053 10.5769C7.96436 10.5737 7.94951 10.5658 7.93786 10.5541C7.92621 10.5425 7.91827 10.5276 7.91505 10.5115C7.91184 10.4953 7.91349 10.4785 7.9198 10.4633C7.9261 10.4481 7.93678 10.4351 7.95049 10.4259C7.96419 10.4168 7.9803 10.4119 7.99679 10.4119" stroke="white" stroke-miterlimit="10" stroke-linecap="round" stroke-linejoin="round"/>
<path d="M7.9967 10.4126C8.01881 10.4126 8.04 10.4214 8.05563 10.437C8.07126 10.4526 8.08004 10.4738 8.08004 10.4959" stroke="white" stroke-miterlimit="10" stroke-linecap="round" stroke-linejoin="round"/>
</svg>
