<svg width="32" height="32" viewBox="0 0 32 32" fill="none" xmlns="http://www.w3.org/2000/svg">
<path d="M16 17.3333C15.2089 17.3333 14.4355 17.0987 13.7777 16.6591C13.1199 16.2196 12.6072 15.5949 12.3045 14.864C12.0017 14.1331 11.9225 13.3288 12.0769 12.5529C12.2312 11.777 12.6122 11.0642 13.1716 10.5048C13.731 9.94542 14.4437 9.56445 15.2196 9.41011C15.9956 9.25577 16.7998 9.33499 17.5307 9.63774C18.2616 9.94049 18.8864 10.4532 19.3259 11.111C19.7654 11.7688 20 12.5421 20 13.3333C20 14.3941 19.5786 15.4115 18.8284 16.1617C18.0783 16.9118 17.0609 17.3333 16 17.3333Z" stroke="white" stroke-width="1.5" stroke-linecap="round" stroke-linejoin="round"/>
<path d="M15.9998 28C15.9998 28 6.6665 20.3333 6.6665 13.3333C6.6665 12.1077 6.90792 10.894 7.37696 9.76162C7.84601 8.62925 8.53349 7.60035 9.40017 6.73367C10.2669 5.86699 11.2958 5.1795 12.4281 4.71046C13.5605 4.24141 14.7742 4 15.9998 4C17.2255 4 18.4392 4.24141 19.5716 4.71046C20.7039 5.1795 21.7328 5.86699 22.5995 6.73367C23.4662 7.60035 24.1537 8.62925 24.6227 9.76162C25.0918 10.894 25.3332 12.1077 25.3332 13.3333C25.3332 20.3333 15.9998 28 15.9998 28Z" stroke="white" stroke-width="1.5" stroke-linecap="round" stroke-linejoin="round"/>
</svg>
