<svg width="141" height="38" viewBox="0 0 141 38" fill="none" xmlns="http://www.w3.org/2000/svg">
<path d="M25.5 17.05L30.7 9.5L6.35001 0.699997L4.45001 0L23.7 17.25L21.15 20.9L0 10.95L10.3 38L40.45 30.3L25.5 17.05ZM10.7 3.7L28.55 10.2L24.45 16.1L10.7 3.7ZM24.7 18.2L35 27.45L22.4 21.55L24.7 18.2ZM2.5 13.7L20.35 22.05L10.85 35.75L2.5 13.7ZM21.6 22.65L36.85 29.8L12.3 36.05L21.6 22.65Z" fill="url(#paint0_linear_596_1890)"/>
<path d="M55.8508 14.3499C56.8008 13.8999 57.9508 13.6499 59.2508 13.6499C60.4008 13.6499 61.4008 13.8499 62.2008 14.1999C63.0008 14.5999 63.6508 15.0499 64.1008 15.6499C64.5508 16.2499 64.8508 16.8499 64.9508 17.4499L65.0008 17.6499H66.0008L65.9508 17.3999C65.8008 16.5499 65.4508 15.6999 64.8508 14.9999C64.2508 14.2999 63.5008 13.6999 62.5508 13.2999C61.6008 12.8999 60.5008 12.6499 59.3008 12.6499C57.8508 12.6499 56.6008 12.8999 55.5008 13.4499C54.4008 13.9999 53.5508 14.7499 52.9508 15.6999C52.3508 16.6499 52.0508 17.7999 52.0508 19.0999C52.0508 20.3999 52.3508 21.5499 52.9508 22.4999C53.5508 23.4999 54.4008 24.2499 55.5008 24.7999C56.6008 25.3499 57.8508 25.5999 59.3008 25.5999C60.5008 25.5999 61.6008 25.3999 62.5508 24.9499C63.5008 24.4999 64.3008 23.9499 64.8508 23.2499C65.4008 22.5499 65.8008 21.6999 65.9008 20.8499L65.9508 20.5999H64.9508L64.9008 20.7999C64.8008 21.4499 64.5008 22.0499 64.0508 22.6499C63.6008 23.2499 62.9508 23.7499 62.1508 24.0999C61.3508 24.4999 60.3508 24.6999 59.2008 24.6999C57.8508 24.6999 56.7008 24.4499 55.8008 23.9999C54.8508 23.4999 54.1508 22.8499 53.7008 22.0499C53.2008 21.1999 53.0008 20.2499 53.0008 19.1999C53.0008 18.1499 53.2508 17.1999 53.7008 16.3499C54.2008 15.4499 54.9008 14.7999 55.8508 14.3499Z" fill="white"/>
<path d="M79.2012 13.4499C78.1012 12.9499 76.8012 12.6499 75.3012 12.6499C73.8012 12.6499 72.5012 12.8999 71.4012 13.4499C70.3012 13.9999 69.4512 14.7499 68.8512 15.6999C68.2512 16.6499 67.9512 17.7999 67.9512 19.0999C67.9512 20.3999 68.2512 21.5499 68.8512 22.4999C69.4512 23.4999 70.3012 24.2499 71.4012 24.7499C72.5012 25.2999 73.8012 25.5499 75.3012 25.5499C76.8012 25.5499 78.1012 25.2999 79.2012 24.7499C80.3012 24.1999 81.1512 23.4499 81.7512 22.4499C82.3512 21.4499 82.6512 20.2999 82.6512 19.0499C82.6512 17.7999 82.3512 16.5999 81.7512 15.6499C81.1512 14.7499 80.3012 13.9999 79.2012 13.4499ZM81.6512 19.1499C81.6512 20.2499 81.4012 21.1999 80.9012 22.0499C80.4012 22.8499 79.7012 23.5499 78.7512 23.9999C77.8012 24.4499 76.6512 24.6999 75.3012 24.6999C73.9512 24.6999 72.8012 24.4499 71.8512 23.9999C70.9012 23.5499 70.2012 22.8999 69.7012 22.0499C69.2012 21.1999 68.9512 20.2499 68.9512 19.1499C68.9512 18.0499 69.2012 17.0999 69.7012 16.2999C70.2012 15.4999 70.9012 14.8499 71.8512 14.3499C72.8012 13.8999 73.9512 13.6499 75.3012 13.6499C76.6512 13.6499 77.8012 13.8999 78.7512 14.3499C79.7012 14.7999 80.4012 15.4499 80.9012 16.2999C81.4012 17.0999 81.6512 18.0499 81.6512 19.1499Z" fill="white"/>
<path d="M97.5504 24.3499L86.0004 13.3499H84.9004V25.5999H85.9004V14.5999L97.4504 25.5999H98.5504V13.3499H97.5504V24.3499Z" fill="white"/>
<path d="M102.301 13.3499H101.301V25.5999H102.301V13.3499Z" fill="white"/>
<path d="M119.051 13.3499H117.551L111.551 18.8499L105.501 13.3499H104.051L110.751 19.4999L104.051 25.5999H105.501L111.551 20.1499L117.551 25.5999H119.051L112.301 19.4999L119.051 13.3499Z" fill="white"/>
<path d="M123.051 25.6001H124.201L131.201 14.2501L130.601 13.3501L123.051 25.6001Z" fill="white"/>
<path d="M138.201 25.6001H137.051L129.951 14.4001L130.601 13.3501L138.201 25.6001Z" fill="white"/>
<path d="M134.602 20.4001H126.602V21.3002H134.602V20.4001Z" fill="white"/>
<path d="M140.551 13.3499H139.551V25.5999H140.551V13.3499Z" fill="white"/>
<path d="M121.551 24.6499H120.551V25.5999H121.551V24.6499Z" fill="white"/>
<defs>
<linearGradient id="paint0_linear_596_1890" x1="0.927499" y1="12.6152" x2="38.1503" y2="33.8714" gradientUnits="userSpaceOnUse">
<stop stop-color="#0F9DEF"/>
<stop offset="0.5" stop-color="#194DF5"/>
<stop offset="1" stop-color="#DB27B2"/>
</linearGradient>
</defs>
</svg>
