<svg id="Layer_2" data-name="Layer 2" xmlns="http://www.w3.org/2000/svg" width="118.647" height="38" viewBox="0 0 118.647 38">
  <g id="Logo_Mark" data-name="Logo Mark">
    <path id="Path_12644" data-name="Path 12644" d="M25.3,17.017,30.464,9.5,6.335.693,4.457,0,23.481,17.226l-2.516,3.662L0,10.975,10.183,38l29.84-7.663ZM10.629,3.737l17.686,6.485-4.046,5.862ZM24.5,18.164l10.213,9.214L22.228,21.487ZM2.476,13.7l17.691,8.346L10.787,35.69Zm18.959,8.945,15.131,7.149L12.223,36.044Z" fill="#fff"/>
  </g>
  <g id="Word_Mark" data-name="Word Mark" transform="translate(51.622 12.582)">
    <path id="Path_12645" data-name="Path 12645" d="M107.9,26.782a7.488,7.488,0,0,1,3.383-.7,6.884,6.884,0,0,1,2.917.57,5.057,5.057,0,0,1,1.867,1.441,4.279,4.279,0,0,1,.832,1.8l.035.183h.991l-.04-.258a5.017,5.017,0,0,0-1.075-2.372,5.973,5.973,0,0,0-2.293-1.694,8.053,8.053,0,0,0-3.224-.624,8.573,8.573,0,0,0-3.764.787,5.874,5.874,0,0,0-2.516,2.244,6.859,6.859,0,0,0,0,6.746,5.879,5.879,0,0,0,2.516,2.258,8.42,8.42,0,0,0,3.764.792,7.924,7.924,0,0,0,3.244-.629,5.943,5.943,0,0,0,2.288-1.7,4.9,4.9,0,0,0,1.06-2.392l.045-.243h-.991l-.035.178a4.259,4.259,0,0,1-.842,1.8,5.007,5.007,0,0,1-1.867,1.486,6.7,6.7,0,0,1-2.912.579,7.36,7.36,0,0,1-3.383-.713,4.953,4.953,0,0,1-2.09-1.937,5.954,5.954,0,0,1,0-5.651,4.878,4.878,0,0,1,2.09-1.951Z" transform="translate(-104.127 -25.127)" fill="#fff" stroke="#fff" stroke-width="0.5"/>
    <path id="Path_12646" data-name="Path 12646" d="M147.158,25.923a9.856,9.856,0,0,0-7.7,0,5.859,5.859,0,0,0-2.521,2.244,6.963,6.963,0,0,0,0,6.756,5.859,5.859,0,0,0,2.516,2.249h0a8.7,8.7,0,0,0,3.853.778,8.8,8.8,0,0,0,3.848-.787,5.884,5.884,0,0,0,2.526-2.263,6.927,6.927,0,0,0,0-6.746A5.8,5.8,0,0,0,147.158,25.923Zm2.427,5.611a5.5,5.5,0,0,1-.728,2.848,5.022,5.022,0,0,1-2.14,1.932,8.623,8.623,0,0,1-6.81,0,4.913,4.913,0,0,1-2.13-1.922,5.532,5.532,0,0,1-.753-2.858,5.448,5.448,0,0,1,.733-2.838,4.953,4.953,0,0,1,2.13-1.917,8.722,8.722,0,0,1,6.815,0,5.007,5.007,0,0,1,2.135,1.917,5.448,5.448,0,0,1,.748,2.838Z" transform="translate(-120.248 -25.134)" fill="#fff" stroke="#fff" stroke-width="0.5"/>
    <path id="Path_12647" data-name="Path 12647" d="M182.4,36.726,170.93,25.81h-1.08V37.969h.981V27.053L182.3,37.969h1.085V25.81H182.4Z" transform="translate(-137.299 -25.472)" fill="#fff" stroke="#fff" stroke-width="0.5"/>
    <rect id="Rectangle_4402" data-name="Rectangle 4402" width="0.981" height="12.159" transform="translate(48.815 0.338)" fill="#fff" stroke="#fff" stroke-width="0.5"/>
    <path id="Path_12648" data-name="Path 12648" d="M222.993,25.81h-1.466l-5.973,5.443-5.968-5.443H208.12l6.686,6.077-6.686,6.082h1.466l5.968-5.443,5.973,5.443h1.466l-6.686-6.082Z" transform="translate(-156.615 -25.472)" fill="#fff" stroke="#fff" stroke-width="0.5"/>
  </g>
</svg>
