<svg width="160" height="160" viewBox="0 0 160 160" fill="none" xmlns="http://www.w3.org/2000/svg">
<path d="M80 73.3333C85.5228 73.3333 90 68.8561 90 63.3333C90 57.8104 85.5228 53.3333 80 53.3333C74.4772 53.3333 70 57.8104 70 63.3333C70 68.8561 74.4772 73.3333 80 73.3333Z" stroke="white" stroke-width="1.5" stroke-linecap="round" stroke-linejoin="round"/>
<path d="M126.667 140H33.3333C29.7971 140 26.4057 138.595 23.9052 136.095C21.4048 133.594 20 130.203 20 126.667C20 124.899 20.7024 123.203 21.9526 121.953C23.2029 120.702 24.8986 120 26.6667 120H133.333C135.101 120 136.797 120.702 138.047 121.953C139.298 123.203 140 124.899 140 126.667C140 130.203 138.595 133.594 136.095 136.095C133.594 138.595 130.203 140 126.667 140Z" stroke="white" stroke-width="1.5" stroke-linecap="round" stroke-linejoin="round"/>
<path d="M30 120C30.4572 107.186 35.978 95.0773 45.3514 86.3288C54.7247 77.5803 67.1854 72.9067 80 73.3333C92.8146 72.9067 105.275 77.5803 114.649 86.3288C124.022 95.0773 129.543 107.186 130 120" stroke="white" stroke-width="1.5" stroke-linecap="round" stroke-linejoin="round"/>
<path d="M146.667 66.6667H140" stroke="white" stroke-width="1.5" stroke-linecap="round" stroke-linejoin="round"/>
<path d="M20.0016 66.6667H13.335" stroke="white" stroke-width="1.5" stroke-linecap="round" stroke-linejoin="round"/>
<path d="M80 13.3333V19.9999" stroke="white" stroke-width="1.5" stroke-linecap="round" stroke-linejoin="round"/>
<path d="M35.2881 28.6189L40.0022 33.333" stroke="white" stroke-width="1.5" stroke-linecap="round" stroke-linejoin="round"/>
<path d="M124.714 28.6189L120 33.333" stroke="white" stroke-width="1.5" stroke-linecap="round" stroke-linejoin="round"/>
</svg>
