<svg width="160" height="160" viewBox="0 0 160 160" fill="none" xmlns="http://www.w3.org/2000/svg">
<path d="M32.916 39.8069C25.836 47.0736 20.696 56.2069 18.2227 66.3936" stroke="white" stroke-width="1.5" stroke-linecap="round" stroke-linejoin="round"/>
<path d="M61.9336 136.287C65.8736 137.14 69.9603 137.614 74.1603 137.614C80.1069 137.614 85.8469 136.707 91.2469 135.034" stroke="white" stroke-width="1.5" stroke-linecap="round" stroke-linejoin="round"/>
<path d="M18.2275 93.6068C20.7009 103.793 25.8409 112.927 32.9209 120.193" stroke="white" stroke-width="1.5" stroke-linecap="round" stroke-linejoin="round"/>
<path d="M129.371 96.4268C126.577 105.84 121.417 114.22 114.624 120.947" stroke="white" stroke-width="1.5" stroke-linecap="round" stroke-linejoin="round"/>
<path d="M114.624 39.0536C121.417 45.7802 126.571 54.1602 129.371 63.5736" stroke="white" stroke-width="1.5" stroke-linecap="round" stroke-linejoin="round"/>
<path d="M61.9336 23.7135C65.8736 22.8602 69.9603 22.3868 74.1603 22.3868C80.1069 22.3868 85.8469 23.2935 91.2469 24.9668" stroke="white" stroke-width="1.5" stroke-linecap="round" stroke-linejoin="round"/>
<path d="M143.564 68.2149C150.073 74.7237 150.073 85.2764 143.564 91.7851C137.055 98.2939 126.503 98.2939 119.994 91.7851C113.485 85.2764 113.485 74.7236 119.994 68.2149C126.503 61.7062 137.055 61.7062 143.564 68.2149Z" stroke="white" stroke-width="1.5" stroke-linecap="round" stroke-linejoin="round"/>
<path d="M58.8473 117.128C65.356 123.637 65.356 134.19 58.8473 140.698C52.3385 147.207 41.7858 147.207 35.2771 140.698C28.7683 134.19 28.7683 123.637 35.2771 117.128C41.7858 110.62 52.3385 110.62 58.8473 117.128Z" stroke="white" stroke-width="1.5" stroke-linecap="round" stroke-linejoin="round"/>
<path d="M58.8473 19.3017C65.356 25.8105 65.356 36.3632 58.8473 42.8719C52.3385 49.3807 41.7858 49.3807 35.2771 42.8719C28.7683 36.3632 28.7683 25.8105 35.2771 19.3017C41.7858 12.793 52.3385 12.793 58.8473 19.3017Z" stroke="white" stroke-width="1.5" stroke-linecap="round" stroke-linejoin="round"/>
</svg>
