<svg width="36" height="36" viewBox="0 0 36 36" fill="none" xmlns="http://www.w3.org/2000/svg">
<path d="M31.189 14.2853C32.374 15.4703 32.374 17.3916 31.189 18.5767C30.004 19.7617 28.0826 19.7617 26.8976 18.5767C25.7125 17.3916 25.7125 15.4703 26.8976 14.2853C28.0826 13.1002 30.004 13.1002 31.189 14.2853Z" stroke="white" stroke-width="1.5" stroke-linecap="round" stroke-linejoin="round"/>
<path d="M21.3036 8.86854C23.1283 10.6933 23.1283 13.6517 21.3036 15.4765C19.4789 17.3012 16.5204 17.3012 14.6957 15.4765C12.871 13.6517 12.871 10.6933 14.6957 8.86854C16.5204 7.04382 19.4789 7.04382 21.3036 8.86854Z" stroke="white" stroke-width="1.5" stroke-linecap="round" stroke-linejoin="round"/>
<path d="M9.10306 14.2853C10.2881 15.4703 10.2881 17.3916 9.10306 18.5767C7.91802 19.7617 5.99668 19.7617 4.81164 18.5767C3.62659 17.3916 3.62659 15.4703 4.81164 14.2853C5.99668 13.1002 7.91802 13.1002 9.10306 14.2853Z" stroke="white" stroke-width="1.5" stroke-linecap="round" stroke-linejoin="round"/>
<path d="M34.5003 28.5V26.856C34.5003 24.7845 32.8218 23.106 30.7503 23.106H29.5488" stroke="white" stroke-width="1.5" stroke-linecap="round" stroke-linejoin="round"/>
<path d="M1.5 28.5V26.856C1.5 24.7845 3.1785 23.106 5.25 23.106H6.4515" stroke="white" stroke-width="1.5" stroke-linecap="round" stroke-linejoin="round"/>
<path d="M26.0087 28.4999V26.0984C26.0087 23.1989 23.6582 20.8484 20.7587 20.8484H15.2402C12.3407 20.8484 9.99023 23.1989 9.99023 26.0984V28.4999" stroke="white" stroke-width="1.5" stroke-linecap="round" stroke-linejoin="round"/>
</svg>
