<svg width="120" height="120" viewBox="0 0 120 120" fill="none" xmlns="http://www.w3.org/2000/svg">
<path d="M66.1502 73.95L66.1002 73.9C69.5002 77.3 69.5002 82.85 66.1002 86.25C62.6502 89.65 57.1002 89.65 53.7002 86.25C50.2502 82.8 50.2502 77.25 53.6502 73.85C53.6502 73.8 53.6502 73.8 53.6502 73.8H53.6002C57.0002 70.35 62.5502 70.35 65.9502 73.75" stroke="white" stroke-width="1.5" stroke-linecap="round" stroke-linejoin="round"/>
<path d="M88.6503 51.45C92.0503 54.85 92.0503 60.4 88.6003 63.8C85.1503 67.2 79.6003 67.2 76.2003 63.75C72.7503 60.3 72.7503 54.75 76.2003 51.35H76.1503C79.5503 47.9 85.1003 47.9 88.5003 51.3" stroke="white" stroke-width="1.5" stroke-linecap="round" stroke-linejoin="round"/>
<path d="M105 65V26.25C105 20 99.9502 15 93.7502 15H26.2502H26.2002C19.9502 15 14.9502 20 14.9502 26.25V65" stroke="white" stroke-width="1.5" stroke-linecap="round" stroke-linejoin="round"/>
<path d="M85 80V79.95C90.4 79.9 95.65 81.65 100 84.95" stroke="white" stroke-width="1.5" stroke-linecap="round" stroke-linejoin="round"/>
<path d="M46.25 58.75C46.25 63.55 42.3 67.5 37.5 67.5C32.65 67.5 28.75 63.55 28.75 58.75C28.75 53.9 32.65 50 37.5 50H37.45C42.25 49.95 46.2 53.9 46.2 58.7" stroke="white" stroke-width="1.5" stroke-linecap="round" stroke-linejoin="round"/>
<path d="M20 85V84.95C24.2 81.7 29.4 80 34.7 80" stroke="white" stroke-width="1.5" stroke-linecap="round" stroke-linejoin="round"/>
<path d="M75 105C66.1 98.3 53.85 98.3 45 104.95" stroke="white" stroke-width="1.5" stroke-linecap="round" stroke-linejoin="round"/>
</svg>
