<svg width="32" height="32" viewBox="0 0 32 32" fill="none" xmlns="http://www.w3.org/2000/svg">
<path d="M14.4744 17.5253C12.999 16.0637 11.8065 14.3418 10.9571 12.4466C10.879 12.2618 10.8583 12.0578 10.8978 11.8611C10.9373 11.6645 11.0351 11.4842 11.1784 11.3439L12.2664 10.2533C12.472 10.0706 12.6385 9.84838 12.756 9.5998C12.8734 9.35123 12.9394 9.08147 12.95 8.80674C12.9606 8.53201 12.9155 8.25797 12.8176 8.00109C12.7196 7.74422 12.5707 7.5098 12.3798 7.31192L10.8184 5.74658C10.3184 5.24666 9.64022 4.96582 8.93311 4.96582C8.22601 4.96582 7.54786 5.24666 7.04778 5.74658L6.17845 6.61592C5.69133 7.11266 5.33334 7.72119 5.13577 8.38827C4.9382 9.05536 4.90708 9.76069 5.04511 10.4426C5.94351 14.4731 8.0128 18.1483 10.9931 21.0066C13.8514 23.9869 17.5266 26.0562 21.5571 26.9546C22.239 27.0926 22.9443 27.0615 23.6114 26.8639C24.2785 26.6664 24.887 26.3084 25.3838 25.8212L26.2518 24.9532C26.7517 24.4532 27.0325 23.775 27.0325 23.0679C27.0325 22.3608 26.7517 21.6827 26.2518 21.1826L24.6878 19.6186C24.3127 19.2436 23.8041 19.033 23.2738 19.033C22.7435 19.033 22.2348 19.2436 21.8598 19.6186L20.6598 20.8186C20.5195 20.962 20.3392 21.0597 20.1426 21.0992C19.9459 21.1387 19.7419 21.118 19.5571 21.0399C17.6621 20.1891 15.9403 18.9958 14.4784 17.5199L14.4744 17.5253Z" stroke="white" stroke-width="1.5" stroke-linecap="round" stroke-linejoin="round"/>
</svg>
