<svg width="54" height="53" viewBox="0 0 54 53" fill="none" xmlns="http://www.w3.org/2000/svg">
<g clip-path="url(#clip0_556_2680)">
<path d="M52.0203 26.3165C52.0203 40.1948 40.7432 51.4493 26.8274 51.4493C12.9116 51.4493 1.63452 40.1948 1.63452 26.3165C1.63452 12.4381 12.9116 1.18359 26.8274 1.18359C40.7432 1.18359 52.0203 12.4381 52.0203 26.3165Z" fill="black" fill-opacity="0.5" stroke="white" stroke-width="2"/>
<path d="M24.6232 19.985L33.3671 25.1462C33.6199 25.2952 33.8293 25.5074 33.9749 25.7618C34.1204 26.0162 34.1969 26.304 34.1969 26.5969C34.1969 26.8898 34.1204 27.1777 33.9749 27.4321C33.8293 27.6865 33.6199 27.8986 33.3671 28.0476L24.6232 33.2056C24.3666 33.3571 24.0744 33.4382 23.7762 33.4405C23.478 33.4429 23.1845 33.3665 22.9255 33.219C22.6665 33.0716 22.4512 32.8583 22.3016 32.601C22.1519 32.3437 22.0732 32.0514 22.0734 31.7539V21.4367C22.0732 21.1392 22.1519 20.8469 22.3016 20.5896C22.4512 20.3322 22.6665 20.119 22.9255 19.9716C23.1845 19.8241 23.478 19.7477 23.7762 19.7501C24.0744 19.7524 24.3666 19.8335 24.6232 19.985Z" fill="white"/>
</g>
<defs>
<clipPath id="clip0_556_2680">
<rect width="52.3858" height="52.2657" fill="white" transform="translate(0.634521 0.183594)"/>
</clipPath>
</defs>
</svg>
