<svg width="160" height="160" viewBox="0 0 160 160" fill="none" xmlns="http://www.w3.org/2000/svg">
<path d="M126.663 20H19.9967C16.3148 20 13.3301 22.9848 13.3301 26.6667V33.3333C13.3301 37.0152 16.3148 40 19.9967 40H126.663C130.345 40 133.33 37.0152 133.33 33.3333V26.6667C133.33 22.9848 130.345 20 126.663 20Z" stroke="white" stroke-width="1.5" stroke-linecap="round" stroke-linejoin="round"/>
<path d="M79.9983 120H33.3316L33.265 119.993C25.865 119.927 19.9316 113.993 19.9316 106.593V39.9268H126.598" stroke="white" stroke-width="1.5" stroke-linecap="round" stroke-linejoin="round"/>
<path d="M46.665 66.6669H79.9984" stroke="white" stroke-width="1.5" stroke-linecap="round" stroke-linejoin="round"/>
<path d="M46.665 86.6669H59.9984" stroke="white" stroke-width="1.5" stroke-linecap="round" stroke-linejoin="round"/>
<path d="M119.331 56.6669C116.679 56.6669 114.135 57.7204 112.26 59.5958C110.385 61.4712 109.331 64.0147 109.331 66.6669C109.331 69.319 110.385 71.8626 112.26 73.7379C114.135 75.6133 116.679 76.6669 119.331 76.6669C121.983 76.6669 124.527 75.6133 126.402 73.7379C128.277 71.8626 129.331 69.319 129.331 66.6669C129.331 64.0147 128.277 61.4712 126.402 59.5958C124.527 57.7204 121.983 56.6669 119.331 56.6669Z" stroke="white" stroke-width="1.5" stroke-linecap="round" stroke-linejoin="round"/>
<path d="M114.661 146.667H125.328C128.794 146.867 131.728 144.2 131.994 140.733C131.994 140.467 131.994 140.2 131.928 139.933V124.6L138.594 116.6V116.533C139.328 115.267 139.728 113.933 139.861 112.533V99.8668V99.8002C140.061 96.2668 137.394 93.3335 133.928 93.1335C133.661 93.0668 133.394 93.0668 133.128 93.1335H106.461L106.394 93.1268C102.861 92.8602 99.9277 95.5268 99.7277 98.9935C99.6611 99.1935 99.6611 99.4602 99.7277 99.7268V112.393C99.8611 113.793 100.261 115.127 101.061 116.393L107.728 124.393V139.66H107.661C107.394 143.127 110.061 146.06 113.528 146.26C113.728 146.26 113.994 146.26 114.261 146.193L114.661 146.667Z" stroke="white" stroke-width="1.5" stroke-linecap="round" stroke-linejoin="round"/>
</svg>
