<svg width="19" height="21" viewBox="0 0 19 21" fill="none" xmlns="http://www.w3.org/2000/svg">
<path d="M3.894 0.381901L17.247 8.2819C17.633 8.50994 17.9529 8.83467 18.1752 9.22406C18.3974 9.61345 18.5143 10.0541 18.5143 10.5024C18.5143 10.9507 18.3974 11.3913 18.1752 11.7807C17.9529 12.1701 17.633 12.4949 17.247 12.7229L3.894 20.6179C3.5021 20.8498 3.0558 20.9739 2.60043 20.9775C2.14506 20.9811 1.69685 20.8641 1.30133 20.6384C0.905804 20.4127 0.577065 20.0864 0.348504 19.6925C0.119943 19.2986 -0.000296709 18.8513 5.49831e-07 18.3959V2.6039C-0.000296709 2.14852 0.119943 1.70117 0.348504 1.30729C0.577065 0.913423 0.905804 0.587064 1.30133 0.361371C1.69685 0.135678 2.14506 0.0186919 2.60043 0.0222977C3.0558 0.0259036 3.5021 0.149972 3.894 0.381901Z" fill="white"/>
</svg>
