<svg width="84" height="74" viewBox="0 0 84 74" fill="none" xmlns="http://www.w3.org/2000/svg">
<path d="M25.3832 54.9998V63.3075H58.6107V21.769H11.5385V63.3075" stroke="white" stroke-width="2" stroke-miterlimit="10" stroke-linecap="square"/>
<path d="M82.1459 61.9231V12.0769C82.1459 9.13914 80.979 6.32168 78.9019 4.24436C76.8248 2.16703 74.0076 1 71.0701 1H68.3011V50.8462H70.6547C73.2547 50.798 75.7922 51.6446 77.8425 53.2441C79.8929 54.8437 81.3315 57.0992 81.9175 59.6329C82.2562 61.2469 82.2307 62.9162 81.8428 64.5191C81.4549 66.122 80.7144 67.6182 79.6752 68.8987C78.6361 70.1793 77.3244 71.2119 75.8358 71.9214C74.3472 72.6308 72.7191 72.9993 71.0701 73H1.84619V12.0769H61.3787" stroke="white" stroke-width="2" stroke-miterlimit="10"/>
<path d="M36.4569 21.769V41.1537H25.3811" stroke="white" stroke-width="2" stroke-miterlimit="10" stroke-linecap="square"/>
</svg>
