<svg width="32" height="32" viewBox="0 0 32 32" fill="none" xmlns="http://www.w3.org/2000/svg">
<g clip-path="url(#clip0_596_2017)">
<path fill-rule="evenodd" clip-rule="evenodd" d="M9.99467 4H22.0067C22.7938 4 23.5733 4.15507 24.3005 4.45634C25.0278 4.75762 25.6885 5.1992 26.2451 5.75588C26.8016 6.31255 27.2431 6.97341 27.5442 7.70071C27.8453 8.42801 28.0002 9.2075 28 9.99467V22.0067C28 22.7938 27.8449 23.5733 27.5437 24.3005C27.2424 25.0278 26.8008 25.6885 26.2441 26.2451C25.6874 26.8016 25.0266 27.2431 24.2993 27.5442C23.572 27.8453 22.7925 28.0002 22.0053 28H9.99467C9.20739 28.0002 8.42779 27.8452 7.7004 27.544C6.97301 27.2428 6.3121 26.8013 5.75541 26.2446C5.19872 25.6879 4.75716 25.027 4.45596 24.2996C4.15476 23.5722 3.99982 22.7926 4 22.0053V9.99467C3.99982 9.20739 4.15476 8.42779 4.45596 7.7004C4.75716 6.97301 5.19872 6.3121 5.75541 5.75541C6.3121 5.19872 6.97301 4.75716 7.7004 4.45596C8.42779 4.15476 9.20739 3.99982 9.99467 4V4Z" stroke="white" stroke-width="1.5" stroke-linecap="round" stroke-linejoin="round"/>
<path d="M22.5992 8.95045C22.5373 8.94586 22.475 8.95413 22.4165 8.97472C22.3579 8.99531 22.3042 9.02779 22.2587 9.07011C22.2133 9.11244 22.1771 9.1637 22.1524 9.22068C22.1277 9.27766 22.1151 9.33912 22.1152 9.40122C22.1154 9.46332 22.1284 9.52471 22.1535 9.58154C22.1785 9.63837 22.215 9.68942 22.2607 9.73147C22.3064 9.77353 22.3603 9.80569 22.419 9.82593C22.4777 9.84618 22.5399 9.85407 22.6018 9.84912C22.715 9.84006 22.8206 9.78862 22.8975 9.70509C22.9744 9.62156 23.0169 9.51208 23.0166 9.39855C23.0162 9.28502 22.9731 9.1758 22.8957 9.09272C22.8183 9.00964 22.7124 8.95883 22.5992 8.95045" stroke="white" stroke-width="1.5" stroke-linecap="round" stroke-linejoin="round"/>
<path fill-rule="evenodd" clip-rule="evenodd" d="M19.3947 12.6053C19.8405 13.0511 20.1941 13.5804 20.4353 14.1628C20.6766 14.7453 20.8008 15.3696 20.8008 16C20.8008 16.6305 20.6766 17.2547 20.4353 17.8372C20.1941 18.4196 19.8405 18.9489 19.3947 19.3947C18.9489 19.8405 18.4196 20.1941 17.8372 20.4353C17.2547 20.6766 16.6305 20.8008 16 20.8008C15.3696 20.8008 14.7453 20.6766 14.1628 20.4353C13.5804 20.1941 13.0511 19.8405 12.6053 19.3947C11.705 18.4943 11.1992 17.2732 11.1992 16C11.1992 14.7268 11.705 13.5057 12.6053 12.6053C13.5057 11.705 14.7268 11.1992 16 11.1992C17.2732 11.1992 18.4943 11.705 19.3947 12.6053Z" stroke="white" stroke-width="1.5" stroke-linecap="round" stroke-linejoin="round"/>
</g>
<defs>
<clipPath id="clip0_596_2017">
<rect width="32" height="32" fill="white"/>
</clipPath>
</defs>
</svg>
