<svg width="218" height="224" viewBox="0 0 218 224" fill="none" xmlns="http://www.w3.org/2000/svg">
<path d="M204.169 131.256L204.169 131.256C208.459 129.18 211.547 125.004 213.006 120.401C214.884 114.477 213.944 107.424 209.519 103.223L204.169 131.256ZM204.169 131.256C199.762 133.388 194.473 133.164 189.702 131.706C179.791 128.677 171.793 120.613 167.676 111.05C165.441 105.856 164.303 100.178 164.108 94.5198C164.092 94.0547 164.074 93.5854 164.056 93.1128M204.169 131.256L164.056 93.1128M192.11 92.7157L192.11 92.7157C190.996 91.3989 190.195 89.8944 189.477 88.3824C189.263 87.9315 189.057 87.4827 188.853 87.0373C188.364 85.9705 187.884 84.9237 187.319 83.9169L187.319 83.9168C185.367 80.4346 182.399 77.5277 178.876 75.6495L192.11 92.7157ZM192.11 92.7157C194.396 95.4173 197.61 96.9003 200.775 98.2764M192.11 92.7157L200.775 98.2764M164.056 93.1128C163.894 88.8495 163.721 84.3253 164.835 80.2977L164.056 93.1128ZM200.775 98.2764C200.972 98.3619 201.169 98.447 201.365 98.532M200.775 98.2764L201.365 98.532M201.365 98.532C204.362 99.83 207.272 101.091 209.519 103.223L201.365 98.532ZM173.273 73.9299C171.264 73.7382 169.321 74.0471 167.829 75.1264C166.691 75.9499 165.923 77.2432 165.381 78.6418L173.273 73.9299ZM173.273 73.9299C175.279 74.1213 177.297 74.8079 178.876 75.6494L173.273 73.9299ZM164.835 80.2975C164.991 79.7336 165.171 79.1814 165.381 78.6419L164.835 80.2975Z" fill="#0F0F0F" stroke="white"/>
<path d="M25.412 104.588C25.412 105.742 24.4769 106.677 23.3235 106.677C22.17 106.677 21.2349 105.742 21.2349 104.588C21.2349 103.435 22.17 102.5 23.3235 102.5C24.4769 102.5 25.412 103.435 25.412 104.588Z" fill="#0F0F0F" stroke="white"/>
<path d="M37.1441 104.588C37.1441 105.742 36.209 106.677 35.0555 106.677C33.902 106.677 32.9669 105.742 32.9669 104.588C32.9669 103.435 33.902 102.5 35.0555 102.5C36.209 102.5 37.1441 103.435 37.1441 104.588Z" fill="#0F0F0F" stroke="white"/>
<path d="M48.8754 104.588C48.8754 105.742 47.9403 106.677 46.7868 106.677C45.6334 106.677 44.6983 105.742 44.6983 104.588C44.6983 103.435 45.6334 102.5 46.7868 102.5C47.9403 102.5 48.8754 103.435 48.8754 104.588Z" fill="#0F0F0F" stroke="white"/>
<path d="M60.6075 104.588C60.6075 105.742 59.6724 106.677 58.5189 106.677C57.3654 106.677 56.4303 105.742 56.4303 104.588C56.4303 103.435 57.3654 102.5 58.5189 102.5C59.6724 102.5 60.6075 103.435 60.6075 104.588Z" fill="#0F0F0F" stroke="white"/>
<path d="M23.6623 111.838C24.8006 112.024 25.5725 113.098 25.3864 114.236C25.2002 115.375 24.1264 116.147 22.9881 115.96C21.8497 115.774 21.0778 114.701 21.264 113.562C21.4501 112.424 22.5239 111.652 23.6623 111.838Z" fill="#0F0F0F" stroke="white"/>
<path d="M35.3928 111.838C36.5314 112.023 37.3046 113.096 37.1199 114.234C36.9351 115.373 35.8623 116.146 34.7236 115.961C33.585 115.777 32.8118 114.704 32.9966 113.565C33.1814 112.427 34.2542 111.653 35.3928 111.838Z" fill="#0F0F0F" stroke="white"/>
<path d="M47.1256 111.838C48.264 112.024 49.0359 113.098 48.8498 114.236C48.6636 115.374 47.5898 116.146 46.4515 115.96C45.3131 115.774 44.5412 114.7 44.7273 113.562C44.9135 112.423 45.9873 111.651 47.1256 111.838Z" fill="#0F0F0F" stroke="white"/>
<path d="M58.8577 111.838C59.9961 112.024 60.768 113.098 60.5818 114.236C60.3956 115.374 59.3219 116.146 58.1835 115.96C57.0451 115.774 56.2732 114.7 56.4594 113.562C56.6456 112.423 57.7193 111.651 58.8577 111.838Z" fill="#0F0F0F" stroke="white"/>
<path d="M23.6623 121.15C24.8006 121.336 25.5725 122.41 25.3864 123.549C25.2002 124.687 24.1264 125.459 22.9881 125.273C21.8497 125.087 21.0778 124.013 21.264 122.874C21.4501 121.736 22.5239 120.964 23.6623 121.15Z" fill="#0F0F0F" stroke="white"/>
<path d="M35.3928 121.151C36.5314 121.336 37.3046 122.409 37.1199 123.547C36.9351 124.686 35.8622 125.459 34.7236 125.274C33.585 125.09 32.8118 124.017 32.9966 122.878C33.1814 121.74 34.2542 120.966 35.3928 121.151Z" fill="#0F0F0F" stroke="white"/>
<path d="M47.1256 121.15C48.264 121.336 49.0359 122.41 48.8497 123.548C48.6636 124.687 47.5898 125.459 46.4515 125.272C45.3131 125.086 44.5412 124.013 44.7273 122.874C44.9135 121.736 45.9873 120.964 47.1256 121.15Z" fill="#0F0F0F" stroke="white"/>
<path d="M58.8577 121.15C59.9961 121.336 60.768 122.41 60.5818 123.548C60.3956 124.687 59.3219 125.459 58.1835 125.272C57.0451 125.086 56.2732 124.013 56.4594 122.874C56.6456 121.736 57.7193 120.964 58.8577 121.15Z" fill="#0F0F0F" stroke="white"/>
<path d="M25.2485 131.714C25.6965 132.777 25.1981 134.002 24.1351 134.45C23.0722 134.898 21.8473 134.4 21.3993 133.337C20.9513 132.274 21.4498 131.049 22.5127 130.601C23.5757 130.153 24.8005 130.651 25.2485 131.714Z" fill="#0F0F0F" stroke="white"/>
<path d="M36.9879 131.726C37.4293 132.792 36.9232 134.013 35.8575 134.455C34.7918 134.896 33.5701 134.39 33.1286 133.324C32.6872 132.259 33.1932 131.037 34.2589 130.596C35.3246 130.154 36.5464 130.66 36.9879 131.726Z" fill="#0F0F0F" stroke="white"/>
<path d="M48.7126 131.715C49.1607 132.777 48.6622 134.002 47.5992 134.45C46.5363 134.898 45.3114 134.4 44.8634 133.337C44.4154 132.274 44.9139 131.049 45.9768 130.601C47.0398 130.153 48.2646 130.652 48.7126 131.715Z" fill="#0F0F0F" stroke="white"/>
<path d="M60.444 131.715C60.892 132.777 60.3935 134.002 59.3306 134.45C58.2676 134.898 57.0428 134.4 56.5947 133.337C56.1467 132.274 56.6452 131.049 57.7082 130.601C58.7711 130.153 59.996 130.652 60.444 131.715Z" fill="#0F0F0F" stroke="white"/>
<path d="M25.2485 141.026C25.6965 142.089 25.1981 143.314 24.1351 143.762C23.0722 144.21 21.8473 143.711 21.3993 142.648C20.9513 141.585 21.4498 140.36 22.5127 139.912C23.5757 139.464 24.8005 139.963 25.2485 141.026Z" fill="#0F0F0F" stroke="white"/>
<path d="M36.9879 141.038C37.4293 142.104 36.9232 143.325 35.8575 143.767C34.7918 144.208 33.5701 143.702 33.1286 142.637C32.6872 141.571 33.1932 140.349 34.2589 139.908C35.3246 139.466 36.5464 139.972 36.9879 141.038Z" fill="#0F0F0F" stroke="white"/>
<path d="M48.7126 141.026C49.1607 142.089 48.6622 143.314 47.5992 143.762C46.5363 144.21 45.3114 143.711 44.8634 142.648C44.4154 141.585 44.9139 140.36 45.9768 139.912C47.0398 139.464 48.2646 139.963 48.7126 141.026Z" fill="#0F0F0F" stroke="white"/>
<path d="M60.444 141.026C60.892 142.089 60.3935 143.314 59.3306 143.762C58.2676 144.21 57.0428 143.711 56.5947 142.648C56.1467 141.585 56.6452 140.36 57.7082 139.912C58.7711 139.464 59.996 139.963 60.444 141.026Z" fill="#0F0F0F" stroke="white"/>
<path d="M25.412 151.148C25.412 152.302 24.4769 153.237 23.3235 153.237C22.17 153.237 21.2349 152.302 21.2349 151.148C21.2349 149.995 22.17 149.06 23.3235 149.06C24.4769 149.06 25.412 149.995 25.412 151.148Z" fill="#0F0F0F" stroke="white"/>
<path d="M37.1441 151.148C37.1441 152.302 36.209 153.237 35.0555 153.237C33.902 153.237 32.9669 152.302 32.9669 151.148C32.9669 149.995 33.902 149.06 35.0555 149.06C36.209 149.06 37.1441 149.995 37.1441 151.148Z" fill="#0F0F0F" stroke="white"/>
<path d="M48.8754 151.148C48.8754 152.302 47.9403 153.237 46.7868 153.237C45.6334 153.237 44.6983 152.302 44.6983 151.148C44.6983 149.995 45.6334 149.06 46.7868 149.06C47.9403 149.06 48.8754 149.995 48.8754 151.148Z" fill="#0F0F0F" stroke="white"/>
<path d="M60.6075 151.148C60.6075 152.302 59.6724 153.237 58.5189 153.237C57.3654 153.237 56.4303 152.302 56.4303 151.148C56.4303 149.995 57.3654 149.06 58.5189 149.06C59.6724 149.06 60.6075 149.995 60.6075 151.148Z" fill="#0F0F0F" stroke="white"/>
<path d="M25.412 160.461C25.412 161.614 24.4769 162.549 23.3235 162.549C22.17 162.549 21.2349 161.614 21.2349 160.461C21.2349 159.307 22.17 158.372 23.3235 158.372C24.4769 158.372 25.412 159.307 25.412 160.461Z" fill="#0F0F0F" stroke="white"/>
<path d="M37.1441 160.461C37.1441 161.614 36.209 162.549 35.0555 162.549C33.902 162.549 32.9669 161.614 32.9669 160.461C32.9669 159.307 33.902 158.372 35.0555 158.372C36.209 158.372 37.1441 159.307 37.1441 160.461Z" fill="#0F0F0F" stroke="white"/>
<path d="M48.8754 160.461C48.8754 161.614 47.9403 162.549 46.7868 162.549C45.6334 162.549 44.6983 161.614 44.6983 160.461C44.6983 159.307 45.6334 158.372 46.7868 158.372C47.9403 158.372 48.8754 159.307 48.8754 160.461Z" fill="#0F0F0F" stroke="white"/>
<path d="M60.6075 160.461C60.6075 161.614 59.6724 162.549 58.5189 162.549C57.3654 162.549 56.4303 161.614 56.4303 160.461C56.4303 159.307 57.3654 158.372 58.5189 158.372C59.6724 158.372 60.6075 159.307 60.6075 160.461Z" fill="#0F0F0F" stroke="white"/>
<path d="M161.079 149.971C168.333 163.879 169.369 180.254 169.389 196.115L170.363 196.274C173.595 186.675 178.804 177.661 185.453 170.008C185.87 182.924 183.2 195.934 177.72 207.639L178.511 208.22C185.13 202.154 193.316 197.796 201.97 195.332C199.351 201.179 196.144 207.821 192.07 213.1C187.767 218.676 182.569 222.638 176.156 222.638H161.58C159.363 216.486 158.159 209.315 157.041 202.65C156.886 201.727 156.733 200.814 156.578 199.915C153.756 183.435 157.295 166.416 161.079 149.971Z" fill="#0F0F0F" stroke="white"/>
<path d="M50.5485 172.767L53.4965 192.432L4.41646 199.791L1.46979 180.135L1.50641 180.105L2.22649 179.511C2.84726 178.998 3.73495 178.266 4.80258 177.387C6.93789 175.629 9.79278 173.282 12.6714 170.929C15.5504 168.577 18.4519 166.218 20.6809 164.436C21.7958 163.545 22.7402 162.799 23.4287 162.271C23.7735 162.006 24.0506 161.799 24.2514 161.656C24.3313 161.599 24.3961 161.554 24.4464 161.521C24.4924 161.533 24.551 161.551 24.6233 161.574C24.8415 161.643 25.1486 161.754 25.5364 161.902C26.3099 162.198 27.3781 162.633 28.644 163.163C31.1745 164.222 34.479 165.655 37.7622 167.094C41.0447 168.534 44.3036 169.98 46.7421 171.066C47.9612 171.61 48.9752 172.063 49.6844 172.38C50.0389 172.539 50.3173 172.663 50.507 172.748L50.5485 172.767ZM24.5403 161.463C24.5402 161.463 24.5387 161.464 24.5357 161.466C24.5389 161.464 24.5403 161.463 24.5403 161.463Z" fill="#0F0F0F" stroke="white"/>
<path d="M44.4212 36.9215L44.4212 36.9219C44.4957 37.4213 44.9606 37.7654 45.4612 37.6907L82.0014 32.2115L44.4212 36.9215ZM44.4212 36.9215L39.9393 7.02952M44.4212 36.9215L39.9393 7.02952M39.9393 7.02952C39.9393 7.02948 39.9393 7.02945 39.9393 7.02941C39.8647 6.52886 40.2087 6.06409 40.7082 5.98959L40.7085 5.98953L77.2492 0.510244M39.9393 7.02952L77.2492 0.510244M77.2492 0.510244C77.2493 0.510231 77.2493 0.510217 77.2494 0.510204C77.7499 0.43569 78.2146 0.779733 78.2891 1.27912L78.2892 1.27948M77.2492 0.510244L78.2892 1.27948M78.2892 1.27948L82.7711 31.1716M78.2892 1.27948L82.7711 31.1716M82.7711 31.1716C82.8455 31.6701 82.5014 32.1359 82.0018 32.2115L82.7711 31.1716Z" fill="#0F0F0F" stroke="white"/>
<path d="M44.4486 12.1788C44.2895 12.2022 44.141 12.0933 44.1175 11.9331L43.936 10.72C43.9125 10.5609 44.0214 10.4125 44.1816 10.389L44.4486 12.1788ZM44.4486 12.1788L44.4061 11.8908L44.4059 11.89L44.3755 11.6841M44.4486 12.1788L44.4054 11.8909L44.4053 11.8901L44.3744 11.6843L44.3755 11.6841M44.3755 11.6841C44.4869 11.6677 44.5944 11.7443 44.612 11.8591L44.5812 11.6533L44.3755 11.6841ZM75.207 7.06126L75.2378 7.26737M75.207 7.06126L75.4868 7.5249L75.4424 7.23726M75.207 7.06126L75.4105 7.03075M75.2378 7.26737L75.2379 7.26786L75.4424 7.23726M75.2378 7.26737C75.2204 7.15048 75.3006 7.04771 75.4105 7.03075M75.2378 7.26737L75.4423 7.23697L75.4424 7.23726M75.4424 7.23726L75.4105 7.03075" fill="#0F0F0F" stroke="white"/>
<path d="M75.5546 9.38438L75.6745 10.185L45.0487 14.7771L44.9289 13.9764L75.5546 9.38438Z" fill="#0F0F0F" stroke="white"/>
<path d="M45.385 18.4273C45.2259 18.4508 45.0775 18.3419 45.054 18.1817L44.8724 16.9686C44.8489 16.8094 44.9578 16.661 45.118 16.6375L45.385 18.4273ZM45.385 18.4273L45.3425 18.1394L45.3424 18.1385L45.312 17.9327M45.385 18.4273L45.3418 18.1395L45.3417 18.1386L45.3109 17.9328L45.312 17.9327M45.312 17.9327C45.4233 17.9162 45.5308 17.9928 45.5485 18.1077L45.5176 17.9018L45.312 17.9327ZM76.1434 13.3098L76.1742 13.5159M76.1434 13.3098L76.4232 13.7734L76.3788 13.4858M76.1434 13.3098L76.3469 13.2793M76.1742 13.5159L76.1743 13.5164L76.3788 13.4858M76.1742 13.5159C76.1569 13.399 76.2371 13.2962 76.3469 13.2793M76.1742 13.5159L76.3787 13.4855L76.3788 13.4858M76.3788 13.4858L76.3469 13.2793" fill="#0F0F0F" stroke="white"/>
<path d="M76.4925 15.6324L76.6123 16.4331L45.9866 21.0251L45.8668 20.2244L76.4925 15.6324Z" fill="#0F0F0F" stroke="white"/>
<path d="M76.96 18.756L77.0798 19.5566L46.4541 24.1486L46.3343 23.348L76.96 18.756Z" fill="#0F0F0F" stroke="white"/>
<path d="M46.7904 27.7989C46.6313 27.8224 46.4828 27.7134 46.4593 27.5533L46.2778 26.3401C46.2543 26.181 46.3632 26.0326 46.5234 26.0091L46.7904 27.7989ZM46.7904 27.7989L46.7479 27.5109L46.7477 27.5101L46.7173 27.3042M46.7904 27.7989L46.7472 27.511L46.7471 27.5102L46.7162 27.3044L46.7173 27.3042M46.7173 27.3042C46.8287 27.2878 46.9362 27.3644 46.9538 27.4793L46.923 27.2734L46.7173 27.3042ZM77.5488 22.6814L77.5796 22.8875M77.5488 22.6814L77.8286 23.145L77.7842 22.8574M77.5488 22.6814L77.7523 22.6509M77.5796 22.8875L77.5797 22.888L77.7842 22.8574M77.5796 22.8875C77.5622 22.7706 77.6424 22.6678 77.7523 22.6509M77.5796 22.8875L77.7841 22.8571L77.7842 22.8574M77.7842 22.8574L77.7523 22.6509" fill="#0F0F0F" stroke="white"/>
<path d="M42.2772 53.5471L37.5636 22.1073C37.6345 22.139 37.7096 22.1726 37.7886 22.208C38.4649 22.5104 39.4332 22.9416 40.6018 23.457C42.9389 24.4878 46.078 25.8558 49.2848 27.204C52.4902 28.5517 55.769 29.8821 58.3836 30.8363C59.6897 31.3129 60.8391 31.699 61.7346 31.9464C62.1816 32.0698 62.5759 32.1617 62.9004 32.2119C63.1998 32.2583 63.5212 32.284 63.7729 32.2086C63.9719 32.1491 64.2275 32.0141 64.5 31.8523C64.7858 31.6828 65.1332 31.4575 65.53 31.1872C66.3245 30.6461 67.3363 29.9119 68.4843 29.0533C70.7814 27.3354 73.6402 25.107 76.4291 22.9011C79.2186 20.6947 81.9409 18.5085 83.9656 16.8741C84.978 16.0569 85.8161 15.3775 86.4012 14.9024C86.4854 14.834 86.5644 14.7698 86.638 14.71L91.3573 46.1882L91.3573 46.1884C91.4134 46.5614 91.1563 46.9101 90.7822 46.9662L43.0552 54.1221L43.0549 54.1222C42.682 54.1783 42.3333 53.9212 42.2772 53.5471Z" fill="#0F0F0F" stroke="white"/>
<path d="M52.9288 36.6804L53.3276 39.3416L42.8452 40.9129L42.4464 38.2517L52.9288 36.6804Z" fill="#0F0F0F" stroke="white"/>
<path d="M70.3142 34.8064C70.3292 34.9079 70.4232 34.9773 70.5246 34.9623L70.3142 34.8064ZM70.3142 34.8064L70.1605 33.778L70.3142 34.8064ZM86.6661 32.037L70.7622 34.4211L70.7015 34.0155L86.6055 31.6314L86.6661 32.037ZM70.3893 34.0623L70.3905 34.0621L70.3893 34.0623ZM86.5587 31.319L86.5589 31.32L86.5587 31.319Z" fill="#0F0F0F" stroke="white"/>
<path d="M86.9073 33.6526L86.968 34.0582L71.0641 36.4424L71.0034 36.0367L86.9073 33.6526ZM70.6912 36.0836L70.6924 36.0834L70.6912 36.0836ZM86.8606 33.3402L86.8608 33.3413L86.8606 33.3402Z" fill="#0F0F0F" stroke="white"/>
<path d="M70.9194 38.8482C70.9343 38.9496 71.0283 39.019 71.1298 39.0041L70.9194 38.8482ZM70.9194 38.8482L70.7656 37.8198L70.9194 38.8482ZM87.2712 36.0787L71.3673 38.4629L71.3067 38.0573L87.2106 35.6731L87.2712 36.0787ZM70.9944 38.1041L70.9956 38.1039L70.9944 38.1041ZM87.1639 35.3607L87.164 35.3618L87.1639 35.3607Z" fill="#0F0F0F" stroke="white"/>
<path d="M87.5138 37.6948L87.5745 38.1005L71.6706 40.4846L71.6099 40.079L87.5138 37.6948ZM71.2977 40.1258L71.2989 40.1256L71.2977 40.1258ZM87.4671 37.3825L87.4673 37.3835L87.4671 37.3825Z" fill="#0F0F0F" stroke="white"/>
<path d="M70.3343 206.618C62.3029 199.75 56.8252 189.965 55.1356 179.537C59.8769 183.497 64.2815 187.858 68.2886 192.56L69.1543 192.114C66.82 182.749 69.4693 172.949 72.3454 163.521C73.7593 166.145 75.1745 168.77 76.5897 171.396C78.1931 174.371 79.7966 177.346 81.3982 180.318C84.3368 185.771 87.2673 191.234 88.7201 197.168L88.7201 197.168C89.9967 202.381 90.095 207.81 90.1848 213.251C90.2112 214.843 90.2377 216.451 90.2641 218.058C90.2883 219.527 90.3124 220.996 90.3366 222.454H86.1416C74.2356 219.524 63.4609 212.557 56.2717 202.665C60.995 203.483 65.5786 205.101 69.766 207.434L70.3343 206.618Z" fill="#0F0F0F" stroke="white"/>
<path d="M209.877 177.384L209.952 177.794H210.369H215.824C216.235 177.794 216.567 178.127 216.567 178.536V178.537V186.989C216.567 187.4 216.234 187.732 215.824 187.732H210.369H209.952L209.877 188.142C209.13 192.211 207.54 196.052 205.19 199.457L204.954 199.8L205.248 200.094L209.105 203.951L209.106 203.952C209.396 204.241 209.396 204.711 209.105 205.002L203.128 210.979L203.128 210.979C202.839 211.269 202.369 211.27 202.078 210.979L198.221 207.122L197.926 206.827L197.583 207.064C194.178 209.414 190.337 211.004 186.268 211.751L185.858 211.826V212.242V217.697C185.858 218.108 185.526 218.44 185.115 218.44H176.663C176.252 218.44 175.92 218.108 175.92 217.697V212.242V211.826L175.51 211.751C171.442 211.004 167.6 209.414 164.195 207.064L163.852 206.827L163.558 207.122L159.701 210.979L159.7 210.979C159.411 211.269 158.941 211.27 158.65 210.979L152.673 205.002L152.673 205.002C152.383 204.712 152.382 204.242 152.673 203.951L156.53 200.094L156.825 199.8L156.588 199.457C154.238 196.052 152.648 192.21 151.901 188.142L151.826 187.732H151.41H145.955C145.544 187.732 145.212 187.4 145.212 186.989V178.537C145.212 178.126 145.544 177.794 145.955 177.794H151.41H151.826L151.901 177.384C152.648 173.314 154.238 169.474 156.588 166.069L156.825 165.726L156.53 165.431L152.673 161.574L152.673 161.574C152.383 161.285 152.382 160.814 152.673 160.524L158.65 154.547L158.65 154.546C158.94 154.256 159.41 154.256 159.701 154.547L163.558 158.404L163.852 158.698L164.195 158.462C167.6 156.112 171.442 154.522 175.51 153.775L175.92 153.7V153.283V147.828C175.92 147.418 176.252 147.085 176.663 147.085H185.115C185.526 147.085 185.858 147.418 185.858 147.828V153.283V153.7L186.268 153.775C190.338 154.522 194.178 156.112 197.583 158.462L197.926 158.698L198.221 158.404L202.078 154.547L202.078 154.546C202.367 154.256 202.838 154.256 203.128 154.547L209.105 160.524L209.106 160.524C209.396 160.813 209.396 161.283 209.105 161.574L205.248 165.431L204.954 165.726L205.19 166.069C207.54 169.474 209.13 173.315 209.877 177.384ZM210.369 188.232H215.824C216.51 188.232 217.067 187.676 217.067 186.989V178.537C217.068 177.85 216.51 177.294 215.824 177.294H210.369C209.609 173.156 207.992 169.248 205.602 165.785L209.459 161.928C209.945 161.442 209.945 160.655 209.459 160.17L203.482 154.193C202.996 153.707 202.209 153.707 201.724 154.193L197.867 158.05C194.404 155.66 190.497 154.043 186.358 153.283V147.828C186.358 147.142 185.802 146.585 185.115 146.585H176.663C175.976 146.585 175.42 147.142 175.42 147.828V153.283C171.282 154.043 167.374 155.66 163.911 158.05L160.054 154.193C159.568 153.707 158.781 153.707 158.296 154.193L152.319 160.17C151.834 160.656 151.834 161.443 152.319 161.928L156.177 165.785C153.787 169.248 152.169 173.155 151.41 177.294H145.955C145.268 177.294 144.712 177.85 144.712 178.537V186.989C144.712 187.676 145.268 188.232 145.955 188.232H210.369ZM160.369 182.762C160.369 194.078 169.575 203.283 180.89 203.283C192.206 203.283 201.41 194.078 201.41 182.762C201.41 171.446 192.205 162.242 180.89 162.242C169.574 162.242 160.369 171.446 160.369 182.762Z" fill="#0F0F0F" stroke="white"/>
<path d="M207.946 177.384L208.021 177.794H208.438H213.893C214.302 177.794 214.636 178.127 214.636 178.537V186.989C214.636 187.4 214.303 187.732 213.893 187.732H208.438H208.021L207.946 188.142C207.2 192.212 205.609 196.052 203.259 199.457L203.023 199.8L203.317 200.094L207.174 203.952L207.175 203.952C207.465 204.241 207.465 204.711 207.174 205.002L201.198 210.979L201.197 210.98C200.908 211.27 200.438 211.27 200.147 210.979L196.29 207.122L195.995 206.827L195.652 207.064C192.247 209.414 188.406 211.004 184.337 211.751L183.927 211.826V212.243V217.697C183.927 218.108 183.595 218.44 183.184 218.44H174.732C174.322 218.44 173.989 218.108 173.989 217.697V212.243V211.826L173.579 211.751C169.51 211.004 165.669 209.414 162.264 207.064L161.922 206.827L161.627 207.122L157.77 210.979L157.769 210.98C157.48 211.27 157.01 211.27 156.719 210.979L150.742 205.002L150.742 205.002C150.452 204.713 150.451 204.243 150.742 203.952L154.599 200.094L154.894 199.8L154.657 199.457C152.307 196.052 150.717 192.211 149.97 188.142L149.895 187.732H149.479H144.024C143.613 187.732 143.281 187.4 143.281 186.989V178.537C143.281 178.126 143.613 177.794 144.024 177.794H149.479H149.895L149.97 177.384C150.717 173.314 152.307 169.474 154.657 166.069L154.894 165.726L154.599 165.432L150.742 161.574L150.742 161.574C150.452 161.285 150.451 160.815 150.742 160.524L156.719 154.547L156.719 154.546C157.009 154.257 157.479 154.256 157.77 154.547L161.627 158.404L161.922 158.699L162.264 158.462C165.669 156.112 169.511 154.522 173.579 153.775L173.989 153.7V153.283V147.829C173.989 147.418 174.322 147.086 174.732 147.086H183.184C183.595 147.086 183.927 147.418 183.927 147.829V153.283V153.7L184.337 153.775C188.407 154.522 192.247 156.112 195.652 158.462L195.995 158.699L196.29 158.404L200.147 154.547L200.147 154.546C200.437 154.257 200.907 154.256 201.198 154.547L207.174 160.524L207.175 160.524C207.465 160.813 207.465 161.284 207.174 161.574L203.317 165.432L203.023 165.726L203.259 166.069C205.609 169.474 207.2 173.316 207.946 177.384ZM158.437 182.763C158.437 194.079 167.643 203.283 178.958 203.283C190.274 203.283 199.479 194.079 199.479 182.763C199.479 171.447 190.273 162.242 178.958 162.242C167.642 162.242 158.437 171.447 158.437 182.763Z" fill="#0F0F0F" stroke="white"/>
<mask id="mask0_304_2031" style="mask-type:luminance" maskUnits="userSpaceOnUse" x="142" y="146" width="74" height="73">
<path d="M207.945 177.385L208.02 177.794H208.436H213.891C214.301 177.794 214.634 178.127 214.634 178.537V186.99C214.634 187.4 214.302 187.733 213.891 187.733H208.436H208.02L207.945 188.143C207.198 192.212 205.608 196.052 203.258 199.457L203.021 199.8L203.316 200.095L207.173 203.952L207.173 203.953C207.463 204.242 207.464 204.712 207.173 205.003L201.196 210.98L201.196 210.98C200.906 211.27 200.436 211.271 200.145 210.98L196.288 207.123L195.994 206.828L195.651 207.065C192.246 209.414 188.404 211.005 184.336 211.751L183.926 211.827V212.243V217.698C183.926 218.108 183.593 218.441 183.183 218.441H174.731C174.32 218.441 173.988 218.108 173.988 217.698V212.243V211.827L173.578 211.751C169.508 211.005 165.668 209.414 162.263 207.065L161.92 206.828L161.625 207.123L157.768 210.98L157.768 210.98C157.479 211.27 157.008 211.271 156.718 210.98L150.741 205.003L150.74 205.002C150.45 204.713 150.45 204.243 150.741 203.952L154.598 200.095L154.892 199.8L154.656 199.457C152.306 196.052 150.716 192.211 149.969 188.143L149.894 187.733H149.477H144.022C143.612 187.733 143.279 187.4 143.279 186.99V178.537C143.279 178.127 143.612 177.794 144.022 177.794H149.477H149.894L149.969 177.385C150.716 173.315 152.306 169.475 154.656 166.07L154.892 165.727L154.598 165.432L150.741 161.575L150.74 161.575C150.45 161.285 150.45 160.815 150.741 160.524L156.718 154.547L156.718 154.547C157.007 154.257 157.477 154.257 157.768 154.547L161.625 158.405L161.92 158.699L162.263 158.463C165.668 156.113 169.509 154.522 173.578 153.776L173.988 153.701V153.284V147.829C173.988 147.419 174.32 147.086 174.731 147.086H183.183C183.593 147.086 183.926 147.419 183.926 147.829V153.284V153.701L184.336 153.776C188.405 154.522 192.246 156.113 195.651 158.463L195.994 158.699L196.288 158.405L200.145 154.547L200.146 154.547C200.435 154.257 200.905 154.257 201.196 154.547L207.173 160.524L207.173 160.525C207.463 160.814 207.464 161.284 207.173 161.575L203.316 165.432L203.021 165.727L203.258 166.07C205.608 169.475 207.198 173.316 207.945 177.385ZM158.436 182.763C158.436 194.079 167.641 203.284 178.956 203.284C190.272 203.284 199.477 194.079 199.477 182.763C199.477 171.447 190.271 162.242 178.956 162.242C167.64 162.242 158.436 171.447 158.436 182.763Z" fill="white" stroke="white"/>
</mask>
<g mask="url(#mask0_304_2031)">
<path d="M144.183 219.733V148.092L169.81 149.046L169.812 149.374L169.824 151.655C169.835 153.62 169.849 156.427 169.865 159.796C169.897 166.533 169.935 175.516 169.96 184.499C169.986 193.483 169.998 202.465 169.979 209.201C169.97 212.569 169.952 215.374 169.925 217.337C169.911 218.318 169.894 219.086 169.875 219.606C169.871 219.729 169.866 219.837 169.861 219.929C168.244 219.918 162.529 219.874 156.847 219.83L147.79 219.761L144.814 219.738L144.183 219.733Z" fill="#0F0F0F" stroke="white"/>
</g>
<path d="M163.301 222.454H87.9116C86.4396 222.454 85.2464 221.261 85.2464 219.789V85.9186C85.2464 84.4467 86.4396 83.2534 87.9116 83.2534H163.301C164.773 83.2534 165.967 84.4467 165.967 85.9186V219.789C165.966 221.261 164.772 222.454 163.301 222.454Z" fill="#0F0F0F" stroke="white"/>
<path d="M155.766 209.496H92.5604C91.3713 209.496 90.4067 208.532 90.4067 207.342V95.1073C90.4067 93.9182 91.3705 92.9536 92.5604 92.9536H155.766C156.955 92.9536 157.919 93.9174 157.919 95.1073V207.342C157.919 208.532 156.955 209.496 155.766 209.496Z" fill="#0F0F0F" stroke="white"/>
<mask id="mask1_304_2031" style="mask-type:luminance" maskUnits="userSpaceOnUse" x="89" y="92" width="70" height="118">
<path d="M155.765 209.496H92.5603C91.3712 209.496 90.4066 208.533 90.4066 207.343V95.1076C90.4066 93.9184 91.3704 92.9539 92.5603 92.9539H155.765C156.955 92.9539 157.919 93.9176 157.919 95.1076V207.343C157.919 208.533 156.955 209.496 155.765 209.496Z" fill="white" stroke="white"/>
</mask>
<g mask="url(#mask1_304_2031)">
<path d="M170.455 211.172H69.0748V193.267L69.4128 193.059C69.7902 192.827 70.3465 192.485 71.0618 192.046C72.4923 191.166 74.559 189.897 77.1035 188.335C82.1925 185.212 89.1926 180.921 96.8372 176.251C112.127 166.908 129.992 156.049 140.299 149.971C150.503 143.956 157.619 144.415 162.15 146.285C164.429 147.226 166.083 148.535 167.167 149.607C167.708 150.143 168.106 150.619 168.367 150.958C168.497 151.128 168.593 151.263 168.656 151.354C168.662 151.364 168.668 151.372 168.673 151.38L170.455 211.172Z" fill="#0F0F0F" stroke="white"/>
</g>
<path d="M139.545 99.1843C139.545 99.975 138.904 100.616 138.113 100.616C137.322 100.616 136.681 99.975 136.681 99.1843C136.681 98.3935 137.322 97.7524 138.113 97.7524C138.904 97.7524 139.545 98.3935 139.545 99.1843Z" fill="#0F0F0F" stroke="white"/>
<path d="M146.146 99.1843C146.146 99.975 145.505 100.616 144.714 100.616C143.923 100.616 143.282 99.975 143.282 99.1843C143.282 98.3935 143.923 97.7524 144.714 97.7524C145.505 97.7524 146.146 98.3935 146.146 99.1843Z" fill="#0F0F0F" stroke="white"/>
<path d="M152.746 99.1843C152.746 99.975 152.105 100.616 151.315 100.616C150.524 100.616 149.883 99.975 149.883 99.1843C149.883 98.3935 150.524 97.7524 151.315 97.7524C152.105 97.7524 152.746 98.3935 152.746 99.1843Z" fill="#0F0F0F" stroke="white"/>
<path d="M139.545 106.256C139.545 107.047 138.904 107.688 138.113 107.688C137.322 107.688 136.681 107.047 136.681 106.256C136.681 105.465 137.322 104.824 138.113 104.824C138.904 104.824 139.545 105.465 139.545 106.256Z" fill="#0F0F0F" stroke="white"/>
<path d="M146.146 106.256C146.146 107.047 145.505 107.688 144.714 107.688C143.923 107.688 143.282 107.047 143.282 106.256C143.282 105.465 143.923 104.824 144.714 104.824C145.505 104.824 146.146 105.465 146.146 106.256Z" fill="#0F0F0F" stroke="white"/>
<path d="M152.746 106.256C152.746 107.047 152.105 107.688 151.315 107.688C150.524 107.688 149.883 107.047 149.883 106.256C149.883 105.465 150.524 104.824 151.315 104.824C152.105 104.824 152.746 105.465 152.746 106.256Z" fill="#0F0F0F" stroke="white"/>
<path d="M139.442 112.777C139.745 113.507 139.398 114.345 138.667 114.647C137.937 114.95 137.099 114.603 136.797 113.872C136.494 113.142 136.841 112.304 137.572 112.002C138.302 111.699 139.14 112.046 139.442 112.777Z" fill="#0F0F0F" stroke="white"/>
<path d="M146.043 112.777C146.346 113.507 145.999 114.345 145.269 114.647C144.538 114.95 143.7 114.603 143.398 113.872C143.095 113.142 143.442 112.304 144.173 112.002C144.903 111.699 145.741 112.046 146.043 112.777Z" fill="#0F0F0F" stroke="white"/>
<path d="M151.65 111.947C152.42 112.129 152.896 112.9 152.715 113.67C152.533 114.439 151.762 114.916 150.992 114.734C150.223 114.552 149.746 113.781 149.928 113.012C150.109 112.242 150.881 111.766 151.65 111.947Z" fill="#0F0F0F" stroke="white"/>
<path d="M139.545 120.397C139.545 121.187 138.904 121.828 138.113 121.828C137.322 121.828 136.681 121.187 136.681 120.397C136.681 119.606 137.322 118.965 138.113 118.965C138.904 118.965 139.545 119.606 139.545 120.397Z" fill="#0F0F0F" stroke="white"/>
<path d="M146.146 120.397C146.146 121.187 145.505 121.828 144.714 121.828C143.923 121.828 143.282 121.187 143.282 120.397C143.282 119.606 143.923 118.965 144.714 118.965C145.505 118.965 146.146 119.606 146.146 120.397Z" fill="#0F0F0F" stroke="white"/>
<path d="M152.746 120.397C152.746 121.187 152.105 121.828 151.315 121.828C150.524 121.828 149.883 121.187 149.883 120.397C149.883 119.606 150.524 118.965 151.315 118.965C152.105 118.965 152.746 119.606 152.746 120.397Z" fill="#0F0F0F" stroke="white"/>
<path d="M139.545 127.468C139.545 128.258 138.904 128.9 138.113 128.9C137.322 128.9 136.681 128.258 136.681 127.468C136.681 126.677 137.322 126.036 138.113 126.036C138.904 126.036 139.545 126.677 139.545 127.468Z" fill="#0F0F0F" stroke="white"/>
<path d="M146.146 127.468C146.146 128.258 145.505 128.9 144.714 128.9C143.923 128.9 143.282 128.258 143.282 127.468C143.282 126.677 143.923 126.036 144.714 126.036C145.505 126.036 146.146 126.677 146.146 127.468Z" fill="#0F0F0F" stroke="white"/>
<path d="M152.746 127.468C152.746 128.258 152.105 128.9 151.315 128.9C150.524 128.9 149.883 128.258 149.883 127.468C149.883 126.677 150.524 126.036 151.315 126.036C152.105 126.036 152.746 126.677 152.746 127.468Z" fill="#0F0F0F" stroke="white"/>
<path d="M186.795 166.845H171.64C170.57 166.845 169.702 165.977 169.702 164.907V163.552C169.702 162.481 170.57 161.614 171.64 161.614H186.795C187.865 161.614 188.733 162.481 188.733 163.552V164.907C188.733 165.977 187.865 166.845 186.795 166.845Z" fill="#0F0F0F" stroke="white"/>
<path d="M164.166 51.997C164.172 51.9828 164.177 51.9688 164.182 51.955L164.338 51.5422L164.348 51.5144L161.328 51.4071L161.328 51.4074L161.327 51.4089L161.323 51.415L161.306 51.4398L161.24 51.5375C161.217 51.5712 161.191 51.6111 161.16 51.6569M164.166 51.997L161.16 51.6569M164.166 51.997C164.033 52.3507 163.847 52.8443 163.625 53.4343C163.162 54.6617 162.54 56.3059 161.907 57.9732C161.274 59.6406 160.629 61.3303 160.119 62.649C159.864 63.3085 159.643 63.874 159.474 64.2971C159.307 64.7151 159.202 64.9667 159.164 65.0453M164.166 51.997L164.679 52.055C163.791 54.4124 159.94 64.6297 159.603 65.284L159.164 65.0453M161.16 51.6569C161.113 51.728 161.056 51.8132 160.991 51.9114C160.777 52.2345 160.473 52.6981 160.114 53.2587C159.395 54.3806 158.458 55.8879 157.582 57.4346C156.702 58.9862 155.895 60.5578 155.426 61.8134C155.19 62.4451 155.051 62.9648 155.02 63.347C154.986 63.7587 155.086 63.8406 155.093 63.8458L154.805 64.2546L155.093 63.8457C155.986 64.4743 157.026 64.8895 157.873 65.0587C158.299 65.1437 158.649 65.1611 158.894 65.1282C159.095 65.1012 159.154 65.0528 159.164 65.0453M161.16 51.6569L159.164 65.0453M159.164 65.0453C159.162 65.049 159.16 65.0522 159.159 65.0551C159.162 65.0478 159.165 65.0445 159.165 65.0444C159.165 65.0443 159.164 65.0447 159.164 65.0453Z" fill="#0F0F0F" stroke="white"/>
<mask id="mask2_304_2031" style="mask-type:luminance" maskUnits="userSpaceOnUse" x="154" y="51" width="11" height="15">
<path d="M164.167 51.997C164.172 51.9828 164.178 51.9688 164.183 51.955L164.338 51.5422L164.349 51.5144L161.329 51.4071L161.328 51.4074L161.327 51.4089L161.323 51.415L161.306 51.4398L161.241 51.5375C161.218 51.5712 161.191 51.6111 161.161 51.6569M164.167 51.997L161.161 51.6569M164.167 51.997C164.034 52.3507 163.848 52.8443 163.625 53.4343C163.162 54.6617 162.541 56.3059 161.908 57.9732C161.275 59.6406 160.63 61.3303 160.12 62.649C159.865 63.3085 159.644 63.874 159.475 64.2971C159.308 64.7151 159.203 64.9667 159.164 65.0453M164.167 51.997L164.679 52.055C163.792 54.4124 159.941 64.6297 159.604 65.284L159.164 65.0453M161.161 51.6569C161.113 51.728 161.056 51.8132 160.991 51.9114C160.777 52.2345 160.473 52.6981 160.114 53.2587C159.395 54.3806 158.459 55.8879 157.582 57.4346C156.703 58.9862 155.896 60.5578 155.426 61.8134C155.19 62.4451 155.052 62.9648 155.02 63.347C154.987 63.7587 155.086 63.8406 155.094 63.8458L154.806 64.2546L155.093 63.8457C155.987 64.4743 157.026 64.8895 157.874 65.0587C158.299 65.1437 158.65 65.1611 158.895 65.1282C159.095 65.1012 159.155 65.0528 159.164 65.0453M161.161 51.6569L159.164 65.0453M159.164 65.0453C159.162 65.049 159.161 65.0522 159.159 65.0551C159.163 65.0478 159.166 65.0445 159.165 65.0444C159.165 65.0443 159.165 65.0447 159.164 65.0453Z" fill="white" stroke="white"/>
</mask>
<g mask="url(#mask2_304_2031)">
<path d="M165.435 52.2964C165.375 52.4922 165.301 52.7304 165.222 52.9801C165.052 53.5209 164.867 54.0846 164.745 54.4007C164.726 54.4048 164.704 54.4091 164.678 54.4135C164.5 54.4439 164.237 54.4638 163.902 54.4719C163.238 54.4881 162.365 54.4571 161.487 54.4073C160.611 54.3576 159.743 54.2898 159.092 54.2344C158.863 54.2149 158.66 54.1969 158.495 54.1818C158.496 54.1637 158.498 54.1453 158.499 54.1264C158.522 53.7984 158.556 53.3547 158.598 52.8905C158.64 52.4254 158.689 51.9442 158.744 51.54C158.781 51.2695 158.817 51.0577 158.849 50.912C158.851 50.9119 158.853 50.9119 158.855 50.9118C159.038 50.9053 159.314 50.9261 159.67 50.9749C160.374 51.0714 161.301 51.2639 162.234 51.4811C163.164 51.6976 164.088 51.9354 164.779 52.1195C165.033 52.187 165.256 52.2472 165.435 52.2964ZM164.829 54.3777C164.84 54.3715 164.843 54.3719 164.831 54.377C164.83 54.3772 164.829 54.3775 164.829 54.3777Z" fill="#0F0F0F" stroke="white"/>
</g>
<path d="M171.154 50.9158L171.154 50.9161C170.999 51.4084 170.559 51.7562 170.044 51.7936C167.033 52.0098 158.822 52.5682 151.229 52.8103C147.43 52.9314 143.798 52.9729 141.051 52.8542C139.675 52.7947 138.539 52.6957 137.721 52.5506C137.31 52.4778 137 52.3967 136.786 52.3123C136.602 52.2394 136.549 52.187 136.544 52.1845C136.513 52.1178 136.477 51.9883 136.459 51.7702C136.44 51.5454 136.443 51.2613 136.47 50.9199C136.524 50.2375 136.668 49.3704 136.885 48.3757C137.317 46.3887 138.026 43.9429 138.822 41.5461C139.618 39.15 140.497 36.816 141.266 35.0535C141.652 34.1708 142.005 33.442 142.303 32.9234C142.453 32.663 142.581 32.4679 142.686 32.3361C142.723 32.2895 142.752 32.2572 142.774 32.2355C142.815 32.2457 142.869 32.2617 142.938 32.2857C143.143 32.357 143.427 32.4794 143.785 32.6539C144.5 33.0013 145.467 33.5308 146.618 34.1968C148.918 35.5271 151.921 37.3824 155.051 39.3629C161.309 43.3228 168.054 47.7706 170.649 49.4895L170.649 49.4896C171.117 49.799 171.323 50.3812 171.154 50.9158ZM142.695 32.2211C142.695 32.221 142.697 32.221 142.701 32.2214C142.697 32.2214 142.695 32.2212 142.695 32.2211Z" fill="#0F0F0F" stroke="white"/>
<mask id="mask3_304_2031" style="mask-type:luminance" maskUnits="userSpaceOnUse" x="135" y="31" width="37" height="23">
<path d="M171.154 50.9158L171.154 50.9161C170.999 51.4084 170.559 51.7562 170.044 51.7936C167.033 52.0098 158.821 52.5682 151.228 52.8103C147.43 52.9314 143.797 52.9729 141.051 52.8542C139.675 52.7947 138.539 52.6957 137.721 52.5506C137.31 52.4778 137 52.3967 136.786 52.3123C136.601 52.2394 136.549 52.187 136.544 52.1845C136.513 52.1178 136.476 51.9883 136.458 51.7702C136.44 51.5454 136.443 51.2613 136.47 50.9199C136.524 50.2375 136.668 49.3704 136.885 48.3757C137.317 46.3887 138.026 43.9429 138.822 41.5461C139.618 39.15 140.497 36.816 141.266 35.0535C141.652 34.1708 142.005 33.442 142.303 32.9234C142.452 32.663 142.581 32.4679 142.686 32.3361C142.723 32.2895 142.752 32.2572 142.773 32.2355C142.814 32.2457 142.869 32.2617 142.938 32.2857C143.143 32.357 143.426 32.4794 143.785 32.6539C144.5 33.0013 145.467 33.5308 146.618 34.1968C148.918 35.5271 151.921 37.3824 155.051 39.3629C161.309 43.3228 168.053 47.7706 170.649 49.4895L170.649 49.4896C171.117 49.799 171.323 50.3812 171.154 50.9158ZM142.695 32.2211C142.695 32.221 142.697 32.221 142.701 32.2214C142.697 32.2214 142.695 32.2212 142.695 32.2211Z" fill="white" stroke="white"/>
</mask>
<g mask="url(#mask3_304_2031)">
<path d="M164.112 54.3563C165.81 51.7472 166.401 49.3027 166.548 47.4421C166.621 46.5294 166.586 45.7589 166.524 45.1795C166.608 45.2348 166.697 45.2931 166.789 45.354C167.529 45.8403 168.521 46.4964 169.527 47.1762C170.535 47.8566 171.554 48.5583 172.351 49.1366C172.75 49.4261 173.088 49.6812 173.341 49.8853C173.467 49.9876 173.567 50.0732 173.64 50.1415C173.704 50.2016 173.731 50.2333 173.738 50.2411C173.74 50.2432 173.74 50.2436 173.739 50.2424C173.85 50.4124 173.858 50.6538 173.684 51.1292C173.614 51.3206 173.526 51.5189 173.429 51.7406C173.41 51.7843 173.39 51.829 173.37 51.8748C173.259 52.1279 173.141 52.4059 173.046 52.6953C173.043 52.698 173.039 52.7011 173.034 52.7045C172.984 52.7417 172.895 52.792 172.759 52.851C172.486 52.9682 172.095 53.0894 171.607 53.2102C170.637 53.4505 169.364 53.6708 168.088 53.8581C166.814 54.0449 165.551 54.197 164.604 54.3025C164.428 54.3221 164.264 54.3401 164.112 54.3563ZM173.063 52.6805C173.065 52.6789 173.066 52.678 173.066 52.6781C173.066 52.6781 173.065 52.6789 173.063 52.6805Z" fill="#0F0F0F" stroke="white"/>
</g>
<mask id="mask4_304_2031" style="mask-type:luminance" maskUnits="userSpaceOnUse" x="135" y="31" width="37" height="23">
<path d="M171.154 50.9158L171.154 50.9161C170.999 51.4084 170.559 51.7562 170.044 51.7936C167.033 52.0098 158.821 52.5682 151.228 52.8103C147.43 52.9314 143.797 52.9729 141.051 52.8542C139.675 52.7947 138.539 52.6957 137.721 52.5506C137.31 52.4778 137 52.3967 136.786 52.3123C136.601 52.2394 136.549 52.187 136.544 52.1845C136.513 52.1178 136.476 51.9883 136.458 51.7702C136.44 51.5454 136.443 51.2613 136.47 50.9199C136.524 50.2375 136.668 49.3704 136.885 48.3757C137.317 46.3887 138.026 43.9429 138.822 41.5461C139.618 39.15 140.497 36.816 141.266 35.0535C141.652 34.1708 142.005 33.442 142.303 32.9234C142.452 32.663 142.581 32.4679 142.686 32.3361C142.723 32.2895 142.752 32.2572 142.773 32.2355C142.814 32.2457 142.869 32.2617 142.938 32.2857C143.143 32.357 143.426 32.4794 143.785 32.6539C144.5 33.0013 145.467 33.5308 146.618 34.1968C148.918 35.5271 151.921 37.3824 155.051 39.3629C161.309 43.3228 168.053 47.7706 170.649 49.4895L170.649 49.4896C171.117 49.799 171.323 50.3812 171.154 50.9158ZM142.695 32.2211C142.695 32.221 142.697 32.221 142.701 32.2214C142.697 32.2214 142.695 32.2212 142.695 32.2211Z" fill="white" stroke="white"/>
</mask>
<g mask="url(#mask4_304_2031)">
<path opacity="0.24" d="M136.263 47.2877C136.288 47.2835 136.315 47.2789 136.345 47.2742C136.543 47.2419 136.836 47.1992 137.209 47.1589C137.955 47.0781 139.019 47.0069 140.283 47.0468C142.815 47.1266 146.126 47.651 149.289 49.4133C152.665 51.2943 157.591 51.7314 161.598 51.7196C163.615 51.7137 165.426 51.5934 166.732 51.4747C167.27 51.4259 167.722 51.3773 168.069 51.3369L167.561 52.9654C167.371 52.9875 167.1 53.0189 166.759 53.0579C166.04 53.1402 165.009 53.2567 163.76 53.3936C161.261 53.6675 157.89 54.0229 154.401 54.3494C150.911 54.6759 147.307 54.973 144.34 55.1307C142.857 55.2095 141.537 55.2532 140.474 55.2487C139.395 55.2441 138.626 55.1895 138.213 55.0891C136.59 54.6938 135.785 53.3131 135.564 51.6304C135.354 50.0366 135.698 48.3201 136.263 47.2877Z" fill="#0F0F0F" stroke="white"/>
</g>
<path d="M142.62 32.1816C142.62 32.1816 142.62 32.1818 142.621 32.182C142.622 32.1824 142.623 32.1829 142.625 32.1839C142.628 32.1857 142.633 32.1895 142.641 32.1971C142.658 32.2127 142.685 32.2436 142.716 32.3C142.78 32.4169 142.843 32.6057 142.888 32.883C142.979 33.4358 142.983 34.2297 142.888 35.223C142.7 37.2013 142.135 39.8626 141.232 42.7312C140.328 45.5997 139.265 48.1043 138.285 49.833C137.793 50.701 137.335 51.3495 136.944 51.7505C136.748 51.9516 136.588 52.0701 136.468 52.1291C136.411 52.1576 136.371 52.1678 136.348 52.1709C136.338 52.1725 136.331 52.1723 136.327 52.1721C136.324 52.1719 136.322 52.1714 136.322 52.1712C136.321 52.1711 136.32 52.1706 136.317 52.1689C136.314 52.1671 136.308 52.1633 136.3 52.1557C136.283 52.1401 136.257 52.1092 136.226 52.0528C136.162 51.9359 136.099 51.7471 136.053 51.4698C135.963 50.917 135.959 50.1231 136.053 49.1298C136.241 47.1515 136.806 44.4902 137.71 41.6216C138.614 38.7531 139.676 36.2485 140.656 34.5198C141.148 33.6518 141.606 33.0033 141.998 32.6023C142.194 32.4012 142.354 32.2827 142.473 32.2237C142.531 32.1952 142.57 32.185 142.593 32.1819C142.604 32.1803 142.611 32.1805 142.614 32.1807C142.618 32.1809 142.619 32.1814 142.62 32.1816Z" fill="#0F0F0F" stroke="white"/>
<mask id="mask5_304_2031" style="mask-type:luminance" maskUnits="userSpaceOnUse" x="135" y="31" width="9" height="22">
<path d="M142.621 32.1813C142.621 32.1814 142.621 32.1815 142.622 32.1818C142.623 32.1821 142.624 32.1827 142.626 32.1837C142.629 32.1854 142.634 32.1893 142.642 32.1968C142.659 32.2124 142.686 32.2433 142.717 32.2998C142.781 32.4166 142.844 32.6054 142.889 32.8827C142.98 33.4356 142.984 34.2295 142.889 35.2228C142.701 37.201 142.136 39.8624 141.233 42.7309C140.329 45.5995 139.266 48.104 138.286 49.8327C137.794 50.7007 137.336 51.3492 136.945 51.7502C136.749 51.9514 136.589 52.0699 136.469 52.1289C136.412 52.1574 136.372 52.1675 136.349 52.1707C136.338 52.1722 136.332 52.1721 136.328 52.1718C136.325 52.1716 136.323 52.1712 136.323 52.171C136.322 52.1708 136.321 52.1703 136.318 52.1686C136.315 52.1669 136.309 52.1631 136.301 52.1555C136.284 52.1399 136.258 52.109 136.227 52.0525C136.163 51.9357 136.1 51.7469 136.054 51.4696C135.964 50.9167 135.96 50.1228 136.054 49.1295C136.242 47.1513 136.807 44.4899 137.711 41.6214C138.615 38.7528 139.677 36.2483 140.657 34.5196C141.149 33.6516 141.607 33.0031 141.999 32.6021C142.195 32.4009 142.355 32.2824 142.474 32.2234C142.532 32.1949 142.571 32.1848 142.594 32.1816C142.605 32.1801 142.612 32.1802 142.615 32.1805C142.619 32.1807 142.62 32.1811 142.621 32.1813Z" fill="white" stroke="white"/>
</mask>
<g mask="url(#mask5_304_2031)">
<path d="M142.334 41.9632C142.248 41.9105 142.144 41.8484 142.026 41.7815C141.673 41.5813 141.205 41.3449 140.723 41.1817C140.229 41.0147 139.782 40.9459 139.444 41.0141C139.156 41.0725 138.914 41.2336 138.773 41.6685L142.334 41.9632ZM142.334 41.9632L141.908 44.6874C140.959 44.5867 140.242 44.4676 139.705 44.322C139.076 44.1512 138.76 43.9604 138.601 43.7826C138.464 43.6285 138.398 43.431 138.423 43.0922C138.45 42.7324 138.575 42.2782 138.773 41.6687L142.334 41.9632Z" fill="#0F0F0F" stroke="white"/>
</g>
<mask id="mask6_304_2031" style="mask-type:luminance" maskUnits="userSpaceOnUse" x="135" y="31" width="9" height="22">
<path d="M142.621 32.1813C142.621 32.1814 142.621 32.1815 142.622 32.1818C142.623 32.1821 142.624 32.1827 142.626 32.1837C142.629 32.1854 142.634 32.1893 142.642 32.1968C142.659 32.2124 142.686 32.2433 142.717 32.2998C142.781 32.4166 142.844 32.6054 142.889 32.8827C142.98 33.4356 142.984 34.2295 142.889 35.2228C142.701 37.201 142.136 39.8624 141.233 42.7309C140.329 45.5995 139.266 48.104 138.286 49.8327C137.794 50.7007 137.336 51.3492 136.945 51.7502C136.749 51.9514 136.589 52.0699 136.469 52.1289C136.412 52.1574 136.372 52.1675 136.349 52.1707C136.338 52.1722 136.332 52.1721 136.328 52.1718C136.325 52.1716 136.323 52.1712 136.323 52.171C136.322 52.1708 136.321 52.1703 136.318 52.1686C136.315 52.1669 136.309 52.1631 136.301 52.1555C136.284 52.1399 136.258 52.109 136.227 52.0525C136.163 51.9357 136.1 51.7469 136.054 51.4696C135.964 50.9167 135.96 50.1228 136.054 49.1295C136.242 47.1513 136.807 44.4899 137.711 41.6214C138.615 38.7528 139.677 36.2483 140.657 34.5196C141.149 33.6516 141.607 33.0031 141.999 32.6021C142.195 32.4009 142.355 32.2824 142.474 32.2234C142.532 32.1949 142.571 32.1848 142.594 32.1816C142.605 32.1801 142.612 32.1802 142.615 32.1805C142.619 32.1807 142.62 32.1811 142.621 32.1813Z" fill="white" stroke="white"/>
</mask>
<g mask="url(#mask6_304_2031)">
<path d="M135.436 52.7761C135.734 53.2259 136.279 53.8474 136.972 53.7533C138.044 53.6081 141.499 48.9638 142.195 45.9844L135.436 52.7761ZM136.06 52.7781C135.995 52.7005 135.936 52.6212 135.884 52.5454C136.242 52.3221 136.577 52.019 136.891 51.6675C137.357 51.1455 137.799 50.4885 138.215 49.7506C139.048 48.2749 139.806 46.425 140.453 44.5567C141.746 40.8252 142.63 36.9321 142.794 35.6254C142.986 34.0984 142.776 33.1272 142.464 32.5149C142.38 32.3504 142.29 32.2144 142.201 32.1027C142.267 32.0774 142.343 32.0583 142.431 32.0463C142.72 32.0066 143.088 32.0543 143.468 32.187C143.845 32.3188 144.195 32.5217 144.45 32.7527C144.711 32.99 144.823 33.2109 144.836 33.3763L144.837 33.377C144.845 33.4788 144.828 33.7023 144.768 34.0663C144.71 34.4152 144.619 34.8519 144.503 35.3559C144.271 36.363 143.943 37.6145 143.587 38.9232C143.359 39.7602 143.12 40.622 142.889 41.4559C142.401 43.2161 141.947 44.8524 141.708 45.8704L141.708 45.8706C141.382 47.2681 140.387 49.112 139.315 50.6452C138.783 51.406 138.245 52.0713 137.783 52.5497C137.551 52.7895 137.347 52.9735 137.179 53.098C137.095 53.16 137.026 53.2022 136.974 53.2288C136.926 53.2532 136.904 53.2579 136.904 53.258C136.904 53.258 136.904 53.258 136.905 53.2578L136.905 53.2578C136.64 53.2938 136.349 53.1223 136.06 52.7781ZM145.335 33.3353C145.236 32.1348 142.881 31.0734 141.817 31.7376L145.335 33.3353Z" fill="#0F0F0F" stroke="white"/>
</g>
<path d="M132.285 41.8111C132.359 42.0784 132.43 42.3278 132.499 42.5485C132.458 42.5302 132.414 42.5106 132.368 42.4895C131.626 42.1476 130.536 41.5275 129.347 40.7587C128.16 39.9917 126.89 39.087 125.788 38.1822C124.676 37.2703 123.767 36.3846 123.272 35.6575L123.096 35.3978L122.785 35.4444L106.137 37.9411C106.137 37.9411 106.137 37.9411 106.137 37.9411C104.478 38.1896 102.931 37.046 102.682 35.3874L102.682 35.3874L100.468 20.6175C100.468 20.6174 100.468 20.6174 100.468 20.6174C100.219 18.9586 101.363 17.4118 103.021 17.1633L103.021 17.1633L133.894 12.534C133.894 12.534 133.894 12.534 133.894 12.534C135.553 12.2855 137.1 13.4291 137.348 15.0877L137.348 15.0877L139.563 29.8576C139.811 31.5161 138.668 33.0623 137.009 33.3118C137.009 33.3118 137.009 33.3118 137.009 33.3118L131.069 34.2024L130.543 34.2813L130.654 34.8012C130.928 36.0861 131.33 37.9284 131.721 39.5748C131.917 40.3977 132.11 41.1751 132.285 41.8111Z" fill="#0F0F0F" stroke="white"/>
<path d="M102.434 20.5292C102.407 20.3391 102.539 20.1618 102.73 20.1351M102.434 20.5292C102.458 20.7022 102.608 20.8282 102.779 20.8282C102.795 20.8282 102.811 20.8271 102.828 20.825L102.73 20.1351M102.434 20.5292L102.778 20.4808L102.779 20.4807L102.779 20.4807L102.779 20.4807L102.779 20.4802L102.785 20.4794L102.785 20.4799L102.434 20.5292ZM102.73 20.1351L133.925 15.7002L102.73 20.1351ZM102.8 20.6301L102.803 20.6297L102.803 20.6296C102.802 20.6298 102.801 20.63 102.8 20.6301ZM133.952 15.8951V15.8951C133.952 15.8951 133.952 15.8951 133.953 15.895L133.952 15.8951Z" fill="#0F0F0F" stroke="white"/>
<path d="M103.518 25.0662L103.519 25.0662L103.518 25.0662Z" fill="#0F0F0F" stroke="white"/>
<path d="M103.872 29.4C103.845 29.21 103.977 29.0327 104.168 29.006M103.872 29.4C103.896 29.573 104.046 29.699 104.217 29.699C104.233 29.699 104.25 29.698 104.266 29.6958L104.168 29.006M103.872 29.4L104.216 29.3517L104.217 29.3516L104.217 29.3516L104.217 29.3516L104.217 29.3511L104.22 29.3506L104.22 29.3511L103.872 29.4ZM104.168 29.006L135.363 24.571L104.168 29.006ZM104.238 29.501L104.24 29.5007L104.24 29.5007C104.239 29.5008 104.239 29.5009 104.238 29.501ZM135.39 24.7659V24.766C135.39 24.7659 135.39 24.7659 135.391 24.7659L135.39 24.7659Z" fill="#0F0F0F" stroke="white"/>
<path d="M104.956 33.9361L104.956 33.936L104.956 33.9361Z" fill="#0F0F0F" stroke="white"/>
<path d="M71.6468 72.0653L71.6469 72.0653C72.965 71.0744 74.2144 70.006 75.3126 68.8042C75.2881 68.7368 75.2641 68.6689 75.2406 68.6003C74.5612 69.3495 73.8274 70.0456 73.0656 70.6965L73.0656 70.6965C69.929 73.3759 66.2589 75.4826 62.6292 77.3173C58.801 79.2524 54.7977 80.8292 50.6806 82.0305C49.6852 82.3211 48.684 82.5877 47.6782 82.8349L47.6771 82.8352C47.6498 82.8418 47.6394 82.8493 47.638 82.8504C47.6357 82.855 47.6267 82.8828 47.6394 82.9287C47.6519 82.9742 47.6759 83.0014 47.6904 83.0114C47.6962 83.0154 47.701 83.0172 47.7065 83.0182L71.6468 72.0653ZM71.6468 72.0653C68.1864 74.6678 64.3147 76.8077 60.364 78.6174C56.3098 80.4743 52.0872 81.9493 47.7568 83.0139L71.6468 72.0653ZM76.6142 68.8354C76.5662 68.8927 76.5179 68.9496 76.4693 69.0063C77.9045 72.3126 80.8508 73.9411 84.3339 74.6415C88.2384 75.4267 92.7304 75.0208 96.2706 74.5158L96.3412 75.0108L96.2706 74.5158C100.125 73.9662 103.921 73.1163 107.737 72.2617C108.635 72.0606 109.535 71.8593 110.436 71.6615C114.982 70.6634 119.57 69.7824 124.199 69.1872C133.347 68.0112 142.809 67.887 151.833 70.2783L151.833 70.2784C152.919 70.5664 153.995 70.8909 155.06 71.2476M76.6142 68.8354L155.06 71.2476M76.6142 68.8354C77.2167 70.2251 78.1745 71.462 79.4104 72.361L79.4105 72.3611C82.632 74.7031 86.7731 75.0469 90.4877 74.891C95.0475 74.7001 99.546 73.8497 103.959 72.8993L103.959 72.8993C105.224 72.6268 106.483 72.3473 107.742 72.0682C110.802 71.3891 113.852 70.7124 116.932 70.146C121.202 69.3613 125.503 68.7437 129.824 68.4197C138.327 67.7822 146.97 68.3349 155.059 71.0436L155.218 70.5694L155.059 71.0436C155.088 71.053 155.101 71.0632 155.106 71.0683C155.112 71.0736 155.117 71.08 155.121 71.0892C155.131 71.111 155.136 71.1508 155.124 71.1966C155.114 71.2315 155.1 71.249 155.094 71.2554M76.6142 68.8354L155.094 71.2554M155.06 71.2476C155.077 71.2534 155.088 71.255 155.094 71.2554M155.06 71.2476L155.094 71.2554M76.9994 66.68C77.2651 66.2907 77.5111 65.8918 77.7297 65.4819C77.9175 65.1294 78.1097 64.7536 78.2296 64.3758C78.35 63.9964 78.3797 63.6679 78.2984 63.3951L78.2984 63.3949C78.1646 62.9455 77.7603 62.6485 77.284 62.5853C76.8099 62.5223 76.3561 62.7021 76.1207 63.108C75.792 63.6753 75.7109 64.5222 75.6937 65.3086C75.6863 65.6668 75.7052 66.0286 75.7478 66.3891C75.8057 66.3085 75.8627 66.2273 75.9189 66.1455C75.8981 65.9144 75.8874 65.6815 75.8877 65.4472M76.9994 66.68L76.8885 65.5612C77.0385 65.3104 77.1796 65.0543 77.3028 64.79C77.3202 64.7526 77.3395 64.7123 77.3598 64.6699C77.5027 64.3717 77.6968 63.9666 77.651 63.6655M76.9994 66.68C76.9825 66.5859 76.9674 66.4916 76.9542 66.3972C76.9769 66.3624 76.9995 66.3276 77.0219 66.2926M76.9994 66.68L77.0219 66.2926M75.8877 65.4472L76.3724 65.4478C76.3775 65.4395 76.3826 65.4312 76.3877 65.4229C76.3889 65.0414 76.417 64.6601 76.488 64.2849C76.4966 64.2401 76.5047 64.1901 76.5134 64.1369C76.5568 63.8703 76.6131 63.5241 76.7956 63.3612C77.069 63.1167 77.5954 63.3003 77.651 63.6655M75.8877 65.4472C75.8877 65.0344 75.9171 64.6127 75.9968 64.1919L75.9969 64.1914C76.0011 64.169 76.0068 64.1344 76.0137 64.0922C76.0324 63.9786 76.06 63.8099 76.0938 63.6744C76.1407 63.4866 76.2333 63.1929 76.4626 62.9882C76.7716 62.7121 77.178 62.7096 77.4715 62.8132C77.7656 62.9171 78.0823 63.176 78.1453 63.5903M75.8877 65.4472C75.8877 65.4474 75.8877 65.4476 75.8877 65.4479H76.3724L78.1453 63.5903M77.651 63.6655L78.1453 63.5903M77.651 63.6655L78.1453 63.5904C78.1453 63.5904 78.1453 63.5903 78.1453 63.5903M77.0219 66.2926C77.2806 65.8899 77.5418 65.4606 77.756 65.0014L77.7563 65.0007C77.7695 64.9722 77.7857 64.9385 77.8038 64.9008C77.866 64.771 77.9509 64.5939 78.0165 64.4212C78.0979 64.2065 78.192 63.8973 78.1453 63.5903M77.0219 66.2926L78.1453 63.5903M76.0328 67.7884C76.0244 67.7592 76.0161 67.73 76.0079 67.7008C76.0587 67.6374 76.109 67.5736 76.1588 67.5095C76.1784 67.5848 76.1989 67.6598 76.2204 67.7345C76.1712 67.7966 76.1217 67.8586 76.0719 67.9203C76.0587 67.8766 76.0457 67.8327 76.0329 67.7885L76.0328 67.7884Z" fill="#0F0F0F" stroke="white"/>
<path d="M159.326 71.7935C159.202 71.8662 159.083 72.0082 159.051 72.1502M159.326 71.7935L159.577 72.226C159.576 72.2264 159.576 72.2267 159.576 72.2267C159.576 72.2266 159.576 72.2264 159.577 72.226M159.326 71.7935C159.445 71.7241 159.652 71.6803 159.786 71.7337L159.579 72.2249L159.326 71.7935ZM159.051 72.1502L162.049 73.3372C162.046 73.3384 162.042 73.3401 162.036 73.342C162.025 73.3459 162.012 73.3491 162 73.351C161.998 73.3513 161.996 73.3516 161.994 73.3518C161.215 73.0422 160.434 72.7315 159.655 72.4208C159.58 72.3905 159.551 72.3561 159.543 72.3418C159.539 72.3347 159.536 72.3278 159.535 72.3188C159.533 72.3104 159.532 72.2946 159.537 72.2693C159.539 72.2661 159.542 72.2613 159.547 72.2553C159.553 72.2475 159.56 72.2401 159.567 72.234C159.57 72.2311 159.573 72.2288 159.575 72.2272C159.576 72.2267 159.577 72.2263 159.577 72.226M159.051 72.1502L159.051 72.1502L159.051 72.1502ZM159.051 72.1502C158.973 72.4941 159.158 72.76 159.469 72.8849L159.051 72.1502ZM159.577 72.226C159.577 72.2258 159.578 72.2257 159.578 72.2255C159.581 72.2243 159.585 72.2226 159.591 72.2207C159.602 72.2168 159.615 72.2135 159.627 72.2116C159.629 72.2113 159.631 72.2111 159.633 72.2109C160.412 72.5206 161.193 72.8314 161.973 73.1422L161.973 73.1424C162.049 73.1724 162.077 73.2065 162.085 73.2201C162.089 73.2267 162.091 73.2334 162.093 73.2423C162.094 73.2507 162.095 73.267 162.09 73.2932C162.088 73.2964 162.085 73.3013 162.08 73.3074C162.074 73.3152 162.067 73.3225 162.06 73.3286C162.057 73.3316 162.054 73.3339 162.051 73.3355C162.051 73.336 162.05 73.3364 162.05 73.3367C162.049 73.3374 162.048 73.3377 162.048 73.3378L162.048 73.3378L159.577 72.226Z" fill="#0F0F0F" stroke="white"/>
</svg>
