<svg width="257" height="226" viewBox="0 0 257 226" fill="none" xmlns="http://www.w3.org/2000/svg">
<path d="M230.046 199.226C230.03 199.226 230.014 199.226 229.998 199.226C226.402 199.226 223.041 199.226 220.095 199.226C220.029 199.226 219.965 199.226 219.899 199.226C219.358 199.226 218.83 199.226 218.318 199.226C218.091 199.226 217.866 199.226 217.645 199.226C217.428 199.226 217.217 199.226 217.008 199.226C216.95 199.226 216.892 199.226 216.834 199.226C216.1 199.226 215.406 199.226 214.753 199.226C214.418 199.226 214.093 199.226 213.782 199.226C213.713 199.226 213.647 199.226 213.581 199.226C212.929 199.226 212.33 199.226 211.791 199.226C211.627 199.226 211.472 199.226 211.318 199.226C207.575 199.226 203.833 199.231 200.089 199.236C196.346 199.242 192.604 199.244 188.86 199.25C184.499 199.252 180.14 199.252 175.778 199.252C171.416 199.252 167.057 199.252 162.695 199.255C161.837 199.255 160.979 199.255 160.121 199.252C158.405 199.25 156.689 199.244 154.975 199.236C151.53 199.22 148.084 199.197 144.639 199.178C143.796 199.173 142.952 199.17 142.109 199.165C141.814 199.162 141.468 199.162 141.072 199.162C140.876 199.162 140.668 199.162 140.446 199.162C140.298 199.162 140.148 199.162 139.992 199.162C139.913 199.162 139.833 199.162 139.752 199.162C139.59 199.162 139.427 199.162 139.255 199.162C139.084 199.162 138.909 199.162 138.73 199.162C138.55 199.162 138.368 199.162 138.181 199.162C137.713 199.162 137.217 199.162 136.702 199.162C135.979 199.162 135.213 199.162 134.408 199.162C133.832 199.162 133.241 199.162 132.633 199.162C132.269 199.162 131.899 199.162 131.525 199.162C131.274 199.162 131.02 199.162 130.767 199.162C130.26 199.162 129.745 199.162 129.22 199.162C128.958 199.162 128.697 199.162 128.433 199.162C128.301 199.162 128.166 199.162 128.034 199.162C127.902 199.162 127.767 199.162 127.635 199.162C127.501 199.162 127.366 199.162 127.231 199.162C126.965 199.162 126.695 199.162 126.426 199.162C126.154 199.162 125.882 199.162 125.61 199.162C125.204 199.162 124.792 199.162 124.383 199.165C124.245 199.165 124.108 199.165 123.971 199.165C123.696 199.165 123.424 199.165 123.15 199.165C123.012 199.165 122.875 199.165 122.738 199.165C122.189 199.165 121.639 199.168 121.09 199.168C120.816 199.168 120.541 199.168 120.269 199.168C119.995 199.168 119.723 199.168 119.451 199.17C117.816 199.173 116.206 199.176 114.661 199.178C114.405 199.178 114.149 199.181 113.896 199.181C113.769 199.181 113.642 199.181 113.518 199.181C113.267 199.181 113.016 199.181 112.771 199.181C112.523 199.181 112.28 199.181 112.037 199.184C111.794 199.184 111.554 199.184 111.319 199.186C111.081 199.186 110.846 199.186 110.616 199.189C110.154 199.189 109.703 199.191 109.265 199.191C109.045 199.191 108.829 199.191 108.618 199.194C108.298 199.194 107.987 199.194 107.686 199.197C107.382 199.197 107.089 199.199 106.804 199.199C106.614 199.199 106.429 199.199 106.247 199.199C106.065 199.199 105.888 199.199 105.713 199.199C105.539 199.199 105.37 199.199 105.206 199.199C104.961 199.199 104.723 199.199 104.499 199.202C104.348 199.202 104.203 199.202 104.063 199.202C103.852 199.202 103.654 199.205 103.469 199.205C103.221 199.205 102.994 199.205 102.788 199.207C102.432 199.207 102.144 199.21 101.935 199.21C101.637 199.21 101.228 199.213 100.726 199.21C100.525 199.21 100.309 199.21 100.076 199.21C99.7305 199.21 99.353 199.21 98.9464 199.207C98.5398 199.207 98.1041 199.205 97.6447 199.205C97.4916 199.205 97.3358 199.205 97.1774 199.205C96.8606 199.205 96.5305 199.202 96.1926 199.202C96.0236 199.202 95.852 199.199 95.6777 199.199C95.1576 199.197 94.6137 199.197 94.0566 199.194C93.8692 199.194 93.6817 199.191 93.4916 199.191C93.1114 199.191 92.7233 199.189 92.3299 199.189C92.1345 199.189 91.9338 199.186 91.7358 199.186C83.7517 199.157 73.5101 199.112 69.0428 199.091C65.1827 199.075 61.3174 199.104 57.4573 199.073C56.7128 199.067 55.9682 199.065 55.2237 199.062C54.8514 199.062 54.4791 199.062 54.1068 199.062C53.7346 199.062 53.3623 199.065 52.99 199.065C52.2455 199.067 51.5009 199.073 50.7564 199.078C50.0118 199.083 49.2673 199.088 48.5227 199.094C47.0336 199.104 45.5471 199.112 44.058 199.112C42.5689 199.112 41.0824 199.104 39.5933 199.078C39.5643 199.078 39.5326 199.078 39.4983 199.075C39.4877 199.075 39.4745 199.075 39.4613 199.075C39.4402 199.075 39.4164 199.075 39.3927 199.075C39.3821 199.075 39.3689 199.075 39.3557 199.075C39.332 199.075 39.3082 199.075 39.2818 199.075C39.266 199.075 39.2475 199.075 39.2316 199.075C39.2079 199.075 39.1841 199.075 39.1603 199.075C39.1419 199.075 39.126 199.075 39.1075 199.075C39.0838 199.075 39.0574 199.075 39.031 199.075C39.0125 199.075 38.994 199.075 38.9755 199.075C38.9491 199.075 38.9201 199.075 38.8937 199.075C38.8752 199.075 38.8541 199.075 38.8329 199.075C38.8065 199.075 38.7801 199.075 38.7511 199.075C38.7273 199.075 38.7009 199.075 38.6745 199.075C38.6508 199.075 38.627 199.075 38.6032 199.075C38.5742 199.075 38.5452 199.075 38.5161 199.075C38.4924 199.075 38.466 199.075 38.4422 199.075C38.4158 199.075 38.3867 199.075 38.3603 199.075C38.3287 199.075 38.2996 199.075 38.2679 199.075C38.2415 199.075 38.2178 199.075 38.1914 199.075C38.1597 199.075 38.128 199.075 38.0937 199.075C38.0673 199.075 38.0435 199.075 38.0171 199.075C37.9801 199.075 37.9432 199.075 37.9062 199.075C37.8798 199.075 37.8561 199.075 37.8297 199.075C37.7953 199.075 37.761 199.075 37.7267 199.075C37.695 199.075 37.6607 199.075 37.629 199.075C37.5999 199.075 37.5683 199.075 37.5392 199.075C37.5049 199.075 37.4706 199.075 37.4362 199.075C37.3993 199.075 37.3597 199.075 37.3227 199.075C37.291 199.075 37.262 199.075 37.2303 199.075C37.1801 199.075 37.1273 199.075 37.0745 199.075C37.0587 199.075 37.0428 199.075 37.0244 199.075C36.9742 199.075 36.9214 199.075 36.8686 199.075C36.8448 199.075 36.8211 199.075 36.7973 199.075C36.6495 199.075 36.499 199.073 36.3458 199.073C36.293 199.073 36.2402 199.073 36.1874 199.073C36.1636 199.073 36.1399 199.073 36.1161 199.073C36.0739 199.073 36.029 199.073 35.9841 199.073C35.9419 199.073 35.897 199.073 35.8547 199.073C35.8283 199.073 35.7993 199.073 35.7702 199.073C35.7174 199.073 35.6646 199.073 35.6092 199.073C35.5669 199.073 35.5247 199.073 35.4825 199.073C35.4429 199.073 35.4006 199.073 35.361 199.073C35.3135 199.073 35.2633 199.073 35.2158 199.073C35.1788 199.073 35.1392 199.073 35.1023 199.073C35.0574 199.073 35.0125 199.073 34.965 199.073C34.9148 199.073 34.8673 199.073 34.8171 199.073C34.7802 199.073 34.7405 199.073 34.7009 199.073C34.6534 199.073 34.6059 199.073 34.5584 199.073C34.5056 199.073 34.4528 199.073 34.3999 199.073C34.3656 199.073 34.3287 199.073 34.2943 199.073C34.2415 199.073 34.1914 199.073 34.1386 199.073C34.0831 199.073 34.025 199.073 33.9669 199.073C33.9353 199.073 33.9062 199.073 33.8745 199.073C33.8085 199.073 33.7425 199.073 33.6739 199.073C33.6396 199.073 33.6079 199.073 33.5736 199.073C33.5128 199.073 33.4547 199.073 33.394 199.073C33.3544 199.073 33.3148 199.073 33.2752 199.073C33.2198 199.073 33.1643 199.073 33.1089 199.073C33.0587 199.073 33.0085 199.073 32.9584 199.073C32.9161 199.073 32.8739 199.073 32.8343 199.073C32.7762 199.073 32.7207 199.073 32.6627 199.073C32.6204 199.073 32.5782 199.073 32.5333 199.073C32.4699 199.073 32.4066 199.073 32.3405 199.073C32.3326 199.073 32.3221 199.073 32.3141 199.073C32.1478 199.073 31.9815 199.07 31.8125 199.07C31.625 199.07 31.4349 199.07 31.2422 199.067C31.1207 199.067 30.9993 199.067 30.8752 199.067C30.8356 199.067 30.7934 199.067 30.7538 199.067C30.6693 199.067 30.5848 199.067 30.5003 199.067C30.4818 199.067 30.466 199.067 30.4475 199.067C30.3841 199.067 30.3181 199.067 30.2547 199.067C30.1887 199.067 30.1254 199.067 30.0594 199.067C30.0277 199.067 29.996 199.067 29.9643 199.067C29.8983 199.067 29.8323 199.067 29.7637 199.067C29.6818 199.067 29.6026 199.067 29.5208 199.067C29.4891 199.067 29.46 199.067 29.4283 199.067C29.3623 199.067 29.2963 199.067 29.2303 199.067C29.1696 199.067 29.1089 199.067 29.0455 199.067C28.998 199.067 28.9505 199.067 28.9003 199.067C28.8343 199.067 28.7709 199.067 28.7049 199.067C28.6389 199.067 28.5755 199.067 28.5095 199.067C28.4726 199.067 28.433 199.067 28.396 199.067C28.3168 199.067 28.2376 199.067 28.1584 199.067C28.1135 199.067 28.066 199.067 28.0184 199.067C27.9524 199.067 27.8838 199.067 27.8151 199.067C27.7544 199.067 27.6937 199.067 27.6356 199.067C27.5828 199.067 27.53 199.067 27.4746 199.067C27.4217 199.067 27.3689 199.067 27.3188 199.067C22.8647 199.052 18.4977 198.241 14.0092 198.677C9.25676 199.136 4.5439 200.372 1.16759e-05 202.357C-0.0158299 208.834 16.0924 212.057 23.4482 214.077C26.9755 215.046 30.5056 216.013 34.0435 216.894C44.4356 219.479 54.9174 221.304 65.423 222.737C112.821 229.214 184.826 225.541 231.973 216.184C243.448 213.908 275.947 201.737 240.327 199.445C239.371 199.35 232.644 199.226 230.046 199.226Z" fill="#0F0F0F"/>
<path d="M34.0956 199.22C34.1356 199.22 34.1755 199.223 34.2155 199.223C34.1782 199.223 34.1382 199.22 34.0956 199.22Z" fill="#0F0F0F"/>
<path d="M34.627 199.229C34.6773 199.229 34.7277 199.231 34.778 199.231C34.7277 199.229 34.6773 199.229 34.627 199.229Z" fill="#0F0F0F"/>
<path d="M34.3685 199.223C34.4162 199.223 34.4639 199.223 34.5089 199.226C34.4639 199.226 34.4162 199.226 34.3685 199.223Z" fill="#0F0F0F"/>
<path d="M33.5159 199.215C33.5689 199.215 33.6245 199.218 33.6775 199.218C33.6245 199.218 33.5716 199.215 33.5159 199.215Z" fill="#0F0F0F"/>
<path d="M33.2438 199.212C33.276 199.215 33.3083 199.215 33.3405 199.215C33.3083 199.212 33.276 199.212 33.2438 199.212Z" fill="#0F0F0F"/>
<path d="M33.7873 199.217C33.8429 199.217 33.8959 199.217 33.9515 199.217C33.8959 199.22 33.8402 199.217 33.7873 199.217Z" fill="#0F0F0F"/>
<path d="M36.921 199.26C36.9586 199.262 36.9935 199.262 37.0284 199.262C36.9935 199.262 36.9559 199.26 36.921 199.26Z" fill="#0F0F0F"/>
<path d="M37.1197 199.262C37.1546 199.262 37.1896 199.265 37.2245 199.265C37.1896 199.265 37.1546 199.265 37.1197 199.262Z" fill="#0F0F0F"/>
<path d="M35.6277 199.242C35.6834 199.242 35.739 199.244 35.792 199.244C35.739 199.242 35.6834 199.242 35.6277 199.242Z" fill="#0F0F0F"/>
<path d="M35.4191 199.236C35.4641 199.238 35.5118 199.238 35.5542 199.238C35.5118 199.238 35.4668 199.238 35.4191 199.236Z" fill="#0F0F0F"/>
<path d="M34.9021 199.231C34.9471 199.231 34.9895 199.233 35.0346 199.233C34.9922 199.233 34.9471 199.231 34.9021 199.231Z" fill="#0F0F0F"/>
<path d="M28.1132 199.173C28.1636 199.173 28.2139 199.173 28.2616 199.176C28.2112 199.173 28.1609 199.173 28.1132 199.173Z" fill="#0F0F0F"/>
<path d="M28.7496 199.178C28.8341 199.178 28.916 199.178 29.0005 199.181C28.9186 199.178 28.8341 199.178 28.7496 199.178Z" fill="#0F0F0F"/>
<path d="M26.6431 199.162C26.6988 199.162 26.7544 199.165 26.8074 199.165C26.7517 199.165 26.6988 199.162 26.6431 199.162Z" fill="#0F0F0F"/>
<path d="M27.3453 199.167C27.4272 199.167 27.509 199.167 27.5909 199.167C27.509 199.17 27.4272 199.167 27.3453 199.167Z" fill="#0F0F0F"/>
<path d="M31.9922 199.201C32.0531 199.201 32.1114 199.201 32.1697 199.204C32.1114 199.201 32.0504 199.201 31.9922 199.201Z" fill="#0F0F0F"/>
<path d="M31.1154 199.194C31.2896 199.194 31.4639 199.196 31.6329 199.199C31.4613 199.196 31.2896 199.194 31.1154 199.194Z" fill="#0F0F0F"/>
<path d="M30.1494 199.186C30.2762 199.186 30.4029 199.186 30.527 199.189C30.4003 199.186 30.2762 199.186 30.1494 199.186Z" fill="#0F0F0F"/>
<path d="M142.044 199.519C142.218 199.519 142.39 199.519 142.556 199.519C142.39 199.521 142.221 199.519 142.044 199.519Z" fill="#0F0F0F"/>
<path d="M142.804 199.521C142.965 199.521 143.121 199.521 143.271 199.523C143.121 199.523 142.965 199.523 142.804 199.521Z" fill="#0F0F0F"/>
<path d="M135.211 199.521C135.837 199.521 136.449 199.519 137.043 199.519C136.449 199.519 135.837 199.519 135.211 199.521Z" fill="#0F0F0F"/>
<path d="M134.064 199.523C134.453 199.523 134.833 199.521 135.21 199.521C134.833 199.521 134.45 199.521 134.064 199.523Z" fill="#0F0F0F"/>
<path d="M179.751 199.791C175.25 199.794 170.745 199.794 166.244 199.796C165.359 199.796 164.472 199.796 163.585 199.791C164.47 199.796 165.357 199.799 166.244 199.796C170.748 199.794 175.25 199.791 179.751 199.791Z" fill="#0F0F0F"/>
<path d="M133.281 199.527C133.545 199.524 133.803 199.524 134.062 199.524C133.806 199.524 133.545 199.524 133.281 199.527Z" fill="#0F0F0F"/>
<path d="M216.449 199.717C212.584 199.719 208.718 199.73 204.856 199.743C208.718 199.732 212.584 199.719 216.449 199.717Z" fill="#0F0F0F"/>
<path d="M147.599 199.577C146.727 199.561 145.859 199.55 144.988 199.54C145.859 199.55 146.73 199.561 147.599 199.577Z" fill="#0F0F0F"/>
<path d="M38.899 199.307C38.9125 199.307 38.9233 199.307 38.9368 199.31C38.926 199.307 38.9125 199.307 38.899 199.307Z" fill="#0F0F0F"/>
<path d="M38.5082 199.294C38.5273 199.294 38.5464 199.294 38.5655 199.297C38.5491 199.297 38.5273 199.297 38.5082 199.294Z" fill="#0F0F0F"/>
<path d="M37.7002 199.276C37.7269 199.278 37.7535 199.278 37.7802 199.278C37.7535 199.276 37.7269 199.276 37.7002 199.276Z" fill="#0F0F0F"/>
<path d="M38.0381 199.283C38.0676 199.283 38.0999 199.283 38.1294 199.286C38.0972 199.283 38.0676 199.283 38.0381 199.283Z" fill="#0F0F0F"/>
<path d="M126.265 199.551C126.408 199.551 126.55 199.551 126.693 199.548C126.547 199.548 126.408 199.548 126.265 199.551Z" fill="#0F0F0F"/>
<path d="M130.461 199.534C130.598 199.534 130.735 199.534 130.873 199.534C130.735 199.532 130.598 199.532 130.461 199.534Z" fill="#0F0F0F"/>
<path d="M127.96 199.542C128.243 199.542 128.523 199.54 128.803 199.54C128.52 199.54 128.24 199.542 127.96 199.542Z" fill="#0F0F0F"/>
<path d="M248.702 198.951C240.958 199.041 221.803 199.004 215.894 198.864C210.537 198.737 181.99 198.962 173.082 198.978C165.747 198.991 136.018 198.666 128.485 198.674C120.068 198.682 94.3785 199.075 89.9508 198.719C88.1845 198.576 58.5027 198.36 50.6743 198.458C44.8129 198.532 38.9568 198.473 33.1034 198.286C30.3232 198.196 18.0803 198.194 7.16813 198.178C7.09156 198.487 6.99651 198.79 6.88562 199.089C11.3978 199.102 17.3094 199.12 22.8645 199.147C22.8724 199.147 22.8829 199.147 22.8909 199.147C24.1133 199.152 25.3173 199.16 26.4843 199.165C26.5371 199.165 26.5925 199.165 26.6453 199.165C26.7008 199.165 26.7562 199.168 26.809 199.168C26.8724 199.168 26.9331 199.168 26.9965 199.168C27.0651 199.168 27.1364 199.17 27.205 199.17C27.2526 199.17 27.3001 199.17 27.3476 199.17C27.4295 199.17 27.5113 199.17 27.5932 199.17C27.6328 199.17 27.6724 199.17 27.712 199.17C27.7806 199.17 27.8466 199.17 27.9126 199.17C27.9813 199.17 28.0473 199.17 28.1159 199.17C28.1661 199.17 28.2163 199.17 28.2638 199.173C28.3272 199.173 28.3905 199.173 28.4539 199.173C28.5225 199.173 28.5912 199.176 28.6572 199.176C28.6889 199.176 28.7206 199.176 28.7522 199.176C28.8367 199.176 28.9186 199.176 29.0031 199.178C29.0717 199.178 29.1404 199.178 29.209 199.178C29.2407 199.178 29.275 199.178 29.3067 199.178C29.3753 199.178 29.4414 199.178 29.51 199.181C29.576 199.181 29.642 199.181 29.708 199.181C29.7265 199.181 29.7423 199.181 29.7608 199.181C29.848 199.181 29.9351 199.181 30.0222 199.184C30.0645 199.184 30.1067 199.186 30.1489 199.186C30.2757 199.186 30.4024 199.186 30.5265 199.189C30.7245 199.189 30.9225 199.192 31.1153 199.194C31.2895 199.194 31.4638 199.197 31.6328 199.2C31.6407 199.2 31.6513 199.2 31.6592 199.2C31.7252 199.2 31.7912 199.2 31.8572 199.2C31.9021 199.202 31.9443 199.202 31.9892 199.202C32.0499 199.202 32.108 199.202 32.1661 199.205C32.2083 199.205 32.2532 199.205 32.2955 199.205C32.3483 199.205 32.3984 199.205 32.4513 199.205C32.5093 199.205 32.5674 199.205 32.6229 199.205C32.6651 199.207 32.7047 199.207 32.747 199.207C32.8077 199.207 32.871 199.207 32.9318 199.21C32.9661 199.21 33.0004 199.21 33.0347 199.21C33.1034 199.21 33.172 199.21 33.2407 199.21C33.2724 199.213 33.304 199.213 33.3357 199.213C33.3938 199.213 33.4545 199.213 33.5126 199.215C33.5654 199.215 33.6209 199.218 33.6737 199.218C33.7106 199.218 33.7476 199.218 33.7819 199.218C33.8374 199.218 33.8902 199.218 33.9456 199.218C33.9958 199.218 34.0433 199.218 34.0935 199.221C34.1331 199.221 34.1727 199.223 34.2123 199.223C34.2625 199.223 34.3153 199.223 34.3654 199.223C34.413 199.223 34.4605 199.223 34.5054 199.226C34.545 199.226 34.5846 199.226 34.6242 199.226C34.6743 199.226 34.7245 199.229 34.7747 199.229C34.8169 199.229 34.8592 199.229 34.8988 199.231C34.9437 199.231 34.9859 199.234 35.0308 199.234C35.0862 199.234 35.1417 199.234 35.1971 199.236C35.2262 199.236 35.2552 199.236 35.2842 199.239C35.3291 199.239 35.374 199.239 35.4189 199.239C35.4638 199.242 35.5087 199.242 35.5536 199.242C35.5773 199.242 35.6011 199.242 35.6248 199.242C35.6803 199.242 35.7357 199.244 35.7885 199.244C35.9496 199.244 36.1054 199.247 36.2559 199.25C36.2823 199.25 36.306 199.25 36.3298 199.25C36.3826 199.252 36.438 199.252 36.4908 199.252C36.5093 199.255 36.5252 199.255 36.541 199.255C36.5938 199.255 36.6493 199.258 36.7021 199.258C36.7337 199.26 36.7654 199.26 36.7998 199.26C36.8394 199.26 36.879 199.26 36.9159 199.26C36.9529 199.263 36.9872 199.263 37.0215 199.263C37.0532 199.266 37.0849 199.266 37.1139 199.266C37.1483 199.266 37.1826 199.268 37.2169 199.268C37.2512 199.271 37.2882 199.271 37.3225 199.271C37.3489 199.271 37.3753 199.271 37.4017 199.271C37.4387 199.273 37.4783 199.273 37.5153 199.273C37.5417 199.276 37.5681 199.276 37.5945 199.276C37.6288 199.276 37.6605 199.279 37.6948 199.279C37.7212 199.281 37.7476 199.281 37.774 199.281C37.8057 199.281 37.8374 199.281 37.8691 199.284C37.8981 199.284 37.9245 199.284 37.9535 199.284C37.9799 199.287 38.0063 199.287 38.0301 199.287C38.0592 199.287 38.0908 199.287 38.1199 199.289C38.1436 199.289 38.17 199.289 38.1938 199.289C38.2202 199.289 38.2466 199.289 38.273 199.292C38.3021 199.292 38.3285 199.292 38.3575 199.295C38.3786 199.295 38.3997 199.295 38.4182 199.295C38.4473 199.295 38.4763 199.297 38.5027 199.297C38.5212 199.297 38.5397 199.297 38.5582 199.3C38.5846 199.302 38.611 199.302 38.6374 199.302C38.6559 199.302 38.6743 199.305 38.6928 199.305C38.7166 199.305 38.7403 199.308 38.7667 199.308C38.7826 199.308 38.8011 199.308 38.8169 199.308C38.8433 199.308 38.8697 199.31 38.8935 199.31C38.9067 199.31 38.9172 199.31 38.9304 199.313C38.9542 199.313 38.978 199.313 39.0017 199.316C39.0149 199.318 39.0281 199.318 39.0387 199.318C39.073 199.318 39.1047 199.321 39.1364 199.321C40.673 199.395 42.2096 199.421 43.7463 199.421C45.2829 199.421 46.8195 199.395 48.3562 199.366C49.1245 199.35 49.8928 199.334 50.6611 199.318C51.4294 199.302 52.1977 199.289 52.9661 199.279C53.3515 199.273 53.7344 199.271 54.1198 199.268C54.5053 199.266 54.8882 199.266 55.2736 199.266C56.042 199.268 56.8103 199.276 57.5786 199.295C61.5627 199.384 65.5522 199.297 69.539 199.345C74.1515 199.403 84.7257 199.532 92.9686 199.614C93.1745 199.617 93.3805 199.617 93.5811 199.619C93.9877 199.622 94.3864 199.627 94.7798 199.63C94.9752 199.633 95.1706 199.633 95.3633 199.635C95.9415 199.638 96.4986 199.646 97.0373 199.648C97.2168 199.648 97.3937 199.651 97.5679 199.654C97.9165 199.656 98.257 199.656 98.5844 199.662C98.7481 199.664 98.9092 199.664 99.0676 199.664C99.5429 199.667 99.9917 199.672 100.411 199.675C100.831 199.677 101.222 199.677 101.579 199.677C101.816 199.68 102.041 199.68 102.249 199.68C102.769 199.683 103.192 199.68 103.498 199.677C103.714 199.677 104.01 199.675 104.38 199.669C104.591 199.669 104.826 199.667 105.082 199.664C105.275 199.662 105.481 199.662 105.697 199.659C105.843 199.659 105.993 199.656 106.146 199.656C106.378 199.654 106.621 199.654 106.875 199.651C107.044 199.651 107.218 199.648 107.398 199.648C107.577 199.646 107.759 199.646 107.947 199.646C108.134 199.643 108.327 199.643 108.522 199.643C108.815 199.64 109.119 199.638 109.433 199.638C109.745 199.635 110.067 199.635 110.397 199.633C110.616 199.63 110.838 199.63 111.065 199.63C111.516 199.627 111.984 199.625 112.462 199.622C112.699 199.622 112.942 199.619 113.188 199.617C113.433 199.614 113.679 199.614 113.93 199.614C114.18 199.611 114.431 199.611 114.687 199.609C114.943 199.606 115.2 199.606 115.458 199.606C115.588 199.603 115.72 199.603 115.849 199.603C116.11 199.603 116.375 199.601 116.641 199.598C118.236 199.59 119.897 199.582 121.586 199.574C121.866 199.574 122.149 199.572 122.431 199.569C122.714 199.569 122.996 199.566 123.279 199.566C123.846 199.564 124.414 199.561 124.982 199.559C125.124 199.559 125.267 199.556 125.407 199.556C125.689 199.556 125.972 199.556 126.254 199.553C126.397 199.553 126.539 199.553 126.682 199.551C127.107 199.551 127.53 199.548 127.949 199.545C128.232 199.545 128.512 199.543 128.792 199.543C129.069 199.543 129.346 199.54 129.623 199.54C129.763 199.54 129.901 199.537 130.04 199.537C130.178 199.537 130.315 199.537 130.452 199.537C130.59 199.537 130.727 199.537 130.864 199.537C131.136 199.535 131.406 199.535 131.675 199.535H131.677C132.216 199.532 132.749 199.532 133.272 199.532C133.536 199.53 133.795 199.53 134.054 199.53C134.442 199.53 134.822 199.527 135.2 199.527C135.825 199.527 136.438 199.524 137.032 199.524C137.861 199.524 138.653 199.524 139.4 199.524C139.934 199.524 140.443 199.524 140.926 199.524C141.119 199.524 141.309 199.524 141.491 199.524C141.676 199.524 141.858 199.524 142.033 199.524C142.207 199.524 142.378 199.524 142.545 199.524C142.629 199.524 142.711 199.527 142.793 199.527C142.954 199.527 143.11 199.527 143.26 199.53H143.263C143.49 199.532 143.704 199.532 143.907 199.532H143.91C144.316 199.535 144.675 199.537 144.979 199.543C145.85 199.556 146.719 199.567 147.59 199.58C151.147 199.635 154.706 199.699 158.265 199.743C160.036 199.767 161.808 199.783 163.58 199.791C164.464 199.796 165.351 199.799 166.238 199.796C170.74 199.794 175.244 199.794 179.746 199.791C184.248 199.788 188.752 199.786 193.254 199.78C197.119 199.772 200.982 199.759 204.847 199.746C208.712 199.733 212.578 199.722 216.44 199.72C216.596 199.72 216.76 199.72 216.929 199.72C217.483 199.72 218.101 199.72 218.777 199.72C218.846 199.72 218.914 199.72 218.986 199.72C219.308 199.72 219.643 199.72 219.989 199.72C220.662 199.72 221.38 199.72 222.138 199.72C222.196 199.72 222.257 199.72 222.318 199.72C222.534 199.72 222.753 199.72 222.975 199.72C223.205 199.72 223.434 199.72 223.669 199.72C224.197 199.72 224.741 199.72 225.301 199.72C225.367 199.72 225.436 199.72 225.502 199.72C228.541 199.717 232.013 199.717 235.725 199.717C235.741 199.717 235.756 199.717 235.775 199.717C238.328 199.714 240.995 199.714 243.719 199.714C245.343 199.712 246.985 199.712 248.636 199.712C248.649 199.453 248.67 199.2 248.702 198.951Z" fill="white"/>
<path d="M119.808 76.9083C119.721 76.8581 119.623 76.8106 119.523 76.7578C120.299 82.9519 122.364 83.142 131.187 83.3928C136.352 83.5406 135.919 82.4555 138.041 76.8634C135.979 78.1149 132.692 78.738 130.633 78.7961C127.726 78.8753 122.403 78.3525 119.808 76.9083Z" fill="#0F0F0F"/>
<path d="M119.86 71.6013C119.258 71.5009 118.748 71.3452 118.268 71.0996C118.276 71.126 118.286 71.1524 118.294 71.1762C118.756 72.5122 119.134 73.8745 119.343 75.2686C119.63 75.3821 119.934 75.7465 120.201 75.8758C124.586 78.0329 133.341 78.3788 137.861 76.3247C138.012 76.256 138.162 76.1953 138.315 76.1372C138.704 75.0547 139.057 72.7445 139.348 71.5907C138.677 71.757 137.993 71.8547 137.307 71.9392C134.247 72.3194 125.809 72.5966 119.86 71.6013Z" fill="#0F0F0F"/>
<path d="M121.203 70.9831C122.434 71.0518 134.93 71.6828 137.169 71.2736C142.088 70.3785 144.456 65.869 145.172 64.6465C151.044 54.6056 154.486 47.3317 155.408 37.0136C155.759 33.0901 154.275 22.8591 148.253 17.4704C143.091 12.8525 132.554 9.3806 122.584 11.6486C117.768 12.842 113.837 14.7641 110.223 18.3733C105.185 23.4057 101.441 30.0829 103.194 41.2406C103.632 44.0366 104.609 47.1152 105.774 50.5185C107.263 54.8723 111.21 61.2802 114.067 65.0214C118.597 70.9541 118.08 70.529 121.203 70.9831Z" fill="#0F0F0F"/>
<path d="M130.628 80.0157C129.825 80.3167 128.999 80.5094 128.154 80.6388C126.71 80.8579 125.239 81.1009 123.771 81.019C122.638 80.9556 121.58 80.8183 120.555 80.6045C121.928 83.0546 124.766 83.2078 131.185 83.39C136.349 83.5378 135.916 82.4527 138.039 76.8606C137.022 77.4758 135.71 77.9405 134.393 78.2599C133.22 78.9464 131.972 79.5114 130.628 80.0157Z" fill="#0F0F0F"/>
<path d="M137.886 75.6199C137.429 76.0608 136.964 76.4647 136.487 76.8423C136.978 76.6918 137.437 76.5202 137.862 76.3274C138.013 76.2588 138.163 76.1981 138.316 76.14C138.44 75.7915 138.562 75.3162 138.678 74.7935C138.425 75.0786 138.16 75.3532 137.886 75.6199Z" fill="#0F0F0F"/>
<path d="M148.256 17.4706C147.787 17.0482 147.269 16.6389 146.715 16.2402C147.356 17.0429 147.953 17.901 148.499 18.8356C150.532 22.3075 151.309 25.7584 151.723 29.6924C151.818 30.6032 151.829 31.5168 151.734 32.4277C151.533 34.3762 151.343 36.4224 150.738 38.3102C149.437 42.3656 147.486 45.5154 144.753 48.7339C144.22 49.3623 143.665 49.9669 143.031 50.4923C141.619 51.6593 140.396 53.1194 138.799 54.0488C138.237 54.3761 137.635 54.627 137.027 54.8593C132.32 56.6573 127.237 57.2963 122.221 57.1405C119.81 57.0666 117.339 56.8395 114.965 56.491C112.555 56.1372 110.115 54.9042 107.95 53.8454C107.602 53.6738 107.259 53.4916 106.921 53.2936C108.782 57.2936 111.779 62.0171 114.073 65.0217C118.604 70.9543 118.086 70.5292 121.21 70.9834C122.44 71.052 134.936 71.683 137.175 71.2738C142.094 70.3787 144.462 65.8692 145.178 64.6467C151.05 54.6058 154.493 47.3319 155.414 37.0138C155.763 33.0904 154.279 22.8594 148.256 17.4706Z" fill="#0F0F0F"/>
<path d="M123.514 15.1394C104.164 15.1394 104.132 40.5044 123.514 40.5044C142.865 40.5044 142.896 15.1394 123.514 15.1394Z" fill="#0F0F0F"/>
<path d="M124.106 71.9553C123.966 69.014 119.451 53.3203 118.178 48.9243C117.817 47.6754 117.413 46.4398 117.579 45.1223C117.703 44.1349 118.207 43.3877 119.192 43.0629C120.1 42.7619 120.657 43.224 121.23 43.9025C122.384 45.2622 123.564 46.6193 124.871 47.8259C127.131 49.9144 130.186 49.9144 132.591 47.9342C133.159 47.4669 133.666 46.9203 134.186 46.3976C135.374 45.2094 136.671 44.1692 138.276 43.6094C139.319 43.2451 140 43.5355 139.892 44.7844C139.844 45.3335 139.762 45.8906 139.599 46.4134C137.729 52.3487 136.631 58.4794 135.034 64.4833C134.537 66.35 134.286 69.7216 133.846 72.0266C134.902 71.4008 134.606 72.2378 134.698 71.7203C135.556 66.8675 137.125 59.253 138.305 54.4741C139.086 51.3111 139.968 48.1692 140.602 44.9797C140.966 43.1395 139.889 42.3316 138.091 42.8939C135.963 43.5593 134.45 45.1091 132.937 46.6457C130.379 49.2464 127.187 49.249 124.668 46.6193C123.604 45.5078 122.588 44.3461 121.584 43.1764C120.816 42.2788 119.871 41.8722 118.793 42.3606C117.761 42.8306 116.958 43.657 116.848 44.8662C116.763 45.7824 116.819 47.9421 117.101 48.8477C117.867 51.3164 122.852 65.8959 122.976 71.047C123.303 72.0846 122.999 70.8411 124.106 71.9553Z" fill="white"/>
<path d="M118.265 71.0995C118.749 71.345 119.258 71.5008 119.858 71.6011C125.806 72.5965 134.244 72.3193 137.304 71.9417C137.993 71.8572 138.675 71.7595 139.345 71.5932C139.358 71.5377 139.372 71.4849 139.385 71.4348C139.406 71.3608 139.583 71.3292 139.823 71.2104C139.842 71.2843 139.855 71.3661 139.868 71.4453C141.209 71.0229 142.709 70.2467 143.847 68.615C147.155 63.8757 155.05 50.9305 156.285 39.4718C157.983 23.7306 149.188 9.9537 129.175 9.97219C124.842 9.97747 121.785 10.59 117.695 12.0474C111.401 14.2916 106.464 19.2553 103.971 25.0481C100.782 32.4619 98.4081 43.6381 111.9 64.2665C114.625 67.7754 116.095 69.782 117.088 70.9384C117.326 71.4374 117.516 71.5985 117.539 71.5879C117.988 71.4269 118.157 70.7879 118.265 71.0995ZM114.067 65.0216C111.211 61.2803 107.263 54.8724 105.774 50.5186C104.61 47.1153 103.633 44.0368 103.195 41.2408C101.442 30.0804 105.188 23.4058 110.223 18.3735C113.838 14.7643 117.769 12.8421 122.585 11.6488C132.555 9.38341 143.092 12.8527 148.254 17.4705C154.276 22.8593 155.76 33.0903 155.409 37.0137C154.487 47.3318 151.042 54.6084 145.172 64.6467C144.457 65.8691 142.089 70.3787 137.17 71.2737C134.931 71.683 122.434 71.0519 121.204 70.9833C118.081 70.5292 118.598 70.9542 114.067 65.0216Z" fill="white"/>
<path d="M139.874 71.4455C139.86 71.3662 139.847 71.2844 139.829 71.2105C139.588 71.3293 139.409 71.361 139.39 71.4349C139.377 71.4824 139.364 71.5379 139.351 71.5933C139.06 72.7471 138.707 75.06 138.318 76.1398C138.445 76.0923 138.572 76.0448 138.701 75.9999C138.733 75.9893 138.796 76.0685 138.955 76.19C138.693 76.4303 138.385 76.6547 138.044 76.8606C135.921 82.4527 136.354 83.5378 131.19 83.39C122.366 83.1392 120.301 82.9491 119.525 76.755C118.992 76.4778 118.403 76.1425 118.833 75.4692C118.989 75.2263 119.163 75.1973 119.343 75.2685C119.134 73.8745 118.757 72.5095 118.295 71.1761C118.287 71.1524 118.276 71.126 118.268 71.0996C118.16 70.788 118.002 70.4052 117.553 70.5715C117.529 70.5794 117.505 70.59 117.484 70.6006C117.12 70.7827 117.183 71.1841 117.31 71.5167C118.26 74.0065 118.427 76.6837 119.182 79.221C119.501 80.2903 120.032 82.0065 121.001 82.6692C121.738 83.1761 122.583 83.5088 123.441 83.7491C123.871 83.8705 124.32 83.9893 124.758 84.0553C126.825 84.359 128.872 84.3722 130.96 84.4197C132.019 84.4435 133.083 84.4751 134.131 84.2586C135.691 83.9339 136.708 82.825 137.405 81.4441C138.102 80.0659 138.543 78.5583 138.942 77.0692C139.298 75.7438 140.14 73.0824 139.874 71.4455Z" fill="white"/>
<path d="M120.198 75.8786C119.932 75.7466 119.628 75.3822 119.34 75.2713C119.161 75.2 118.987 75.2265 118.831 75.472C118.4 76.1453 118.989 76.4832 119.522 76.7578C119.623 76.8106 119.721 76.8581 119.808 76.9083C122.406 78.3552 127.726 78.8753 130.633 78.7961C132.689 78.738 135.979 78.1149 138.041 76.8634C138.382 76.6575 138.691 76.4331 138.952 76.1928C138.794 76.0713 138.73 75.9921 138.699 76.0027C138.572 76.0476 138.443 76.0951 138.316 76.1426C138.163 76.2007 138.01 76.2614 137.862 76.3301C133.339 78.3816 124.584 78.0357 120.198 75.8786Z" fill="white"/>
<path d="M164.261 8.11035C161.795 10.3493 159.332 12.5856 156.866 14.8245C156.932 14.9064 157.001 14.9909 157.067 15.0727C159.649 12.9869 162.123 10.7665 164.557 8.49583C164.457 8.3691 164.359 8.23972 164.261 8.11035Z" fill="white"/>
<path d="M173.178 25.6313C169.63 27.0756 165.725 27.6564 162.554 30.0142C166.15 28.6861 169.846 27.5983 173.178 25.6313Z" fill="white"/>
<path d="M167.345 50.5687C164.845 49.5495 162.096 49.3172 159.601 48.2109C161.727 50.4552 164.578 50.3548 167.345 50.5687Z" fill="white"/>
<path d="M99.6784 51.6196C97.1041 52.4381 94.8441 54.0196 92.2197 54.7695C95.2876 55.1312 97.4131 53.2275 99.6784 51.6196Z" fill="white"/>
<path d="M106.084 63.0071C104.191 64.644 102.298 66.281 100.405 67.918C100.457 67.9787 100.508 68.0394 100.558 68.1001C102.541 66.5741 104.439 64.9503 106.311 63.2896C106.234 63.1972 106.16 63.1021 106.084 63.0071Z" fill="white"/>
<path d="M97.2364 35.1946C93.4106 35.3821 89.5321 34.6349 85.7618 35.8098C89.5928 35.7491 93.4397 35.9471 97.2364 35.1946Z" fill="white"/>
<path d="M107.549 14.743C106.052 12.4962 103.908 10.7589 102.464 8.44336C102.963 11.4929 105.379 13.011 107.549 14.743Z" fill="white"/>
<path d="M151.779 66.49C152.906 67.9712 154.369 69.0141 156.087 69.7137C154.786 68.4623 153.695 66.9494 151.779 66.49Z" fill="white"/>
<path d="M141.835 0C140.869 1.88779 140.359 3.36633 140.758 5.03498C140.993 3.48514 142.224 2.17557 141.835 0Z" fill="white"/>
<path d="M121.294 1.93311C121.138 1.99911 120.983 2.06248 120.824 2.12849C121.043 3.57271 121.45 4.94036 122.849 5.89878C122.332 4.57601 121.814 3.25588 121.294 1.93311Z" fill="white"/>
<path d="M135.468 163.95C139.172 166.194 143.114 167.81 147.238 168.684C147.793 168.858 149.955 169.325 150.536 169.381C150.536 169.381 150.507 168.771 150.718 167.675C151.133 165.505 151.962 162.091 152.738 160.06C151.175 160.707 149.197 161.455 147.676 162.02C146.074 162.614 144.498 162.569 142.985 161.629C141.878 160.94 140.719 160.34 139.587 159.696C138.451 159.052 137.327 158.363 136.03 158.096C134.33 157.748 132.711 159.704 133.078 161.394C133.342 162.598 134.401 163.3 135.468 163.95Z" fill="#0F0F0F"/>
<path d="M159.625 156.934C165.772 159.442 170.408 154.328 170.321 150.148C170.237 146.864 169.394 145.842 166.157 145.018C165.035 144.733 163.763 144.694 162.992 143.659C162.097 142.457 161.033 142.602 159.858 143.083C158.551 143.619 157.537 144.49 156.682 145.607C154.419 148.564 154.881 154.996 159.625 156.934Z" fill="#0F0F0F"/>
<path d="M151.177 171.007C150.892 175.117 150.203 179.173 149.701 183.255C149.038 188.641 148.494 194.048 148.032 199.447C147.861 201.465 147.636 204.467 147.517 206.489C147.396 208.559 148.407 210.117 151.214 209.813C152.114 209.715 153.141 208.913 153.318 208.123C153.545 207.104 153.735 206.072 153.857 205.034C154.324 201.016 155.602 188.644 155.861 186.898C155.879 186.769 155.913 186.642 155.956 186.518C156.212 185.758 156.51 184.955 157.426 184.873C158.406 184.783 158.741 185.613 159.005 186.349C159.245 187.022 161.094 205.908 161.234 207.73C161.371 209.51 162.472 210.244 164.135 210.304C166.102 210.376 167.026 209.544 167.232 207.719C167.554 204.852 167.354 201.979 167.272 199.104C166.995 189.568 166.86 180.525 167.626 171.012C167.803 168.826 168.69 166.207 169.764 164.261C171.185 161.681 172.383 158.996 173.738 156.387C174.783 154.376 175.061 152.358 174.374 150.146C173.558 147.514 172.639 144.939 171.116 142.626C170.041 140.995 168.547 139.873 166.712 139.189C165.822 138.859 164.864 139.059 164.151 139.598C163.451 140.129 163.029 140.81 163.187 141.745C163.351 142.7 163.966 143.382 164.925 143.675C165.799 143.941 166.667 144.303 167.565 144.401C169.619 144.622 170.564 146.056 170.963 147.73C172.497 154.167 167.066 159.944 160.88 158.37C159.686 158.067 158.665 157.626 157.806 157.042C156.13 157.568 154.525 159.03 154.174 159.675C153.268 161.346 152.698 163.007 152.259 164.844C151.774 166.869 151.322 168.934 151.177 171.007Z" fill="#0F0F0F"/>
<path d="M183.837 188.425C182.124 181.33 182.66 167.646 188.999 157.6C189.297 157.127 188.452 156.71 188.135 157.167C182.625 165.087 181.065 178.785 182.137 184.628C183.159 190.196 185.466 195.635 185.574 201.333C185.619 203.757 185.112 206.151 184.022 208.316C182.66 211.023 180.128 212.601 177.564 214.019C171.805 217.203 165.062 217.177 158.67 217.106C152.73 217.04 146.433 217.449 140.65 215.815C139.24 215.416 133.017 213.209 133.429 211.06C134.066 207.746 139.291 206.621 141.873 205.8C143.452 205.298 145.033 204.802 146.62 204.327C146.557 205.132 146.501 205.911 146.456 206.624C146.332 208.609 147.291 209.951 149.21 210.492C149.648 210.616 149.603 210.55 150.052 210.619C152.006 210.912 153.276 210.542 154.023 208.731C154.631 207.26 154.662 205.702 154.858 204.147C154.947 203.429 155.034 202.693 155.124 201.943C155.684 201.676 156.215 201.338 156.695 200.879C158.979 198.703 158.39 195.157 156.088 193.359C156.265 191.772 156.442 190.212 156.621 188.731C156.7 188.081 156.772 187.416 157.12 186.851C157.4 186.397 157.772 186.465 158.01 186.904C158.161 187.184 158.24 187.519 158.282 187.841C158.765 191.398 160.072 204.53 160.246 207.791C160.291 208.623 160.476 209.795 161.292 210.394C163.098 211.722 166.113 211.725 167.473 209.94C168.487 208.607 168.331 206.756 168.32 205.283C168.294 200.781 168.186 196.279 168.096 191.775C168.069 190.471 167.964 181.866 168.085 176.158C168.188 171.326 169.046 167.015 171.555 162.838C173.067 160.319 174.29 157.637 175.362 154.893C175.853 153.637 175.961 152.364 175.692 151.049C175.219 148.734 174.403 146.529 173.342 144.438C172.059 141.914 170.53 139.593 167.7 138.46C166.073 137.811 164.732 137.969 163.322 139.044C162.374 139.765 162.411 141.164 161.429 141.647C160.4 142.154 159.177 142.178 158.142 142.833C155.169 144.715 153.941 148.324 154.377 151.06C154.749 153.402 155.621 155.189 157.065 156.462C155.663 156.715 154.184 157.879 153.656 158.381C153.382 158.642 149.849 160.34 148.323 160.86C146.512 161.475 144.774 161.621 143.056 160.567C141.609 159.68 140.114 158.87 138.649 158.009C137.91 157.576 137.141 157.211 136.304 157.037C133.688 156.493 131.446 159.421 132.246 161.961C132.701 163.4 133.823 164.266 135.132 165.005C139.409 167.419 143.776 169.098 148.671 170.003C150.203 170.286 150.19 170.357 150.06 171.902C149.775 175.292 147.808 192.802 147.196 198.191C147.019 199.757 146.839 201.639 146.691 203.45C146.031 203.63 145.371 203.815 144.716 204.018C140.73 205.254 133.379 206.339 132.484 211.419C132.207 212.995 136.117 216.06 142.649 217.156C149.355 218.281 156.135 217.974 162.929 218.003C172.26 218.043 185.152 214.69 186.308 203.662C186.86 198.381 185.057 193.483 183.837 188.425ZM153.857 205.032C153.735 206.069 153.548 207.102 153.318 208.121C153.141 208.913 152.114 209.716 151.214 209.811C148.405 210.112 147.396 208.557 147.518 206.487C147.56 205.761 147.618 204.902 147.679 204.013C148.571 203.751 149.464 203.498 150.361 203.255C151.634 202.914 152.943 202.729 154.158 202.328C154.042 203.411 153.939 204.345 153.857 205.032ZM155.259 200.805C155.502 198.698 155.739 196.52 155.977 194.373C158.129 196.351 157.374 199.26 155.259 200.805ZM156.685 145.605C157.54 144.488 158.554 143.617 159.861 143.081C161.033 142.6 162.1 142.455 162.995 143.656C163.766 144.691 165.038 144.731 166.161 145.016C169.395 145.84 170.24 146.862 170.324 150.146C170.411 154.326 165.778 159.44 159.629 156.932C154.881 154.996 154.419 148.565 156.685 145.605ZM147.238 168.681C143.114 167.809 139.172 166.194 135.468 163.947C134.398 163.3 133.342 162.595 133.078 161.388C132.708 159.699 134.327 157.742 136.03 158.091C137.326 158.357 138.451 159.044 139.584 159.691C140.716 160.335 141.878 160.937 142.982 161.623C144.495 162.563 146.071 162.608 147.673 162.014C149.194 161.449 151.172 160.702 152.735 160.055C151.961 162.085 151.132 165.497 150.715 167.669C150.506 168.765 150.533 169.375 150.533 169.375C149.955 169.322 147.792 168.855 147.238 168.681ZM148.033 199.448C148.495 194.046 149.038 188.638 149.701 183.255C150.205 179.176 150.892 175.12 151.177 171.007C151.32 168.934 151.774 166.869 152.26 164.842C152.698 163.007 153.268 161.343 154.174 159.672C154.525 159.025 156.13 157.565 157.807 157.04C158.665 157.623 159.687 158.064 160.88 158.368C167.066 159.944 172.5 154.167 170.963 147.728C170.564 146.051 169.619 144.62 167.565 144.398C166.67 144.301 165.799 143.939 164.925 143.672C163.966 143.379 163.351 142.698 163.188 141.742C163.029 140.807 163.452 140.126 164.151 139.596C164.864 139.054 165.823 138.854 166.712 139.186C168.547 139.868 170.042 140.992 171.116 142.624C172.64 144.937 173.556 147.511 174.374 150.143C175.061 152.356 174.781 154.376 173.738 156.385C172.384 158.994 171.185 161.679 169.765 164.258C168.693 166.204 167.803 168.823 167.626 171.009C166.86 180.522 166.995 189.565 167.272 199.102C167.357 201.977 167.557 204.85 167.232 207.717C167.027 209.541 166.102 210.376 164.135 210.302C162.472 210.241 161.371 209.507 161.234 207.728C161.091 205.906 159.246 187.02 159.005 186.347C158.741 185.61 158.409 184.781 157.427 184.871C156.51 184.955 156.212 185.755 155.956 186.516C155.914 186.64 155.882 186.766 155.861 186.896C155.658 188.258 154.836 196.097 154.264 201.383C154.058 201.475 153.841 201.557 153.619 201.623C151.684 202.207 149.706 202.669 147.742 203.176C147.837 201.85 147.943 200.512 148.033 199.448Z" fill="white"/>
<path d="M169.815 136.269C168.03 133.766 165.247 133.238 163.581 135.141C165.926 134.172 167.917 134.943 169.815 136.269Z" fill="white"/>
<path d="M64.5566 156.638C60.5672 159.453 56.356 161.885 51.6986 163.453C49.9296 164.05 48.1105 163.445 46.3072 163.585C44.987 163.685 46.1144 162.019 45.1481 161.499C44.5646 162.563 44.7151 163.648 44.7019 164.712C44.6464 169.24 47.9943 201.375 47.7672 203.268C47.6695 204.076 47.6352 204.9 47.4346 205.684C46.9751 207.485 46.5184 208.728 43.4293 208.438C41.3989 208.248 40.7969 206.983 40.6332 205.264C40.3296 202.085 39.189 188.733 38.3811 185.304C38.125 184.211 37.6603 183.244 36.5857 183.194C35.5111 183.144 34.8748 184.171 34.6108 185.135C34.162 186.766 33.8715 200.182 33.4385 205.182C33.2352 207.529 31.6933 209.214 29.8293 209.201C27.461 209.185 25.8557 207.965 25.8768 205.462C25.9138 201.254 26.0088 200.168 26.1567 196.855C26.3732 192.013 26.4762 187.221 26.323 182.397C26.1277 176.245 26.4656 170.117 26.9488 163.989C26.9805 163.598 27.2313 163.115 26.4207 162.674C25.7871 164.623 25.7422 166.579 25.6075 168.501C25.2801 173.135 25.259 177.768 25.3382 182.405C24.5673 182.595 22.6636 182.315 22.3283 181.283C21.3118 178.159 21.8478 175.091 22.3151 171.514C22.7587 168.11 23.329 164.71 24.1633 161.357C24.8075 158.766 26.8405 154.502 30.1725 152.916C30.5659 152.612 30.9092 152.625 31.2286 152.24C31.2577 152.205 31.2894 152.176 31.3237 152.153C32.2029 152.467 33.1349 152.615 34.088 152.551C35.3184 152.469 36.5303 152.211 37.6471 151.786C40.1448 152.351 42.9567 153.536 44.4801 154.096C47.2233 155.102 49.9586 156.332 52.9474 154.933C55.1995 153.877 57.4517 152.815 59.7091 151.772C60.3296 151.485 60.9659 151.21 61.6207 151.02C63.0068 150.613 64.2451 150.772 65.0319 152.168C65.8847 153.692 65.7711 155.78 64.5566 156.638Z" fill="#0F0F0F"/>
<path d="M26.6164 143.991C26.6665 140.108 29.151 135.92 35.2183 136.327C39.5061 136.615 42.1886 140.182 42.1912 144.065C42.4685 148.203 38.1886 151.461 33.9114 151.577C30.0302 151.68 26.5662 147.986 26.6164 143.991Z" fill="#0F0F0F"/>
<path d="M64.5566 156.638C60.5672 159.453 56.356 161.885 51.6986 163.453C49.9296 164.05 48.1105 163.445 46.3072 163.585C44.987 163.685 46.1144 162.019 45.1481 161.499C44.5646 162.563 44.7151 163.648 44.7019 164.712C44.6464 169.24 47.9943 201.375 47.7672 203.268C47.6695 204.076 47.6352 204.9 47.4346 205.684C46.9751 207.485 46.5184 208.728 43.4293 208.438C41.3989 208.248 40.7969 206.983 40.6332 205.264C40.3296 202.085 39.189 188.733 38.3811 185.304C38.125 184.211 37.6603 183.244 36.5857 183.194C35.5111 183.144 34.8748 184.171 34.6108 185.135C34.162 186.766 33.8715 200.182 33.4385 205.182C33.2352 207.529 31.6933 209.214 29.8293 209.201C27.461 209.185 25.8557 207.965 25.8768 205.462C25.9138 201.254 26.0088 200.168 26.1567 196.855C26.3732 192.013 26.4762 187.221 26.323 182.397C26.1277 176.245 26.4656 170.117 26.9488 163.989C26.9805 163.598 27.2313 163.115 26.4207 162.674C25.7871 164.623 25.7422 166.579 25.6075 168.501C25.2801 173.135 25.259 177.768 25.3382 182.405C24.5673 182.595 22.6636 182.315 22.3283 181.283C21.3118 178.159 21.8478 175.091 22.3151 171.514C22.7587 168.11 23.329 164.71 24.1633 161.357C24.8075 158.766 26.8405 154.502 30.1725 152.916C30.5659 152.612 30.9092 152.625 31.2286 152.24C31.2577 152.205 31.2894 152.176 31.3237 152.153C32.2029 152.467 33.1349 152.615 34.088 152.551C35.3184 152.469 36.5303 152.211 37.6471 151.786C40.1448 152.351 42.9567 153.536 44.4801 154.096C47.2233 155.102 49.9586 156.332 52.9474 154.933C55.1995 153.877 57.4517 152.815 59.7091 151.772C60.3296 151.485 60.9659 151.21 61.6207 151.02C63.0068 150.613 64.2451 150.772 65.0319 152.168C65.8847 153.692 65.7711 155.78 64.5566 156.638Z" fill="#0F0F0F"/>
<path d="M26.6164 143.991C26.6665 140.108 29.151 135.92 35.2183 136.327C39.5061 136.615 42.1886 140.182 42.1912 144.065C42.4685 148.203 38.1886 151.461 33.9114 151.577C30.0302 151.68 26.5662 147.986 26.6164 143.991Z" fill="#0F0F0F"/>
<path d="M21.0744 180.358C21.283 181.377 21.7107 182.394 22.5556 182.985C22.5925 183.062 24.3985 183.63 25.3516 183.413C25.3859 185.145 25.4308 186.874 25.4784 188.607C25.6209 193.884 24.945 199.27 25.0137 204.551C25.0374 206.47 24.6678 207.888 26.4236 209C28.0156 210.008 29.782 210.243 31.5641 209.565C33.3727 208.876 34.1014 207.667 34.2704 205.736C34.7509 200.234 35.2288 186.587 35.4797 185.298C35.58 184.778 35.9602 184.158 36.5912 184.189C37.1668 184.218 37.2328 184.857 37.3674 185.338C37.8955 187.218 39.4453 200.039 39.5589 204.554C39.609 206.56 39.9602 207.59 41.3489 208.836C42.4447 209.818 45.848 209.81 47.1786 208.337C48.7021 206.65 48.747 204.342 48.6704 202.286C48.541 198.779 46.0011 174.988 45.6499 166.534C45.6156 165.731 45.0928 164.211 46.6374 164.456C47.0677 164.525 47.5008 164.575 47.9364 164.604C51.0889 164.823 53.2618 163.991 55.7753 162.801C58.6479 161.441 61.8479 159.553 65.3859 157.185C67.506 155.767 66.3443 151.521 64.9185 150.476C63.5007 149.436 61.6129 149.708 60.108 150.399C58.8565 150.975 56.7311 152.071 55.5509 152.77C51.5773 155.125 48.4512 155.16 44.174 152.992C43.2816 152.541 40.5384 151.638 38.7166 151.334C38.7034 151.331 38.6902 151.331 38.677 151.329C41.3067 149.985 43.1892 147.566 43.1496 144.115C43.0942 139.392 39.411 135.775 34.9542 135.426C28.8658 134.954 25.6843 139.234 25.6869 144.163C25.6896 147.376 27.7278 150.423 30.4896 151.801C27.543 153.256 24.9609 156.213 24.0896 158.558C22.5028 162.835 22.0592 167.326 21.3331 171.77C20.8658 174.618 20.4856 177.478 21.0744 180.358ZM33.9113 151.577C30.0302 151.68 26.5661 147.986 26.6163 143.991C26.6665 140.108 29.1483 135.92 35.2183 136.327C39.506 136.615 42.1886 140.182 42.1912 144.065C42.4684 148.203 38.1886 151.461 33.9113 151.577ZM22.31 171.516C22.7536 168.113 23.3239 164.712 24.1582 161.359C24.8024 158.769 26.8354 154.505 30.1674 152.918C30.5608 152.614 30.9041 152.628 31.2236 152.242C31.2526 152.208 31.2843 152.179 31.3186 152.155C32.1978 152.469 33.1298 152.617 34.083 152.554C35.3133 152.472 36.5252 152.213 37.642 151.788C40.1397 152.353 42.9516 153.539 44.475 154.098C47.2182 155.104 49.9536 156.335 52.9423 154.935C55.1945 153.879 57.444 152.818 59.704 151.775C60.3245 151.487 60.9608 151.213 61.6156 151.022C63.0017 150.616 64.24 150.774 65.0268 152.171C65.8875 153.697 65.774 155.788 64.5595 156.644C60.57 159.458 56.3588 161.89 51.7014 163.458C49.9324 164.055 48.1133 163.45 46.31 163.59C44.9899 163.69 46.1173 162.024 45.1509 161.504C44.5674 162.568 44.7179 163.653 44.7047 164.717C44.6493 169.245 47.9971 201.38 47.7701 203.273C47.6724 204.081 47.638 204.905 47.4374 205.689C46.978 207.49 46.5212 208.733 43.4321 208.443C41.4018 208.253 40.7998 206.988 40.6361 205.269C40.3325 202.09 39.1919 188.739 38.3839 185.309C38.1278 184.216 37.6631 183.249 36.5886 183.199C35.514 183.149 34.8777 184.176 34.6137 185.14C34.1648 186.772 33.8744 200.187 33.4414 205.187C33.2381 207.535 31.6962 209.219 29.8321 209.206C27.4638 209.19 25.8585 207.97 25.8797 205.467C25.9166 201.259 26.0117 200.173 26.1595 196.86C26.376 192.018 26.479 187.226 26.3259 182.402C26.1305 176.25 26.4684 170.122 26.9516 163.994C26.9833 163.603 27.2341 163.12 26.4236 162.679C25.7899 164.628 25.745 166.584 25.6104 168.506C25.283 173.14 25.2618 177.774 25.3411 182.41C24.5701 182.6 22.6665 182.32 22.3312 181.288C21.3041 178.159 21.8427 175.094 22.31 171.516Z" fill="white"/>
<path d="M67.5513 153.272C67.3849 150.822 66.4265 150.452 65.5843 148.757C67.5988 149.784 67.9104 151.363 68.4331 152.805C68.5467 153.116 68.4991 153.43 68.1295 153.568C67.8443 153.671 67.5698 153.536 67.5513 153.272Z" fill="white"/>
<path d="M52.7601 209.201C50.9805 209.859 49.6525 209.521 48.3218 209.22C49.6499 208.75 50.9805 208.584 52.7601 209.201Z" fill="white"/>
<path d="M25.2145 209.201C23.435 209.859 22.1069 209.521 20.7762 209.22C22.1017 208.75 23.4323 208.584 25.2145 209.201Z" fill="white"/>
<path d="M83.7465 157.732C83.134 156.378 82.1808 156.351 81.0825 156.359C80.3221 156.364 79.031 156.734 78.8356 157.648C78.5003 159.221 78.5214 160.821 78.9333 162.419C79.2607 163.691 80.6548 165.347 82.4766 164.916C83.9102 164.591 84.1399 163.293 84.161 162.004C84.1663 161.682 84.161 161.362 84.161 161.04C84.169 159.921 84.2297 158.804 83.7465 157.732Z" fill="#0F0F0F"/>
<path d="M108.362 137.658C108.563 133.26 104.845 129.695 100.842 129.603C95.6834 129.484 92.0081 133.347 91.8048 137.854C91.6068 142.308 95.6543 146.218 99.9025 146.218C104.726 146.218 108.33 142.683 108.362 137.658Z" fill="#0F0F0F"/>
<path d="M117.143 163.955C118.21 164.515 120.1 164.087 120.758 163.026C121.618 161.634 122.49 160.206 122.421 158.455C122.403 158.136 122.405 157.811 122.358 157.497C122.11 155.871 120.916 154.426 119.736 154.477C118.149 154.545 117.629 155.77 117.304 157.059C116.966 158.4 116.7 159.762 116.438 161.122C116.238 162.162 115.879 163.29 117.143 163.955Z" fill="#0F0F0F"/>
<path d="M112.335 192.662C110.936 181.51 110.178 170.31 109.557 159.094C109.483 157.777 109 156.478 109.306 155.121C110.019 155.187 109.811 155.725 109.872 156.095C110.08 157.404 110.236 158.717 110.36 160.034C110.429 160.039 110.497 160.063 110.561 160.113C112.055 161.286 113.729 162.107 115.556 162.598C115.532 162.255 115.553 161.88 115.627 161.473C115.973 159.585 116.443 157.721 116.873 155.849C116.868 155.849 116.863 155.849 116.855 155.847C115.574 155.535 114.745 154.616 113.935 153.629C113.032 152.53 112.179 151.385 111.184 150.365C108.771 147.892 105.647 146.923 102.265 146.735C101.481 146.923 100.649 147.018 99.7831 147.004C99.5877 147.002 99.3923 146.991 99.1996 146.975C97.2616 147.197 95.2207 147.459 93.3857 148.129C91.7857 148.715 90.5712 149.84 89.4782 151.11C87.7277 153.143 86.2306 155.459 83.659 156.507C84.3587 156.995 84.6095 157.845 84.7864 158.674C85.0452 159.894 84.9475 161.122 84.8234 162.347C84.7785 162.796 84.6834 163.216 84.5488 163.598C85.861 163.208 87.1574 162.764 88.4247 162.247C88.7943 162.096 89.3593 161.914 89.7263 161.682C90.0458 161.478 90.2201 161.151 90.4867 160.903C90.6636 160.739 90.7481 160.66 90.9039 160.591C90.8986 159.728 90.8933 158.864 90.896 158.004C90.8986 157.505 90.764 156.945 91.3818 156.512C91.4056 159.115 92.0022 161.674 91.8306 164.293C91.3897 171.018 91.1362 177.756 90.5607 184.47C90.1409 189.359 90.1699 194.289 89.3409 199.147C89.0742 200.713 89.8689 202.862 92.5673 202.994C94.4154 203.084 95.4583 202.516 95.9653 200.699C96.6306 198.323 97.5415 189.256 98.5052 181.74C98.6267 180.797 98.7507 179.825 99.3078 179.002C100.169 177.729 101.441 177.729 102.202 179.041C103.487 181.267 105.317 195.416 106.191 199.979C106.64 202.326 108.14 203.152 110.463 202.603C111.833 202.278 112.314 201.317 112.456 200.039C112.736 197.568 112.641 195.089 112.335 192.662Z" fill="#0F0F0F"/>
<path d="M83.7465 157.732C83.134 156.378 82.1808 156.351 81.0825 156.359C80.3221 156.364 79.031 156.734 78.8356 157.648C78.5003 159.221 78.5214 160.821 78.9333 162.419C79.2607 163.691 80.6548 165.347 82.4766 164.916C83.9102 164.591 84.1399 163.293 84.161 162.004C84.1663 161.682 84.161 161.362 84.161 161.04C84.169 159.921 84.2297 158.804 83.7465 157.732Z" fill="#0F0F0F"/>
<path d="M108.362 137.658C108.563 133.26 104.845 129.695 100.842 129.603C95.6834 129.484 92.0081 133.347 91.8048 137.854C91.6068 142.308 95.6543 146.218 99.9025 146.218C104.726 146.218 108.33 142.683 108.362 137.658Z" fill="#0F0F0F"/>
<path d="M117.143 163.955C118.21 164.515 120.1 164.087 120.758 163.026C121.618 161.634 122.49 160.206 122.421 158.455C122.403 158.136 122.405 157.811 122.358 157.497C122.11 155.871 120.916 154.426 119.736 154.477C118.149 154.545 117.629 155.77 117.304 157.059C116.966 158.4 116.7 159.762 116.438 161.122C116.238 162.162 115.879 163.29 117.143 163.955Z" fill="#0F0F0F"/>
<path d="M112.335 192.662C110.936 181.51 110.178 170.31 109.557 159.094C109.483 157.777 109 156.478 109.306 155.121C110.019 155.187 109.811 155.725 109.872 156.095C110.08 157.404 110.236 158.717 110.36 160.034C110.429 160.039 110.497 160.063 110.561 160.113C112.055 161.286 113.729 162.107 115.556 162.598C115.532 162.255 115.553 161.88 115.627 161.473C115.973 159.585 116.443 157.721 116.873 155.849C116.868 155.849 116.863 155.849 116.855 155.847C115.574 155.535 114.745 154.616 113.935 153.629C113.032 152.53 112.179 151.385 111.184 150.365C108.771 147.892 105.647 146.923 102.265 146.735C101.481 146.923 100.649 147.018 99.7831 147.004C99.5877 147.002 99.3923 146.991 99.1996 146.975C97.2616 147.197 95.2207 147.459 93.3857 148.129C91.7857 148.715 90.5712 149.84 89.4782 151.11C87.7277 153.143 86.2306 155.459 83.659 156.507C84.3587 156.995 84.6095 157.845 84.7864 158.674C85.0452 159.894 84.9475 161.122 84.8234 162.347C84.7785 162.796 84.6834 163.216 84.5488 163.598C85.861 163.208 87.1574 162.764 88.4247 162.247C88.7943 162.096 89.3593 161.914 89.7263 161.682C90.0458 161.478 90.2201 161.151 90.4867 160.903C90.6636 160.739 90.7481 160.66 90.9039 160.591C90.8986 159.728 90.8933 158.864 90.896 158.004C90.8986 157.505 90.764 156.945 91.3818 156.512C91.4056 159.115 92.0022 161.674 91.8306 164.293C91.3897 171.018 91.1362 177.756 90.5607 184.47C90.1409 189.359 90.1699 194.289 89.3409 199.147C89.0742 200.713 89.8689 202.862 92.5673 202.994C94.4154 203.084 95.4583 202.516 95.9653 200.699C96.6306 198.323 97.5415 189.256 98.5052 181.74C98.6267 180.797 98.7507 179.825 99.3078 179.002C100.169 177.729 101.441 177.729 102.202 179.041C103.487 181.267 105.317 195.416 106.191 199.979C106.64 202.326 108.14 203.152 110.463 202.603C111.833 202.278 112.314 201.317 112.456 200.039C112.736 197.568 112.641 195.089 112.335 192.662Z" fill="#0F0F0F"/>
<path d="M149.17 185.222C148.304 183.356 146.656 181.996 145.605 180.235C144.19 177.861 143.385 175.145 142.574 172.52C141.032 167.514 139.649 162.403 137.523 157.603C135.918 153.978 133.452 150.91 129.587 149.663C125.824 148.449 122.292 150.638 119.958 153.434C119.876 153.534 119.847 153.642 119.855 153.748C119.353 153.687 118.907 153.806 118.411 154.041C118.257 154.115 117.003 154.709 117.106 154.757C117.085 154.749 117.064 155.171 117.04 155.166C115.427 154.772 114.437 152.702 113.455 151.485C112.483 150.284 111.477 149.096 110.247 148.148C108.401 146.725 106.176 146.469 103.897 146.176C107.126 144.724 109.228 141.481 109.159 137.46C109.452 132.499 104.124 128.182 100.18 128.349C95.4086 128.552 90.5717 133.209 90.5532 137.642C90.5321 142.363 93.2621 145.436 96.6205 146.543C94.0436 146.931 91.9578 147.609 90.0304 149.476C89.5789 149.914 89.138 150.395 88.6997 150.889C87.5406 150.543 86.3129 150.424 84.9875 150.68C82.276 151.2 79.7862 152.808 79.81 155.802C79.6964 155.831 79.5855 155.86 79.4826 155.889C78.569 156.143 78.0753 156.927 77.8483 157.84C77.4681 159.372 77.9407 160.916 78.2443 162.458C78.4317 163.406 79.0152 164.32 79.9103 164.927C80.1215 165.069 80.3486 165.193 80.5915 165.299C80.7446 165.365 80.903 165.421 81.0694 165.468C81.0482 165.502 81.0245 165.537 81.0113 165.584C80.1928 168.586 79.4324 171.364 77.938 174.133C76.4832 176.834 74.6245 179.314 72.808 181.777C69.2727 186.577 66.1677 191.512 64.9136 197.418C63.9209 202.088 64.7262 206.553 67.3057 210.387C66.9044 210.487 66.5057 210.59 66.107 210.696C59.7968 212.391 53.4892 214.899 46.9757 215.67C43.2661 216.108 38.944 215.453 36.2193 212.692C34.3711 210.82 35.5223 207.992 36.9084 206.231C37.8219 205.069 39.2054 204.415 40.0873 203.2C40.4147 202.749 39.6648 202.318 39.3401 202.764C37.946 204.684 35.81 205.531 34.9361 207.892C34.3051 209.595 34.0411 211.406 35.2846 212.914C38.1995 216.451 44.8899 217.067 49.1381 216.43C55.4113 215.493 60.2509 213.265 66.3367 211.53C66.8278 211.39 67.3295 211.255 67.8337 211.126C68.0582 211.424 68.2905 211.72 68.5387 212.011C72.0027 216.087 77.7374 216.57 82.7222 216.689C85.41 216.752 89.901 216.898 91.6198 214.297C93.6264 211.263 85.8905 209.133 84.2931 208.969C78.8278 208.407 73.4601 208.94 68.1585 210.181C67.274 208.916 66.5823 207.512 66.0674 206.125C63.7097 199.757 66.8965 192.333 70.2311 186.944C73.3677 181.869 77.4575 177.518 79.9446 172.032C80.8555 170.02 81.27 167.926 81.8456 165.814C81.8641 165.748 81.8667 165.685 81.8588 165.629C82.0278 165.648 82.202 165.658 82.3816 165.658C82.5875 165.658 82.7882 165.611 82.9809 165.531C83.2317 165.428 83.4667 165.265 83.6806 165.048C83.8654 164.861 84.0397 164.639 84.1875 164.383C84.243 164.399 84.3063 164.401 84.3776 164.38C85.8852 163.942 87.3664 163.868 88.8185 163.269C89.3334 163.057 89.9195 162.878 90.3657 162.545C90.5532 162.405 90.7248 162.133 90.9096 161.92C90.9281 164.024 90.5136 165.695 90.4476 167.794C90.2205 174.962 89.3651 182.091 89.0429 189.257C88.9083 192.277 88.8212 195.337 88.2218 198.342C87.7598 200.657 89.0852 202.585 91.0179 203.448C92.3327 204.034 93.8297 203.894 94.9677 203.361C96.3723 202.701 97.2357 201.381 97.365 200.021C97.872 194.653 99.8126 181.386 99.9947 180.116C100.085 179.48 100.082 179.477 100.726 179.369C101.42 179.255 101.634 179.43 101.846 179.884C102.16 180.56 103.538 189.985 104.372 193.956C104.877 196.359 104.642 198.833 105.468 201.159C106.062 202.83 107.847 203.657 109.494 203.517C110.712 203.414 111.615 203.063 112.238 202.44C112.436 202.242 112.602 202.017 112.745 201.764C112.95 201.397 113.959 199.876 113.558 195.158C113.075 189.479 111.591 177.376 111.05 166.413C111.49 166.529 111.931 166.624 112.375 166.701C114.482 167.063 117.405 166.936 118.574 164.866C118.899 164.848 119.213 164.8 119.517 164.713C119.791 164.634 120.055 164.52 120.306 164.375C120.723 164.135 121.112 163.799 121.463 163.351C122.931 161.479 123.15 159.322 122.999 157.125C122.904 155.739 121.898 154.495 120.642 153.962C123.746 150.297 127.979 149.064 132.193 151.852C135.728 154.192 137.283 158.952 138.598 162.738C140.082 167.007 141.238 171.385 142.68 175.667C143.345 177.642 144.187 179.535 145.254 181.325C146.178 182.873 147.654 183.995 148.425 185.65C148.657 186.165 149.402 185.724 149.17 185.222ZM86.1994 210.199C87.8548 210.59 89.6845 211.501 90.738 212.871C91.699 214.12 89.5657 214.91 88.7684 215.195C86.5532 215.989 84.2218 215.86 81.9116 215.807C78.6192 215.731 75.2238 215.358 72.243 213.869C70.8542 213.175 69.6819 212.129 68.705 210.907C74.3473 209.537 80.6179 208.882 86.1994 210.199ZM91.8073 137.854C92.008 133.347 95.6858 129.484 100.845 129.603C104.848 129.695 108.565 133.26 108.364 137.658C108.333 142.683 104.726 146.218 99.9076 146.218C95.6568 146.218 91.6066 142.308 91.8073 137.854ZM89.4812 151.108C90.5743 149.838 91.7888 148.713 93.3888 148.127C95.2238 147.456 97.2647 147.195 99.2027 146.973C99.398 146.989 99.5908 146.999 99.7862 147.002C100.652 147.015 101.484 146.92 102.268 146.733C105.648 146.92 108.771 147.889 111.187 150.363C112.182 151.382 113.035 152.528 113.938 153.626C114.749 154.614 115.578 155.533 116.858 155.844C116.863 155.847 116.869 155.844 116.877 155.847C116.446 157.719 115.976 159.583 115.63 161.471C115.556 161.877 115.535 162.252 115.559 162.595C113.732 162.104 112.058 161.286 110.564 160.111C110.5 160.061 110.429 160.037 110.363 160.032C110.239 158.717 110.083 157.402 109.875 156.092C109.816 155.723 110.022 155.184 109.31 155.118C109.003 156.475 109.486 157.774 109.56 159.092C109.671 161.104 109.79 163.116 109.914 165.125C108.38 164.539 107.007 163.823 106.181 163.348C103.81 161.98 101.83 159.947 99.7334 158.207C97.9063 156.692 96.0079 155.271 94.0779 153.891C92.602 152.837 91.0891 151.784 89.4495 151.145C89.4575 151.137 89.468 151.121 89.4812 151.108ZM87.9367 151.762C86.4872 153.413 84.9664 155.071 82.9598 155.863C82.6614 155.982 82.7644 156.008 82.3921 155.887C82.0885 155.789 81.7954 155.691 81.4812 155.641C81.2304 155.601 80.9585 155.609 80.6839 155.638C80.7605 151.86 84.6496 151.155 87.9367 151.762ZM84.1611 161.038C84.1611 161.36 84.1664 161.679 84.1611 162.001C84.14 163.29 83.9103 164.589 82.4766 164.914C80.6548 165.344 79.2608 163.689 78.9334 162.416C78.5215 160.819 78.5004 159.219 78.8357 157.645C79.0311 156.734 80.3222 156.364 81.0826 156.357C82.1809 156.349 83.134 156.375 83.7466 157.729C84.2298 158.804 84.169 159.921 84.1611 161.038ZM112.335 192.663C112.639 195.092 112.737 197.571 112.462 200.034C112.319 201.312 111.839 202.276 110.469 202.598C108.145 203.147 106.646 202.321 106.197 199.974C105.323 195.411 103.493 181.262 102.207 179.036C101.45 177.724 100.174 177.724 99.3136 178.997C98.7565 179.82 98.6297 180.795 98.5109 181.735C97.5472 189.252 96.6363 198.318 95.971 200.694C95.4614 202.511 94.4211 203.079 92.573 202.989C89.8773 202.857 89.0799 200.708 89.3466 199.142C90.173 194.284 90.1466 189.354 90.5664 184.465C91.1446 177.753 91.3954 171.013 91.8363 164.288C92.008 161.669 91.4113 159.11 91.3875 156.507C90.767 156.943 90.9043 157.502 90.9017 157.999C90.8964 158.862 90.9017 159.725 90.9096 160.586C90.7538 160.652 90.6693 160.734 90.4924 160.898C90.2258 161.146 90.0515 161.473 89.7321 161.677C89.3651 161.909 88.7974 162.091 88.4304 162.242C87.1604 162.759 85.8667 163.2 84.5545 163.593C84.6865 163.211 84.7816 162.791 84.8291 162.342C84.9558 161.117 85.0509 159.889 84.7921 158.669C84.6152 157.838 84.3644 156.99 83.6647 156.502C85.8878 155.596 87.3083 153.743 88.7816 151.945C89.6581 152.174 90.4581 152.489 91.0839 152.858C95.2819 155.335 99.0759 158.706 102.738 161.898C104.795 163.694 107.319 165.215 109.975 166.096C110.527 174.973 111.229 183.834 112.335 192.663ZM111.007 165.513C110.944 164.087 110.896 162.685 110.87 161.323C112.428 162.474 113.714 162.867 115.604 163.343C115.638 163.351 115.67 163.353 115.699 163.353C115.857 163.831 116.145 164.203 116.536 164.465C116.718 164.586 116.924 164.679 117.151 164.747C117.283 164.787 117.423 164.816 117.571 164.837C116.23 166.58 113.529 166.316 111.007 165.513ZM122.358 157.497C122.405 157.814 122.403 158.136 122.421 158.456C122.49 160.206 121.618 161.634 120.758 163.026C120.338 163.702 119.419 164.119 118.532 164.19C118.374 164.061 118.149 164.034 117.996 164.188C117.684 164.161 117.391 164.085 117.143 163.955C115.879 163.292 116.238 162.162 116.438 161.122C116.7 159.762 116.966 158.4 117.304 157.059C117.629 155.77 118.152 154.545 119.736 154.477C120.916 154.424 122.11 155.871 122.358 157.497Z" fill="white"/>
<path d="M76.6421 163.34C76.378 162.057 76.3596 160.782 76.4335 159.506C76.4889 158.551 76.5998 157.595 76.679 156.639C76.7107 156.24 76.6289 155.807 76.1668 155.799C75.7259 155.791 75.8236 156.24 75.8104 156.544C75.7734 157.344 75.6836 158.147 75.7206 158.944C75.7919 160.452 75.4328 162.052 76.6421 163.34Z" fill="white"/>
<path d="M125.523 160.676C126.107 158.3 126.033 156.016 124.515 153.973C125.246 156.164 125.359 158.424 125.523 160.676Z" fill="white"/>
<path d="M76.3037 202.16C78.5532 202.558 80.8053 202.809 83.0733 202.318C80.8185 201.84 78.5611 201.885 76.3037 202.16Z" fill="white"/>
<path d="M118.207 202.102C116.805 201.898 115.403 201.943 113.861 202.107C115.284 202.928 116.797 202.366 118.128 202.875C118.408 202.984 118.817 203.081 118.87 202.624C118.914 202.231 118.5 202.144 118.207 202.102Z" fill="white"/>
<path d="M201.577 149.528C201.675 145.707 197.553 141.855 193.603 141.789C189.102 141.713 185.667 144.593 185.247 148.971C184.719 154.47 189.176 157.689 193.31 157.792C197.484 157.895 201.461 154.085 201.577 149.528Z" fill="#0F0F0F"/>
<path d="M201.577 149.528C201.675 145.707 197.553 141.855 193.603 141.789C189.102 141.713 185.667 144.593 185.247 148.971C184.719 154.47 189.176 157.689 193.31 157.792C197.484 157.895 201.461 154.085 201.577 149.528Z" fill="#0F0F0F"/>
<path d="M225.136 189.879C224.708 187.735 223.967 186.222 223.196 184.12C220.87 177.784 218.116 169.506 215.534 163.27C215.462 163.466 215.388 163.645 215.317 163.83C214.699 162.367 213.279 159.291 212.753 157.266C212.751 157.256 212.748 157.245 212.745 157.235C212.429 157.71 212.088 158.18 211.713 158.644C211.555 158.842 211.46 159.096 211.293 159.286C210.86 159.777 210.771 161.153 210.169 160.735C209.31 160.141 210.353 159.31 210.821 158.753C215.47 153.221 215.739 146.386 215.101 139.716C214.926 137.892 213.429 136.804 211.79 136.992C209.931 137.203 208.83 138.507 209.221 140.722C209.939 144.794 208.526 148.421 206.224 151.524C205.118 153.013 204.431 154.314 203.238 155.745C203.317 155.254 202.675 155.154 202.992 154.798C204.371 153.245 205.741 150.832 206.831 149.05C208.249 146.729 208.872 144.419 208.574 141.781C208.508 141.211 208.5 140.633 208.479 140.057C208.394 137.818 209.329 136.593 211.351 136.281C211.127 135.59 210.85 134.291 210.264 133.657C209.371 132.691 208.827 132.363 207.272 132.799C205.722 133.232 205.53 134.6 205.35 135.833C204.84 139.371 205.329 142.977 204.664 146.512C204.608 146.811 204.291 149.649 202.29 151.318C202.203 151.392 202.105 151.407 202.018 151.386C201.3 154.248 199.285 156.696 196.822 157.868C196.838 157.921 196.862 157.998 196.904 158.106C198.831 162.856 201.147 170.206 201.91 175.275C202.081 176.411 202.308 177.533 202.549 178.652C202.264 178.916 202.055 179.114 201.965 179.212C202.087 179.798 203.457 182.959 203.56 183.547C204.518 189.142 203.629 194.325 200.901 199.257C200.378 200.202 199.998 201.232 199.576 202.232C199.093 203.381 199.359 204.387 200.323 205.145C201.316 205.926 202.39 206.364 203.689 205.786C204.994 205.208 205.775 204.181 206.491 203.003C210.235 196.841 211.108 190.256 211.655 183.275C211.687 182.856 211.792 181.533 213.062 181.976C213.54 182.143 213.865 182.974 214.079 183.413C216.529 188.463 218.359 189.792 219.431 199.22C219.592 200.632 219.792 202.412 221.023 203.307C222.113 204.102 223.425 203.962 224.621 203.431C225.749 202.932 225.918 201.615 225.92 200.654C225.931 197.213 225.802 193.213 225.136 189.879Z" fill="#0F0F0F"/>
<path d="M183.625 142.252C180.85 144.451 181.151 147.466 181.471 150.473C181.444 147.548 181.907 144.747 183.625 142.252Z" fill="white"/>
<path d="M228.626 197.829C230.031 196.411 231.135 194.55 230.261 192.522C229.579 190.943 227.552 189.451 225.809 189.341C225.603 188.432 225.352 187.535 225.049 186.647C224.534 185.148 224.001 183.653 223.457 182.164C222.242 178.853 220.962 175.566 219.66 172.29C219.008 170.65 218.35 169.016 217.693 167.379C217.466 166.817 217.239 166.254 217.017 165.689C218.385 164.955 219.686 164.129 220.869 163.154C224.65 160.034 225.912 156.393 224.37 151.675C223.66 149.504 222.393 147.632 220.779 146.04C219.449 144.725 218.121 142.92 216.28 142.323C216.267 141.634 216.23 140.934 216.154 140.208C216.001 138.777 214.614 136.865 213.363 136.438C213.366 136.427 212.117 136.211 211.792 136.232C211.686 133.135 209.772 132.042 208.209 131.904C206.607 131.764 205.099 132.345 204.589 133.98C204.394 134.603 204.339 136.683 204.304 138.951C204.122 139.007 203.942 139.062 203.768 139.118C201.709 139.775 200.394 141.333 199.024 142.901C197.384 141.504 195.322 140.586 193.294 140.567C188.904 140.53 183.985 144.578 183.985 148.995C183.985 155.442 188.835 158.83 193.347 159.044C194.29 159.088 194.789 158.93 195.678 158.605C196.476 160.453 197.569 162.848 198.129 164.533C199.005 167.17 199.681 169.869 200.262 172.585C199.224 173.372 198.245 174.281 197.337 175.379C194.834 178.407 199.325 180.031 201.717 180.073C201.801 180.076 201.87 180.052 201.928 180.018C202.366 181.937 202.736 183.574 202.778 183.809C203.546 188.052 203.372 191.783 201.608 195.78C200.782 197.652 199.855 199.479 198.984 201.333C198.039 203.342 198.702 205.626 200.74 206.497C202.527 207.26 205.22 206.856 206.303 205.277C209.202 201.055 210.839 196.345 211.525 190.967C211.837 188.522 212.096 181.216 213.22 183.31C215.124 187.321 216.948 191.271 217.722 195.711C218.063 197.663 218.218 200.34 218.915 202.288C216.286 203.587 213.862 205.153 211.267 206.518C209.133 207.64 207.01 208.379 205.875 210.679C205.21 212.031 205.542 213.092 206.435 213.927C202.519 214.927 198.643 216.118 194.744 217.14C181.049 220.728 155.998 224.559 132.17 219.191C129.572 218.605 126.9 217.906 124.521 216.68C123.045 215.92 121.904 214.671 121.302 213.132C121.036 212.445 120.933 211.682 120.864 210.956C120.83 210.455 120.864 209.958 120.964 209.465C121.661 207.807 122.432 207.429 123.269 208.329C122.908 208.749 123.515 209.364 123.882 208.942C125.609 206.941 121.104 206.315 120.296 208.736C118.987 212.67 121.64 216.543 125.244 217.982C127.65 218.94 130.211 219.561 132.706 220.253C141.804 222.777 156.394 222.94 163.193 222.764C169.902 222.589 176.167 221.269 182.82 220.361C189.645 219.429 196.217 217.655 202.836 215.807C204.336 215.389 205.841 214.985 207.351 214.608C210.266 216.335 215.818 216.786 217.688 216.836C220.262 216.902 224.096 217.193 226.292 215.553C228.346 214.022 225.608 212.382 224.214 212.073C221.117 211.387 217.624 211.812 214.517 212.258C212.204 212.591 209.92 213.071 207.652 213.623C204.098 211.236 209.582 208.284 211.697 207.265C213.297 206.494 214.752 205.425 216.275 204.525C217.22 203.965 218.226 203.495 219.238 203.038C220.106 204.477 222.158 205.174 223.57 204.892C225.197 204.567 226.527 203.252 226.591 201.462C226.614 200.786 226.633 200.108 226.641 199.429C226.643 199.292 227.855 198.537 228.019 198.391C228.23 198.214 228.431 198.027 228.626 197.829ZM218.556 212.72C220.486 212.601 222.48 212.572 224.375 212.992C225.054 213.142 226.503 213.655 225.999 214.637C225.648 215.321 224.352 215.495 223.692 215.632C220.534 216.292 216.88 216.168 213.693 215.664C212.03 215.4 210.335 214.985 208.806 214.257C212.014 213.504 215.256 212.926 218.556 212.72ZM215.789 150.048C215.979 147.648 216.251 145.494 216.278 143.244C217.347 143.69 218.123 144.617 218.91 145.449C219.882 146.476 220.933 147.355 221.793 148.493C223.694 151.004 224.703 154.611 223.99 157.692C223.304 160.657 220.114 162.83 217.68 164.282C217.352 164.477 217.02 164.662 216.684 164.844C216.36 164.034 215.021 160.937 214.583 159.96C214.097 158.875 214.034 157.792 213.506 156.728C213.434 156.57 213.917 155.648 214.026 155.419C214.305 154.838 214.554 154.241 214.77 153.634C215.177 152.501 215.528 150.898 215.7 149.713C215.707 149.665 215.742 150.03 215.789 150.048ZM205.344 135.838C205.521 134.603 205.717 133.238 207.267 132.802C208.822 132.366 209.366 132.694 210.258 133.66C210.844 134.294 211.121 135.593 211.346 136.285C209.69 136.538 208.764 137.407 208.529 138.941C207.512 138.378 206.269 138.468 205.109 138.737C205.144 137.766 205.207 136.799 205.344 135.838ZM203.628 140.081C203.834 139.999 204.056 139.915 204.286 139.836C204.257 142.03 204.233 144.248 204.114 145.383C204.082 145.7 203.948 148.176 202.284 149.594C202.356 149.153 202.29 149.684 202.295 149.23C202.316 147.168 201.255 145.09 199.649 143.485C200.814 142.143 201.931 140.765 203.628 140.081ZM193.31 157.792C189.176 157.689 184.719 154.471 185.247 148.971C185.667 144.593 189.104 141.713 193.603 141.789C197.553 141.855 201.674 145.708 201.577 149.528C201.461 154.085 197.484 157.895 193.31 157.792ZM196.901 158.112C196.856 158.003 196.832 157.927 196.819 157.874C199.282 156.699 201.297 154.254 202.015 151.392C202.102 151.413 202.2 151.395 202.287 151.323C204.288 149.655 204.605 146.814 204.661 146.518C205.091 144.229 205.038 141.908 205.088 139.595C206.203 139.31 207.425 139.223 208.307 139.815C208.362 139.852 208.418 139.873 208.473 139.883C208.473 139.941 208.473 139.999 208.476 140.06C208.497 140.636 208.507 141.214 208.571 141.784C208.869 144.422 208.246 146.732 206.828 149.053C205.738 150.835 204.365 153.248 202.989 154.801C202.673 155.157 203.317 155.257 203.235 155.749C204.431 154.318 205.117 153.019 206.221 151.527C208.523 148.424 209.936 144.797 209.218 140.725C208.827 138.51 209.928 137.206 211.787 136.995C213.426 136.807 214.923 137.895 215.098 139.72C215.737 146.391 215.467 153.224 210.818 158.756C210.35 159.31 209.307 160.145 210.166 160.739C210.768 161.156 210.857 159.778 211.29 159.289C211.457 159.099 211.552 158.846 211.71 158.648C212.085 158.183 212.426 157.713 212.742 157.238C212.745 157.248 212.748 157.256 212.75 157.269C213.286 159.339 214.762 162.516 215.356 163.933C215.414 164.073 215.845 165.378 215.898 165.238C215.9 165.24 215.9 165.246 215.903 165.248C213.643 166.378 211.243 167.252 208.911 168.192C206.142 169.309 203.56 170.347 201.247 171.881C200.199 167.279 198.43 161.879 196.901 158.112ZM201.714 179.21C200.61 179.189 199.578 178.941 198.572 178.481C196.376 177.481 198.337 175.508 199.317 174.521C199.689 174.146 200.069 173.803 200.452 173.486C200.634 174.354 201.21 176.876 201.741 179.218C201.733 179.215 201.725 179.21 201.714 179.21ZM214.078 183.418C213.865 182.98 213.54 182.148 213.062 181.982C211.792 181.539 211.686 182.861 211.655 183.281C211.108 190.262 210.234 196.847 206.49 203.009C205.775 204.187 204.993 205.214 203.689 205.792C202.39 206.37 201.315 205.932 200.323 205.15C199.359 204.39 199.092 203.387 199.575 202.238C199.995 201.238 200.375 200.211 200.901 199.263C203.628 194.331 204.521 189.148 203.56 183.553C203.491 183.16 202.966 181.335 203.01 180.783C202.614 178.954 202.189 177.132 201.909 175.279C201.788 174.481 201.627 173.623 201.437 172.731C203.132 171.537 204.97 170.729 207.053 169.89C210.044 168.683 213.276 167.58 216.246 166.088C218.694 172.047 220.975 178.069 223.195 184.118C223.966 186.22 224.708 187.733 225.136 189.877C225.696 192.686 225.875 195.962 225.909 198.985C224.08 200.155 221.878 200.923 219.942 201.795C219.631 200.974 219.52 200.042 219.428 199.223C218.356 189.797 216.529 188.469 214.078 183.418ZM225.92 200.662C225.917 201.623 225.746 202.941 224.621 203.44C223.425 203.97 222.113 204.113 221.022 203.315C220.735 203.104 220.507 202.843 220.32 202.552C220.663 202.397 221.009 202.243 221.347 202.082C222.918 201.341 224.473 200.707 225.92 199.878C225.917 200.139 225.92 200.403 225.92 200.662ZM227.589 197.673C227.298 197.958 226.987 198.222 226.659 198.471C226.667 195.696 226.517 192.926 225.994 190.225C227.348 190.412 228.507 191.529 229.284 192.578C230.68 194.457 228.845 196.432 227.589 197.673Z" fill="white"/>
<path d="M129.061 83.7858C128.708 99.5217 117.294 110.695 97.674 107.53C92.5994 106.711 87.5592 105.708 82.4397 105.193C77.3044 104.678 72.14 104.163 66.9836 104.335C37.2305 105.328 23.8154 123.733 19.7863 129.375C15.2504 135.728 11.4669 142.265 11.018 150.257C10.7751 154.608 10.3949 164.984 17.183 171.593C19.224 173.581 21.1144 175.405 23.7256 176.388C29.6556 178.619 35.5487 179.252 41.8642 177.394C47.6701 175.683 52.8714 173.232 57.1592 169.409C57.2358 169.702 57.3097 169.993 57.3783 170.283C58.1863 173.687 58.247 177.153 58.3024 180.636C58.416 187.58 53.9328 193.858 48.1454 197.388C47.6701 197.679 48.1031 198.426 48.581 198.135C53.9724 194.846 58.1731 189.328 59.0655 183.012C59.5117 179.87 59.1869 176.221 58.8094 173.079C58.6351 171.63 58.2628 170.196 57.8642 168.765C59.2767 167.421 60.5863 165.922 61.7744 164.229C63.7414 161.428 64.5361 157.708 63.48 154.135C61.8694 148.683 59.0708 148.726 56.5863 149.219C55.1262 149.51 53.3546 150.798 53.3018 152.749C53.2807 153.491 53.3388 154.157 54.1097 154.178C55.1579 154.204 54.0807 153.534 54.1308 152.99C54.3236 150.899 56.6655 149.362 58.6615 149.951C62.841 151.181 62.7249 153.935 63.0338 155.453C63.7044 158.735 62.6061 160.934 61.5473 162.867C60.4833 164.81 59.1526 166.471 57.6265 167.928C57.0932 166.022 56.5784 164.116 56.4991 162.175C56.4754 161.621 55.612 161.618 55.6358 162.175C55.7229 164.303 56.3566 166.463 56.9295 168.57C55.3533 169.961 53.5922 171.157 51.7097 172.229C45.1223 175.973 38.1124 178.178 30.4873 177.1C25.8669 176.446 21.3335 175.163 18.2708 171.139C17.4391 170.048 13.022 166.679 12.3382 158.033C12.1798 156.031 12.2616 154.017 12.2484 152.007C12.2194 147.524 13.0669 143.273 15.1052 139.215C16.3725 136.694 17.7481 134.241 19.3375 131.947C22.3659 127.572 34.4028 110.31 56.7711 106.709C62.3183 105.816 67.1156 105.565 72.6998 105.808C78.1546 106.043 83.5988 106.51 88.9928 107.371C93.6846 108.118 97.505 108.662 102.242 109.116C119.688 110.788 129.611 98.0775 129.922 84.2267C129.946 83.3792 129.08 82.9488 129.061 83.7858Z" fill="white"/>
<path d="M119.131 213.882C117.418 212.219 117.497 209.525 118.91 207.561C119.237 207.107 118.487 206.677 118.162 207.125C116.528 209.393 116.98 212.58 118.949 214.494C119.353 214.88 119.533 214.27 119.131 213.882Z" fill="white"/>
<path d="M70.9713 180.021C69.5323 181.468 65.4769 188.311 64.6637 190.297C64.4525 190.814 65.2894 190.603 65.498 190.093C66.2663 188.213 70.1977 182.019 71.5838 180.631C71.9746 180.237 71.3647 179.625 70.9713 180.021Z" fill="white"/>
<path d="M187.961 198.405C187.781 197.882 187.026 197.209 187.209 197.737C188.035 200.134 187.969 203.844 186.873 206.056C186.628 206.555 186.86 207.118 187.106 206.619C188.315 204.179 188.872 201.043 187.961 198.405Z" fill="white"/>
<path d="M171.887 209.792H168.644C168.087 209.792 168.087 210.656 168.644 210.656H171.887C172.444 210.656 172.444 209.792 171.887 209.792Z" fill="white"/>
<path d="M197.825 206.551H195.34C194.783 206.551 194.783 207.414 195.34 207.414H197.825C198.382 207.417 198.382 206.551 197.825 206.551Z" fill="white"/>
<path d="M230.786 215.089H227.869C227.311 215.089 227.311 215.952 227.869 215.952H230.786C231.343 215.952 231.343 215.089 230.786 215.089Z" fill="white"/>
<path d="M211.399 129.254C210.287 128.232 208.848 127.699 207.33 128.01C205.596 128.367 204.254 129.721 203.935 131.525C203.837 132.068 204.526 131.973 204.526 131.416C204.526 130.136 205.551 129.526 206.665 129.069C208.101 128.48 209.672 128.842 210.786 129.864C211.196 130.241 211.808 129.632 211.399 129.254Z" fill="white"/>
</svg>
